<svg width="130" height="37" viewBox="0 0 130 37" fill="none" xmlns="http://www.w3.org/2000/svg">
<g clip-path="url(#clip0_1018_933)">
<rect width="21.1611" height="9.40492" transform="translate(13.9473 5.20312)" fill="black"/>
<rect width="16.9289" height="15.5181" transform="translate(2.66211 17.9004)" fill="black"/>
<rect width="12.6966" height="11.2859" transform="translate(22.4121 17.7422)" fill="black"/>
<path d="M61.4238 13.6883H60.3684C60.2766 13.3212 60.1084 12.8878 59.8637 12.3882C59.6291 11.8783 59.364 11.3991 59.0683 10.9504C58.7624 10.4813 58.4259 10.0734 58.0588 9.72675C57.7019 9.36985 57.3552 9.16591 57.0187 9.11493C56.7026 9.07414 56.3049 9.04355 55.8256 9.02315C55.3464 9.00276 54.9028 8.99256 54.4949 8.99256H53.6078V26.353C53.6078 26.6895 53.6792 27.0005 53.8219 27.2861C53.9647 27.5614 54.2145 27.7755 54.5714 27.9285C54.7549 27.9998 55.1373 28.0967 55.7186 28.2191C56.31 28.3414 56.7689 28.4077 57.0952 28.4179V29.5039H46.8471V28.4179C47.1327 28.3975 47.566 28.3567 48.1473 28.2956C48.7387 28.2344 49.1466 28.1579 49.3709 28.0661C49.7074 27.9336 49.9521 27.7449 50.1051 27.5002C50.2682 27.2453 50.3498 26.9088 50.3498 26.4907V8.99256H49.4627C49.1466 8.99256 48.754 9.00276 48.2849 9.02315C47.8159 9.03335 47.3672 9.06394 46.9389 9.11493C46.6024 9.15572 46.2506 9.35966 45.8835 9.72675C45.5266 10.0836 45.1952 10.4915 44.8893 10.9504C44.5834 11.4093 44.3132 11.8987 44.0786 12.4188C43.8441 12.9286 43.681 13.3518 43.5892 13.6883H42.5185V7.79951H61.4238V13.6883ZM76.184 25.9553C75.5518 27.1586 74.7054 28.1171 73.645 28.8309C72.5845 29.5447 71.3659 29.9016 69.9893 29.9016C68.7759 29.9016 67.7103 29.6875 66.7925 29.2592C65.885 28.8309 65.1355 28.2497 64.5441 27.5155C63.9527 26.7813 63.5091 25.9247 63.2134 24.9458C62.9279 23.9669 62.7851 22.9319 62.7851 21.8408C62.7851 20.8619 62.9381 19.9034 63.244 18.9653C63.5601 18.0169 64.019 17.1655 64.6206 16.4109C65.2018 15.6869 65.9207 15.1057 66.7773 14.6672C67.644 14.2185 68.6127 13.9942 69.6834 13.9942C70.7847 13.9942 71.7279 14.1676 72.5131 14.5143C73.2983 14.861 73.9356 15.3351 74.425 15.9367C74.8941 16.5078 75.2408 17.1808 75.4651 17.9558C75.6997 18.7307 75.8169 19.572 75.8169 20.4795V21.489H65.8289C65.8289 22.4781 65.9207 23.3755 66.1042 24.1811C66.298 24.9866 66.5988 25.6953 67.0067 26.3071C67.4044 26.8986 67.9244 27.3676 68.5668 27.7143C69.2092 28.0508 69.974 28.2191 70.8612 28.2191C71.7687 28.2191 72.5488 28.01 73.2014 27.592C73.8642 27.1637 74.5015 26.3989 75.1133 25.2976L76.184 25.9553ZM72.8037 20.2042C72.8037 19.6332 72.7527 19.0214 72.6507 18.3687C72.559 17.7161 72.406 17.1706 72.1919 16.7321C71.9573 16.2631 71.6361 15.8807 71.2283 15.5849C70.8204 15.2892 70.2952 15.1414 69.6528 15.1414C68.5821 15.1414 67.6899 15.59 66.9761 16.4874C66.2725 17.3745 65.8901 18.6135 65.8289 20.2042H72.8037ZM89.4759 16.365C89.4759 16.8851 89.3484 17.349 89.0935 17.7569C88.8385 18.1546 88.446 18.3534 87.9157 18.3534C87.3447 18.3534 86.9062 18.2056 86.6003 17.9099C86.3046 17.6142 86.1567 17.2879 86.1567 16.931C86.1567 16.7066 86.172 16.5027 86.2026 16.3191C86.2434 16.1356 86.2791 15.952 86.3097 15.7685C85.8304 15.7685 85.2696 15.9622 84.6272 16.3497C83.9848 16.7372 83.4392 17.2879 82.9905 18.0016V26.7813C82.9905 27.1382 83.0568 27.4288 83.1894 27.6531C83.3321 27.8775 83.5514 28.0457 83.8471 28.1579C84.102 28.2599 84.4283 28.3363 84.826 28.3873C85.2339 28.4383 85.5857 28.474 85.8814 28.4944V29.5039H77.9277V28.4944C78.1622 28.474 78.4019 28.4536 78.6466 28.4332C78.9015 28.4128 79.1208 28.372 79.3043 28.3109C79.5898 28.2191 79.7989 28.061 79.9314 27.8367C80.0742 27.6022 80.1456 27.3013 80.1456 26.9343V17.6193C80.1456 17.3031 80.0691 16.9921 79.9161 16.6862C79.7734 16.3803 79.5694 16.1356 79.3043 15.952C79.1106 15.8297 78.8811 15.743 78.616 15.692C78.3509 15.6308 78.0654 15.59 77.7595 15.5697V14.5754L82.7764 14.2389L82.9905 14.4531V16.5792H83.067C83.6992 15.7532 84.4028 15.1261 85.1778 14.6978C85.9528 14.2695 86.6615 14.0554 87.3039 14.0554C87.9463 14.0554 88.4664 14.2644 88.864 14.6825C89.2719 15.1006 89.4759 15.6614 89.4759 16.365ZM105.062 29.2286C104.583 29.4019 104.16 29.5396 103.793 29.6416C103.436 29.7537 103.028 29.8098 102.569 29.8098C101.773 29.8098 101.136 29.6263 100.657 29.2592C100.188 28.8819 99.887 28.3363 99.7545 27.6226H99.6627C98.9999 28.3567 98.2861 28.9176 97.5213 29.3051C96.7667 29.6926 95.8541 29.8863 94.7834 29.8863C93.6515 29.8863 92.7185 29.5396 91.9843 28.8462C91.2603 28.1528 90.8983 27.2453 90.8983 26.1236C90.8983 25.5424 90.9799 25.0223 91.1431 24.5634C91.3062 24.1046 91.551 23.6916 91.8773 23.3245C92.1322 23.0186 92.4687 22.7484 92.8868 22.5138C93.3048 22.2691 93.6974 22.0754 94.0645 21.9326C94.5234 21.7593 95.4513 21.438 96.8483 20.969C98.2555 20.4999 99.2038 20.1328 99.6933 19.8677V18.3534C99.6933 18.2209 99.6627 17.966 99.6015 17.5887C99.5505 17.2114 99.4333 16.8545 99.2497 16.518C99.0458 16.1407 98.7552 15.8144 98.3779 15.5391C98.0108 15.2535 97.4856 15.1108 96.8024 15.1108C96.3334 15.1108 95.8949 15.1924 95.487 15.3555C95.0893 15.5085 94.8089 15.6716 94.6458 15.845C94.6458 16.0489 94.6916 16.3497 94.7834 16.7474C94.8854 17.1451 94.9364 17.5122 94.9364 17.8487C94.9364 18.2056 94.7732 18.5319 94.4469 18.8276C94.1308 19.1233 93.6872 19.2712 93.1162 19.2712C92.6064 19.2712 92.2291 19.0927 91.9843 18.7358C91.7498 18.3687 91.6325 17.9609 91.6325 17.5122C91.6325 17.0431 91.7957 16.5945 92.122 16.1662C92.4585 15.7379 92.8919 15.3555 93.4221 15.019C93.881 14.7335 94.4367 14.4939 95.0893 14.3001C95.7419 14.0962 96.3793 13.9942 97.0013 13.9942C97.8578 13.9942 98.6022 14.0554 99.2344 14.1778C99.8768 14.2899 100.458 14.5398 100.978 14.9272C101.498 15.3045 101.891 15.8195 102.156 16.4721C102.431 17.1145 102.569 17.9456 102.569 18.9653C102.569 20.4234 102.554 21.7185 102.523 22.8503C102.492 23.972 102.477 25.2008 102.477 26.5366C102.477 26.9343 102.543 27.2504 102.676 27.4849C102.819 27.7194 103.033 27.9183 103.318 28.0814C103.471 28.1732 103.711 28.2242 104.037 28.2344C104.374 28.2446 104.715 28.2497 105.062 28.2497V29.2286ZM99.7239 21.1525C98.8571 21.4075 98.0975 21.6573 97.4448 21.902C96.7922 22.1467 96.1855 22.4527 95.6247 22.8197C95.1148 23.1664 94.712 23.5794 94.4163 24.0587C94.1206 24.5278 93.9728 25.0886 93.9728 25.7412C93.9728 26.5876 94.192 27.2096 94.6305 27.6073C95.0791 28.0049 95.6451 28.2038 96.3283 28.2038C97.0523 28.2038 97.6896 28.0304 98.2402 27.6837C98.7909 27.3268 99.2548 26.9088 99.6321 26.4295L99.7239 21.1525ZM113.888 29.5039H106.592V28.4944C106.826 28.474 107.066 28.4536 107.31 28.4332C107.565 28.4128 107.785 28.372 107.968 28.3109C108.254 28.2191 108.463 28.061 108.595 27.8367C108.738 27.6022 108.809 27.3013 108.809 26.9343V17.6193C108.809 17.293 108.733 16.9972 108.58 16.7321C108.437 16.4568 108.233 16.2274 107.968 16.0438C107.774 15.9215 107.494 15.8195 107.127 15.7379C106.76 15.6461 106.423 15.59 106.117 15.5697V14.5754L111.44 14.2389L111.654 14.4531V26.7507C111.654 27.1076 111.721 27.4033 111.853 27.6378C111.996 27.8724 112.215 28.0457 112.511 28.1579C112.735 28.2497 112.955 28.3261 113.169 28.3873C113.383 28.4383 113.622 28.474 113.888 28.4944V29.5039ZM111.96 8.28897C111.96 8.8702 111.767 9.38005 111.379 9.81852C111.002 10.2468 110.533 10.4609 109.972 10.4609C109.452 10.4609 108.998 10.257 108.611 9.84911C108.233 9.43104 108.045 8.95687 108.045 8.42663C108.045 7.86579 108.233 7.37633 108.611 6.95825C108.998 6.54018 109.452 6.33114 109.972 6.33114C110.553 6.33114 111.027 6.52998 111.394 6.92766C111.772 7.31515 111.96 7.76892 111.96 8.28897ZM127.684 29.5039H115.478V28.6932L124.013 15.6614H121.902C121.015 15.6614 120.322 15.6767 119.822 15.7073C119.323 15.7379 118.864 15.8399 118.446 16.0132C118.16 16.1254 117.89 16.4466 117.635 16.9768C117.39 17.5071 117.176 18.2005 116.993 19.057H116.06V14.4225H127.592V15.0496L118.92 28.265C119.287 28.2752 119.69 28.2854 120.128 28.2956C120.567 28.2956 121.041 28.2956 121.551 28.2956C121.959 28.2956 122.382 28.2905 122.82 28.2803C123.269 28.2701 123.84 28.2446 124.533 28.2038C124.941 28.1834 125.247 28.0457 125.451 27.7908C125.665 27.5359 125.828 27.2453 125.94 26.919C126.053 26.6232 126.185 26.2154 126.338 25.6953C126.501 25.1753 126.644 24.6705 126.766 24.1811H127.684V29.5039Z" fill="black"/>
</g>
<defs>
<clipPath id="clip0_1018_933">
<rect width="130" height="35.9555" fill="white" transform="translate(0 0.660156)"/>
</clipPath>
</defs>
</svg>
