<svg width="126" height="39" viewBox="0 0 126 39" fill="none" xmlns="http://www.w3.org/2000/svg">
<g clip-path="url(#clip0_825_1180)">
<path d="M1.95455 8.45454V7.72727H17.6818V8.45454H10.1818V31H9.45455V8.45454H1.95455ZM26.7301 31.3636C25.2074 31.3636 23.8741 30.9659 22.7301 30.1705C21.5938 29.375 20.7112 28.2955 20.0824 26.9318C19.4536 25.5682 19.1392 24.0303 19.1392 22.3182C19.1392 20.6061 19.4536 19.0682 20.0824 17.7045C20.7188 16.3409 21.5824 15.2614 22.6733 14.4659C23.7642 13.6705 24.9953 13.2727 26.3665 13.2727C27.3816 13.2727 28.321 13.4886 29.1847 13.9205C30.0559 14.3523 30.8134 14.9508 31.4574 15.7159C32.1013 16.4811 32.6013 17.3636 32.9574 18.3636C33.321 19.3561 33.5028 20.4167 33.5028 21.5455V22.2727H19.5028V21.5455H32.7756C32.7756 20.1439 32.4877 18.875 31.9119 17.7386C31.3362 16.5947 30.5634 15.6856 29.5938 15.0114C28.6241 14.3371 27.5483 14 26.3665 14C25.1695 14 24.0862 14.3561 23.1165 15.0682C22.1468 15.7803 21.3703 16.75 20.7869 17.9773C20.2036 19.2045 19.8968 20.5909 19.8665 22.1364V22.2273C19.8665 23.75 20.1316 25.1515 20.6619 26.4318C21.1998 27.7045 21.9801 28.7235 23.0028 29.4886C24.0256 30.2538 25.268 30.6364 26.7301 30.6364C27.8059 30.6364 28.7074 30.447 29.4347 30.0682C30.1695 29.6894 30.7566 29.2538 31.196 28.7614C31.643 28.2689 31.9725 27.8485 32.1847 27.5L32.7756 27.9091C32.518 28.3485 32.1316 28.8371 31.6165 29.375C31.1013 29.9129 30.4422 30.3788 29.6392 30.7727C28.8362 31.1667 27.8665 31.3636 26.7301 31.3636ZM44.9261 31.3636C43.517 31.3636 42.2595 30.9697 41.1534 30.1818C40.0549 29.3864 39.1875 28.3068 38.5511 26.9432C37.9223 25.5795 37.608 24.0379 37.608 22.3182C37.608 20.6136 37.9223 19.0795 38.5511 17.7159C39.1799 16.3447 40.0436 15.2614 41.142 14.4659C42.2481 13.6705 43.5095 13.2727 44.9261 13.2727C45.9716 13.2727 46.9299 13.5 47.8011 13.9545C48.6799 14.4015 49.4148 15.0303 50.0057 15.8409C50.5966 16.6439 50.9792 17.5758 51.1534 18.6364H50.3807C50.1458 17.2652 49.5208 16.1515 48.5057 15.2955C47.4981 14.4318 46.3049 14 44.9261 14C43.6761 14 42.5511 14.3636 41.5511 15.0909C40.5587 15.8106 39.7746 16.7992 39.1989 18.0568C38.6231 19.3068 38.3352 20.7273 38.3352 22.3182C38.3352 23.8636 38.6117 25.2652 39.1648 26.5227C39.7254 27.7803 40.5019 28.7803 41.4943 29.5227C42.4867 30.2652 43.6307 30.6364 44.9261 30.6364C45.858 30.6364 46.714 30.4432 47.4943 30.0568C48.2746 29.6629 48.9223 29.1098 49.4375 28.3977C49.9602 27.6856 50.2898 26.8561 50.4261 25.9091H51.1989C51.0322 27.0076 50.6534 27.9659 50.0625 28.7841C49.4716 29.6023 48.733 30.2386 47.8466 30.6932C46.9602 31.1402 45.9867 31.3636 44.9261 31.3636ZM57.0682 19.2727V31H56.3409V7.72727H57.0682V16.3182H57.1591C57.5682 15.4091 58.2386 14.6818 59.1705 14.1364C60.1098 13.5909 61.1818 13.3182 62.3864 13.3182C63.553 13.3182 64.5833 13.572 65.4773 14.0795C66.3712 14.5871 67.072 15.2879 67.5795 16.1818C68.0871 17.0758 68.3409 18.1061 68.3409 19.2727V31H67.6136V19.2727C67.6136 17.7273 67.1288 16.4697 66.1591 15.5C65.1894 14.5303 63.9318 14.0455 62.3864 14.0455C61.3561 14.0455 60.4394 14.2689 59.6364 14.7159C58.8409 15.1629 58.2121 15.7803 57.75 16.5682C57.2955 17.3561 57.0682 18.2576 57.0682 19.2727Z" fill="white"/>
<path d="M72.858 31L75.767 13.5455H77.1193L76.6648 16.2727H76.7898C77.3049 15.3788 78.0625 14.6629 79.0625 14.125C80.0625 13.5795 81.1383 13.3068 82.2898 13.3068C82.4186 13.3068 82.5398 13.3068 82.6534 13.3068C82.767 13.3068 82.8807 13.3106 82.9943 13.3182L82.7557 14.7159C82.6648 14.7083 82.5549 14.697 82.4261 14.6818C82.3049 14.6591 82.1534 14.6477 81.9716 14.6477C81.0019 14.6477 80.1042 14.8561 79.2784 15.2727C78.4527 15.6894 77.7633 16.2652 77.2102 17C76.6572 17.7273 76.3049 18.5606 76.1534 19.5L74.2443 31H72.858ZM88.3438 31.375C87.3362 31.375 86.446 31.1742 85.6733 30.7727C84.9081 30.3712 84.3362 29.7841 83.9574 29.0114C83.5786 28.2386 83.4763 27.2992 83.6506 26.1932C83.7794 25.4659 84.018 24.8258 84.3665 24.2727C84.715 23.7197 85.1922 23.2424 85.7983 22.8409C86.4044 22.4394 87.1468 22.1098 88.0256 21.8523C88.9119 21.5871 89.946 21.3826 91.1278 21.2386C92.0369 21.1326 92.8475 21.0265 93.5597 20.9205C94.2718 20.8144 94.8475 20.6515 95.2869 20.4318C95.7263 20.2121 95.9839 19.8826 96.0597 19.4432L96.1733 18.7159C96.3854 17.4508 96.1695 16.4432 95.5256 15.6932C94.8816 14.9356 93.8551 14.5568 92.446 14.5568C91.2036 14.5568 90.09 14.8371 89.1051 15.3977C88.1203 15.9508 87.3854 16.6515 86.9006 17.5L85.696 17.0114C86.1657 16.178 86.7604 15.4848 87.4801 14.9318C88.2074 14.3788 89.0028 13.9659 89.8665 13.6932C90.7377 13.4205 91.6241 13.2841 92.5256 13.2841C93.3059 13.2841 94.0331 13.3939 94.7074 13.6136C95.3816 13.8333 95.9574 14.1667 96.4347 14.6136C96.9195 15.0606 97.2642 15.6326 97.4688 16.3295C97.6809 17.0189 97.7036 17.8447 97.5369 18.8068L95.5142 31H94.1278L94.6619 27.8523H94.5597C94.1506 28.5038 93.6354 29.0985 93.0142 29.6364C92.4006 30.1667 91.6998 30.5909 90.9119 30.9091C90.1241 31.2197 89.268 31.375 88.3438 31.375ZM88.6051 30.0909C89.696 30.0909 90.7112 29.8258 91.6506 29.2955C92.5975 28.7576 93.393 28.0227 94.0369 27.0909C94.6884 26.1591 95.1089 25.1023 95.2983 23.9205L95.7415 21.3523C95.5369 21.5038 95.2604 21.6402 94.9119 21.7614C94.5634 21.875 94.1733 21.9773 93.7415 22.0682C93.3172 22.1515 92.8741 22.2273 92.4119 22.2955C91.9574 22.3561 91.5142 22.4129 91.0824 22.4659C89.7869 22.6174 88.715 22.8523 87.8665 23.1705C87.018 23.4811 86.3627 23.8902 85.9006 24.3977C85.446 24.9053 85.1544 25.5189 85.0256 26.2386C84.8362 27.428 85.0786 28.3674 85.7528 29.0568C86.4347 29.7462 87.3854 30.0909 88.6051 30.0909ZM101.395 31L104.304 13.5455H105.679L102.77 31H101.395ZM105.645 10.4432C105.319 10.4432 105.046 10.3333 104.827 10.1136C104.615 9.88636 104.524 9.60985 104.554 9.28409C104.569 9.01136 104.69 8.77273 104.918 8.56818C105.145 8.36364 105.406 8.26136 105.702 8.26136C106.027 8.26136 106.296 8.375 106.509 8.60227C106.721 8.82197 106.815 9.09091 106.793 9.40909C106.77 9.68939 106.645 9.93182 106.418 10.1364C106.198 10.3409 105.94 10.4432 105.645 10.4432ZM107.986 31L108.202 29.8295L120.895 14.9886L120.918 14.8636H111.236L111.463 13.5455H122.929L122.713 14.7386L110.145 29.5568L110.122 29.6818H120.656L120.429 31H107.986Z" fill="#00DCA7"/>
</g>
<defs>
<clipPath id="clip0_825_1180">
<rect width="126" height="39" fill="white"/>
</clipPath>
</defs>
</svg>
