<svg width="88" height="82" viewBox="0 0 88 82" fill="none" xmlns="http://www.w3.org/2000/svg">
<path d="M4 78H84M10.1538 4V78M53.2308 4V78M77.8462 22.5V78M22.4615 19.4167H25.5385M22.4615 31.75H25.5385M22.4615 44.0833H25.5385M37.8462 19.4167H40.9231M37.8462 31.75H40.9231M37.8462 44.0833H40.9231M22.4615 78V64.125C22.4615 61.572 24.5292 59.5 27.0769 59.5H36.3077C38.8554 59.5 40.9231 61.572 40.9231 64.125V78M7.07692 4H56.3077M53.2308 22.5H80.9231M65.5385 37.9167H65.5713V37.9496H65.5385V37.9167ZM65.5385 50.25H65.5713V50.2829H65.5385V50.25ZM65.5385 62.5833H65.5713V62.6162H65.5385V62.5833Z" stroke="#00DCA7" stroke-width="7" stroke-linecap="round" stroke-linejoin="round"/>
</svg>
