<svg width="70" height="70" viewBox="0 0 70 70" fill="none" xmlns="http://www.w3.org/2000/svg">
<g clip-path="url(#clip0_332_316)">
<path d="M63.4375 0H6.5625C2.93836 0 0 2.93836 0 6.5625V63.4375C0 67.0616 2.93836 70 6.5625 70H63.4375C67.0616 70 70 67.0616 70 63.4375V6.5625C70 2.93836 67.0616 0 63.4375 0ZM60.7939 4.78516C62.2284 4.78516 63.3916 5.94836 63.3916 7.38281C63.3916 8.81727 62.2284 9.98047 60.7939 9.98047C59.3595 9.98047 58.1963 8.81727 58.1963 7.38281C58.1963 5.94836 59.3595 4.78516 60.7939 4.78516ZM51.1552 4.78516C52.5897 4.78516 53.7529 5.94836 53.7529 7.38281C53.7529 8.81727 52.5897 9.98047 51.1552 9.98047C49.7208 9.98047 48.5576 8.81727 48.5576 7.38281C48.5576 5.94836 49.7208 4.78516 51.1552 4.78516ZM41.5166 4.78516C42.951 4.78516 44.1142 5.94836 44.1142 7.38281C44.1142 8.81727 42.951 9.98047 41.5166 9.98047C40.0821 9.98047 38.9189 8.81727 38.9189 7.38281C38.9189 5.94836 40.0821 4.78516 41.5166 4.78516ZM64.5312 63.4375C64.5312 64.0399 64.041 64.5312 63.4375 64.5312H6.5625C5.95902 64.5312 5.46875 64.0399 5.46875 63.4375V14.2188H64.5312V63.4375Z" fill="#00DCA7"/>
<path d="M33.9062 26.25H13.125V30.625H33.9062V26.25Z" fill="#00DCA7"/>
<path d="M57.9688 48.125H13.125V52.5H57.9688V48.125Z" fill="#00DCA7"/>
<path d="M57.9688 26.25H41.5625V42.6562H57.9688V26.25Z" fill="#00DCA7"/>
<path d="M31.3143 41.5625H33.9062V37.1875H13.125V41.5625H29.1268H31.3143Z" fill="#00DCA7"/>
</g>
<defs>
<clipPath id="clip0_332_316">
<rect width="70" height="70" fill="white"/>
</clipPath>
</defs>
</svg>
