<svg width="80" height="80" viewBox="0 0 80 80" fill="none" xmlns="http://www.w3.org/2000/svg">
<path d="M76.2972 35.8502L72.1095 34.9294C71.32 34.7564 70.7139 34.1356 70.5464 33.3445C69.8836 30.2125 68.7539 27.2541 67.2288 24.5459C66.8558 23.8841 66.8794 23.0713 67.2892 22.4314L69.85 18.4336C70.3712 17.62 70.2558 16.5534 69.5725 15.8702L65.3233 11.6206C64.64 10.9373 63.5737 10.822 62.7602 11.343L59.1858 13.6316C58.5061 14.0667 57.6364 14.0609 56.9583 13.6223C54.3305 11.9209 51.4309 10.6047 48.3386 9.75187C47.6047 9.54953 47.0434 8.9575 46.8805 8.21375L45.8697 3.58609C45.6628 2.64219 44.8266 1.95312 43.8605 1.95312H37.8503C36.8841 1.95312 36.0483 2.64219 35.8417 3.58609L34.9256 7.77141C34.7537 8.55687 34.1386 9.17109 33.3533 9.34187C30.2305 10.0219 27.283 11.1711 24.5862 12.7092C23.9225 13.0873 23.1052 13.0687 22.4616 12.6567L18.4253 10.072C17.6117 9.55141 16.5448 9.66703 15.8619 10.35L11.612 14.6C10.9288 15.283 10.8134 16.35 11.3344 17.1636L13.6986 20.8556C14.1316 21.5316 14.1283 22.3959 13.6961 23.0728C12.0436 25.6613 10.7625 28.5092 9.9275 31.5423C9.72516 32.2772 9.13344 32.8394 8.38875 33.003L3.58156 34.0537C2.63766 34.2609 1.95312 35.0969 1.95312 36.063V42.0728C1.95312 43.0391 2.63766 43.8748 3.58156 44.082L7.97656 45.0439C8.76 45.2158 9.37188 45.8283 9.545 46.6113C10.2173 49.6508 11.3355 52.5234 12.823 55.1583C13.1973 55.8214 13.1773 56.6353 12.7666 57.2766L10.0639 61.4984C9.54266 62.3117 9.65844 63.3783 10.3417 64.0616L14.5916 68.3114C15.2748 68.9944 16.3413 69.11 17.1548 68.5888L20.9892 66.1336C21.6667 65.6997 22.5325 65.7045 23.2103 66.1387C25.7522 67.7669 28.5455 69.0364 31.5194 69.8766C32.2488 70.0825 32.8052 70.6719 32.9672 71.4116L34.0453 76.3019C34.2522 77.2455 35.0881 77.8906 36.0542 77.8906H42.0644C43.0306 77.8906 43.8661 77.2455 44.0733 76.3019L45.0403 71.9042C45.213 71.1166 45.8314 70.5127 46.6195 70.343C49.6686 69.6872 52.5522 68.5895 55.1989 67.1147C55.8598 66.7461 56.6689 66.7706 57.3064 67.1789L61.4894 69.8583C62.303 70.3795 63.3695 70.2641 64.0525 69.5811L68.3027 65.3312C68.9853 64.6483 69.1009 63.5816 68.5803 62.768L66.2003 59.0523C65.7645 58.3713 65.7716 57.4995 66.2119 56.8213C67.8887 54.2398 69.1934 51.3944 70.0516 48.3614C70.2581 47.633 70.8475 47.0778 71.5863 46.9164L76.2967 45.8781C77.2406 45.6712 77.89 44.8353 77.89 43.8692V37.8591C77.8905 36.893 77.2411 36.0572 76.2972 35.8502ZM39.7509 63.6853C26.8952 63.6853 16.473 53.2633 16.473 40.4073C16.473 27.5514 26.895 17.1294 39.7509 17.1294C52.6069 17.1294 63.0286 27.5514 63.0286 40.4073C63.0286 53.2633 52.6069 63.6853 39.7509 63.6853Z" fill="#00DCA7"/>
<path d="M30.737 37.1344C32.7654 37.1344 34.4095 35.4898 34.4095 33.4619C34.4095 31.4334 32.7655 29.7891 30.737 29.7891C28.7088 29.7891 27.0645 31.4333 27.0645 33.4619C27.0645 35.4898 28.7087 37.1344 30.737 37.1344Z" fill="#00DCA7"/>
<path d="M49.4049 37.1344C51.4334 37.1344 53.0774 35.4898 53.0774 33.4619C53.0774 31.4334 51.4335 29.7891 49.4049 29.7891C47.3768 29.7891 45.7324 31.4333 45.7324 33.4619C45.7324 35.4898 47.3768 37.1344 49.4049 37.1344Z" fill="#00DCA7"/>
<path d="M40.0566 39.5019C42.085 39.5019 43.7294 37.8575 43.7294 35.8291C43.7294 33.8006 42.085 32.1562 40.0566 32.1562C38.0282 32.1562 36.3838 33.8006 36.3838 35.8291C36.3838 37.8575 38.0282 39.5019 40.0566 39.5019Z" fill="#00DCA7"/>
<path d="M39.9219 40.957C35.9955 40.957 32.8906 44.14 32.8906 48.0661V49.5258C32.8906 49.8098 33.1428 50.0783 33.4277 50.0783H46.6161C46.9002 50.0783 46.9531 49.8098 46.9531 49.5258V48.0661C46.9531 44.14 43.8483 40.957 39.9219 40.957Z" fill="#00DCA7"/>
<path d="M35.4061 40.4116C34.1542 39.2984 32.3912 38.6055 30.5855 38.6055C26.6584 38.6055 23.3594 41.7755 23.3594 45.6988V47.1575C23.3594 47.4425 23.8231 47.7344 24.1081 47.7344H31.1647C31.3206 44.4533 32.9741 41.9731 35.4061 40.4116Z" fill="#00DCA7"/>
<path d="M49.3736 38.5898C47.5597 38.5898 45.9098 39.3044 44.6562 40.4214C47.0784 41.982 48.7227 44.4528 48.8786 47.7341H55.9627C56.2473 47.7341 56.4841 47.4422 56.4841 47.1572V45.6984C56.4841 43.7367 55.6869 41.9577 54.4006 40.6747C53.1137 39.3842 51.3386 38.5898 49.3736 38.5898Z" fill="#00DCA7"/>
</svg>
