<svg width="80" height="80" viewBox="0 0 80 80" fill="none" xmlns="http://www.w3.org/2000/svg">
<path d="M51.9667 47.9C52.6608 50.8369 52.6812 53.8928 52.0266 56.8388C51.3719 59.7847 50.059 62.5443 48.1864 64.9108C46.3137 67.2773 43.9298 69.1893 41.2132 70.5036C38.4966 71.8179 35.5178 72.5004 32.5 72.5V56.5M51.9667 47.9C58.3329 43.2626 63.5119 37.185 67.0805 30.1636C70.6492 23.1422 72.5062 15.3762 72.5 7.50001C64.6243 7.49433 56.859 9.35163 49.8383 12.9202C42.8175 16.4888 36.7404 21.6675 32.1033 28.0333M51.9667 47.9C46.173 52.1376 39.5344 55.0714 32.5 56.5M32.5 56.5C32.1567 56.57 31.81 56.6367 31.4633 56.7C28.4393 54.3021 25.7013 51.5641 23.3033 48.54C23.3663 48.1926 23.4296 47.846 23.5 47.5M32.1033 28.0333C29.1662 27.3387 26.1099 27.3177 23.1636 27.9721C20.2172 28.6266 17.4571 29.9393 15.0902 31.8121C12.7233 33.6848 10.811 36.0689 9.4965 38.7858C8.182 41.5027 7.49945 44.4818 7.5 47.5H23.5M32.1033 28.0333C27.8663 33.8261 24.9292 40.4668 23.5 47.5M16.0367 55.4667C13.8439 57.0972 12.1391 59.2966 11.1067 61.8266C10.0744 64.3567 9.75392 67.1209 10.18 69.82C12.8794 70.2457 15.6439 69.9247 18.1739 68.8918C20.704 67.8589 22.9032 66.1534 24.5333 63.96M55 30C55 31.3261 54.4732 32.5979 53.5355 33.5355C52.5979 34.4732 51.3261 35 50 35C48.6739 35 47.4021 34.4732 46.4645 33.5355C45.5268 32.5979 45 31.3261 45 30C45 28.6739 45.5268 27.4022 46.4645 26.4645C47.4021 25.5268 48.6739 25 50 25C51.3261 25 52.5979 25.5268 53.5355 26.4645C54.4732 27.4022 55 28.6739 55 30Z" stroke="#00DCA7" stroke-width="6.5625" stroke-linecap="round" stroke-linejoin="round"/>
</svg>
