<svg width="80" height="80" viewBox="0 0 80 80" fill="none" xmlns="http://www.w3.org/2000/svg">
<path d="M40 70C56.5685 70 70 56.5685 70 40C70 23.4315 56.5685 10 40 10C23.4315 10 10 23.4315 10 40C10 56.5685 23.4315 70 40 70Z" stroke="#00DCA7" stroke-width="7" stroke-linecap="round" stroke-linejoin="round"/>
<path d="M48.3333 30.2784L47.8543 29.8792C46.656 28.8808 45.146 28.334 43.5863 28.334H35.8333C32.6117 28.334 30 30.9457 30 34.1673C30 37.389 32.6117 40.0007 35.8333 40.0007H44.1667C47.3883 40.0007 50 42.6123 50 45.834C50 49.0556 47.3883 51.6673 44.1667 51.6673H34.7067C32.971 51.6673 31.3038 50.9903 30.0594 49.7806L30 49.723" stroke="#00DCA7" stroke-width="7" stroke-linecap="round" stroke-linejoin="round"/>
<path d="M40 26.6673V23.334" stroke="#00DCA7" stroke-width="7" stroke-linecap="round" stroke-linejoin="round"/>
<path d="M40 56.6673V53.334" stroke="#00DCA7" stroke-width="7" stroke-linecap="round" stroke-linejoin="round"/>
</svg>
