<svg width="207" height="50" viewBox="0 0 207 50" fill="none" xmlns="http://www.w3.org/2000/svg">
<mask id="path-1-inside-1_484_298" fill="white">
<path d="M28 0H46V45H28V0Z"/>
</mask>
<path d="M28 0V-3H25V0H28ZM46 0H49V-3H46V0ZM28 0V3H46V0V-3H28V0ZM46 0H43V45H46H49V0H46ZM28 45H31V0H28H25V45H28Z" fill="#00DCA7" mask="url(#path-1-inside-1_484_298)"/>
<mask id="path-3-inside-2_484_298" fill="white">
<path d="M18 19H36V49H18V19Z"/>
</mask>
<path d="M18 19V16H15V19H18ZM36 19H39V16H36V19ZM18 19V22H36V19V16H18V19ZM36 19H33V49H36H39V19H36ZM18 49H21V19H18H15V49H18Z" fill="#031E3D" mask="url(#path-3-inside-2_484_298)"/>
<path d="M61.68 36C60.528 36 59.632 35.8293 58.992 35.488C58.352 35.1467 57.904 34.6667 57.648 34.048C57.4133 33.408 57.296 32.6613 57.296 31.808V22.624H54.224V18.848H57.296V14.176L61.968 13.728V18.848H65.424V22.624H61.968V30.912C61.968 31.424 62.0853 31.7653 62.32 31.936C62.5547 32.1067 62.896 32.192 63.344 32.192H65.424V36H61.68ZM75.411 36.288C73.619 36.288 72.083 35.9253 70.803 35.2C69.5443 34.4747 68.5737 33.4613 67.891 32.16C67.2083 30.8373 66.867 29.3013 66.867 27.552C66.867 25.696 67.2083 24.096 67.891 22.752C68.595 21.408 69.5763 20.3733 70.835 19.648C72.0937 18.9013 73.5657 18.528 75.251 18.528C77.235 18.528 78.867 18.9653 80.147 19.84C81.427 20.6933 82.3443 21.8773 82.899 23.392C83.4537 24.8853 83.635 26.5813 83.443 28.48H71.507C71.4857 29.8453 71.8377 30.9013 72.563 31.648C73.2883 32.3733 74.2377 32.736 75.411 32.736C76.307 32.736 77.0643 32.544 77.683 32.16C78.323 31.7547 78.7283 31.2213 78.899 30.56H83.347C83.1977 31.712 82.7603 32.7147 82.035 33.568C81.331 34.4213 80.4137 35.0933 79.283 35.584C78.1523 36.0533 76.8617 36.288 75.411 36.288ZM75.251 22.08C74.1843 22.08 73.3203 22.3893 72.659 23.008C71.9977 23.6053 71.6243 24.4267 71.539 25.472H78.835C78.771 24.32 78.3977 23.4667 77.715 22.912C77.0537 22.3573 76.2323 22.08 75.251 22.08ZM94.3165 36.288C92.6098 36.288 91.1165 35.9253 89.8365 35.2C88.5565 34.4533 87.5645 33.4187 86.8605 32.096C86.1565 30.752 85.8045 29.1947 85.8045 27.424C85.8045 25.632 86.1565 24.0747 86.8605 22.752C87.5858 21.408 88.5992 20.3733 89.9005 19.648C91.2018 18.9013 92.7272 18.528 94.4765 18.528C95.9485 18.528 97.2605 18.8053 98.4125 19.36C99.5645 19.9147 100.471 20.6827 101.133 21.664C101.815 22.6453 102.189 23.7867 102.253 25.088H97.6445C97.4952 24.192 97.1218 23.52 96.5245 23.072C95.9272 22.6027 95.2018 22.368 94.3485 22.368C93.1112 22.368 92.1725 22.8267 91.5325 23.744C90.8925 24.6613 90.5725 25.888 90.5725 27.424C90.5725 29.1093 90.9138 30.368 91.5965 31.2C92.3005 32.032 93.2072 32.448 94.3165 32.448C95.3192 32.448 96.1085 32.192 96.6845 31.68C97.2818 31.168 97.6232 30.496 97.7085 29.664H102.285C102.221 31.008 101.837 32.1813 101.133 33.184C100.45 34.1653 99.5218 34.9333 98.3485 35.488C97.1752 36.0213 95.8312 36.288 94.3165 36.288ZM105.172 36V12.672H109.876V21.952H110.068C110.538 20.8213 111.263 19.968 112.244 19.392C113.226 18.816 114.324 18.528 115.54 18.528C116.692 18.528 117.716 18.7627 118.612 19.232C119.53 19.7013 120.255 20.4587 120.788 21.504C121.322 22.528 121.588 23.904 121.588 25.632V36H116.884V26.656C116.884 25.2053 116.628 24.128 116.116 23.424C115.604 22.72 114.783 22.368 113.652 22.368C112.436 22.368 111.498 22.784 110.836 23.616C110.196 24.4267 109.876 25.376 109.876 26.464V36H105.172Z" fill="#001932"/>
<path d="M125.454 36V18.848H129.71L129.902 21.6H130.062C130.446 20.4907 131.054 19.7227 131.885 19.296C132.739 18.848 133.71 18.624 134.798 18.624H135.758V23.04H134.702C133.123 23.04 131.982 23.392 131.278 24.096C130.574 24.7787 130.2 25.76 130.158 27.04V36H125.454ZM143.746 36.288C141.698 36.288 140.045 35.552 138.786 34.08C137.528 32.5867 136.898 30.368 136.898 27.424C136.898 24.4587 137.528 22.24 138.786 20.768C140.045 19.2747 141.698 18.528 143.746 18.528C145.069 18.528 146.2 18.8267 147.138 19.424C148.098 20.0213 148.781 20.8213 149.186 21.824H149.442L149.634 18.848H154.146V36H149.442V32.992H149.186C148.781 33.9733 148.098 34.7733 147.138 35.392C146.2 35.9893 145.069 36.288 143.746 36.288ZM145.538 32.48C146.413 32.48 147.128 32.2773 147.682 31.872C148.258 31.4667 148.685 30.944 148.962 30.304C149.24 29.6427 149.378 28.9493 149.378 28.224V26.592C149.378 25.8453 149.24 25.152 148.962 24.512C148.685 23.872 148.258 23.3493 147.682 22.944C147.128 22.5387 146.413 22.336 145.538 22.336C144.386 22.336 143.458 22.752 142.754 23.584C142.05 24.3947 141.698 25.6747 141.698 27.424C141.698 29.152 142.05 30.432 142.754 31.264C143.458 32.0747 144.386 32.48 145.538 32.48ZM158.172 16.64V12.672H162.876V16.64H158.172ZM158.172 36V18.848H162.876V36H158.172ZM165.834 36V32.64L174.57 22.624H166.346V18.848H180.586V22.144L171.818 32.224H180.938V36H165.834Z" fill="#00DCA7"/>
</svg>
