<svg width="88" height="72" viewBox="0 0 88 72" fill="none" xmlns="http://www.w3.org/2000/svg">
<g opacity="0.8">
<rect x="16.942" y="25.708" width="10.4267" height="32.6404" rx="5.21335" transform="rotate(-49.69 16.942 25.708)" stroke="white" stroke-width="1.60411"/>
</g>
<g opacity="0.8">
<rect x="27.317" y="13.4737" width="10.4267" height="32.6404" rx="5.21335" transform="rotate(-49.69 27.317 13.4737)" stroke="white" stroke-width="1.60411"/>
</g>
<g opacity="0.8">
<rect x="50.7272" y="12.4483" width="10.4267" height="15.5181" rx="5.21335" transform="rotate(-49.69 50.7272 12.4483)" stroke="white" stroke-width="1.60411"/>
</g>
<g opacity="0.8">
<rect x="61.6074" y="4.18126" width="10.4267" height="47.985" rx="5.21335" transform="rotate(40.31 61.6074 4.18126)" stroke="white" stroke-width="1.60411"/>
</g>
<g opacity="0.8">
<rect x="25.1338" y="36.2348" width="10.4267" height="32.6404" rx="5.21335" transform="rotate(-139.69 25.1338 36.2348)" stroke="white" stroke-width="1.60411"/>
</g>
<path d="M4.82486 66.5293V55.8459H0.955752V52.4966H12.7171V55.8459H8.73247V66.5293H4.82486ZM16.8238 66.7218C15.6817 66.7218 14.7064 66.5036 13.8979 66.0673C13.1023 65.6182 12.4927 64.9958 12.0692 64.2001C11.6457 63.3917 11.434 62.4549 11.434 61.3897C11.434 60.2476 11.6521 59.2659 12.0885 58.4446C12.5248 57.6105 13.1343 56.9752 13.9171 56.5389C14.7128 56.0898 15.6368 55.8652 16.689 55.8652C17.9595 55.8652 18.999 56.1411 19.8074 56.6929C20.6159 57.2319 21.1934 57.9762 21.5399 58.9258C21.8992 59.8755 22.0147 60.9534 21.8864 62.1597H15.0529C15.04 62.75 15.194 63.2056 15.5148 63.5264C15.8485 63.8344 16.2848 63.9884 16.8238 63.9884C17.2088 63.9884 17.5424 63.9114 17.8248 63.7574C18.1071 63.5906 18.2867 63.3788 18.3637 63.1222H21.8094C21.7324 63.8408 21.4693 64.4696 21.0201 65.0086C20.5838 65.5476 20.0063 65.9711 19.2877 66.2791C18.5691 66.5742 17.7478 66.7218 16.8238 66.7218ZM16.689 58.5793C16.2271 58.5793 15.8485 58.7077 15.5533 58.9643C15.271 59.2081 15.1106 59.5418 15.0721 59.9653H18.2675C18.2418 59.5161 18.0814 59.1761 17.7863 58.9451C17.4911 58.7012 17.1254 58.5793 16.689 58.5793ZM28.4209 66.7218C27.3429 66.7218 26.4061 66.4972 25.6105 66.0481C24.8149 65.5989 24.1925 64.9637 23.7433 64.1424C23.307 63.3211 23.0888 62.365 23.0888 61.2742C23.0888 60.1706 23.307 59.2146 23.7433 58.4061C24.1925 57.5976 24.8213 56.9752 25.6297 56.5389C26.451 56.0898 27.4135 55.8652 28.5171 55.8652C29.4668 55.8652 30.3073 56.0448 31.0388 56.4042C31.7703 56.7507 32.3477 57.2383 32.7712 57.8671C33.1947 58.4959 33.4129 59.2274 33.4257 60.0615H29.8453C29.7812 59.638 29.6208 59.3301 29.3641 59.1376C29.1203 58.9322 28.8123 58.8296 28.4401 58.8296C27.8755 58.8296 27.4648 59.0542 27.2082 59.5033C26.9515 59.9396 26.8232 60.5363 26.8232 61.2935C26.8232 62.1533 26.9708 62.7821 27.2659 63.1799C27.5611 63.5649 27.9461 63.7574 28.4209 63.7574C28.87 63.7574 29.2101 63.6419 29.4411 63.4109C29.6849 63.1799 29.8325 62.8848 29.8838 62.5254H33.445C33.4193 63.3724 33.1883 64.1103 32.752 64.7391C32.3157 65.3679 31.7254 65.8556 30.981 66.2021C30.2367 66.5485 29.3834 66.7218 28.4209 66.7218ZM34.8884 66.5293V52.4966H38.565V57.7709H38.719C38.9756 57.1292 39.3799 56.6544 39.9317 56.3464C40.4963 56.0256 41.1251 55.8652 41.8181 55.8652C42.5111 55.8652 43.1335 56.0063 43.6853 56.2887C44.2371 56.5582 44.6734 57.0073 44.9942 57.6361C45.3151 58.2521 45.4755 59.0798 45.4755 60.1193V66.5293H41.7989V60.9278C41.7989 60.2348 41.6834 59.715 41.4524 59.3686C41.2214 59.0092 40.83 58.8296 40.2782 58.8296C39.7007 58.8296 39.2708 59.0221 38.9885 59.4071C38.7061 59.7792 38.565 60.177 38.565 60.6005V66.5293H34.8884Z" fill="white"/>
<path d="M47.4643 66.5293V56.0577H50.7944L50.9292 57.5784H51.0639C51.2949 56.9111 51.6478 56.4683 52.1226 56.2502C52.6103 56.032 53.1621 55.9229 53.7781 55.9229H54.3556V59.3686H53.7011C52.7001 59.3686 52.02 59.5611 51.6607 59.946C51.3142 60.3182 51.1409 60.8636 51.1409 61.5822V66.5293H47.4643ZM59.0518 66.7218C57.8198 66.7218 56.8253 66.2791 56.0681 65.3936C55.3238 64.5081 54.9517 63.1414 54.9517 61.2935C54.9517 59.4456 55.3238 58.0789 56.0681 57.1934C56.8253 56.3079 57.8198 55.8652 59.0518 55.8652C59.7961 55.8652 60.4377 56.032 60.9767 56.3657C61.5157 56.6865 61.9007 57.1164 62.1317 57.6554H62.3242L62.4589 56.0577H66.0008V66.5293H62.3242V64.9316H62.1317C61.9007 65.4706 61.5157 65.9069 60.9767 66.2406C60.4377 66.5614 59.7961 66.7218 59.0518 66.7218ZM60.4955 63.7766C61.1371 63.7766 61.5927 63.5649 61.8622 63.1414C62.1445 62.7179 62.2857 62.2431 62.2857 61.717V60.87C62.2857 60.3439 62.1445 59.869 61.8622 59.4456C61.5927 59.0221 61.1371 58.8103 60.4955 58.8103C59.9565 58.8103 59.5202 59.0028 59.1865 59.3878C58.8657 59.76 58.7053 60.3952 58.7053 61.2935C58.7053 62.1918 58.8657 62.8334 59.1865 63.2184C59.5202 63.5906 59.9565 63.7766 60.4955 63.7766ZM68.0859 54.9605V52.4966H71.7625V54.9605H68.0859ZM68.0859 66.5293V56.0577H71.7625V66.5293H68.0859ZM73.3761 66.5293V63.9114L77.919 59.0028H73.7226V56.0577H82.635V58.6178L78.0922 63.5842H82.8468V66.5293H73.3761Z" fill="#00DCA7"/>
</svg>
