<svg width="126" height="39" viewBox="0 0 126 39" fill="none" xmlns="http://www.w3.org/2000/svg">
<g clip-path="url(#clip0_874_660)">
<path d="M1.54545 10.2273V7.72727H19V10.2273H11.6818V31H8.86364V10.2273H1.54545ZM27.7727 31.3636C26.0909 31.3636 24.6402 30.9924 23.4205 30.25C22.2083 29.5 21.2727 28.4545 20.6136 27.1136C19.9621 25.7652 19.6364 24.197 19.6364 22.4091C19.6364 20.6212 19.9621 19.0455 20.6136 17.6818C21.2727 16.3106 22.1894 15.2424 23.3636 14.4773C24.5455 13.7045 25.9242 13.3182 27.5 13.3182C28.4091 13.3182 29.3068 13.4697 30.1932 13.7727C31.0795 14.0758 31.8864 14.5682 32.6136 15.25C33.3409 15.9242 33.9205 16.8182 34.3523 17.9318C34.7841 19.0455 35 20.4167 35 22.0455V23.1818H21.5455V20.8636H32.2727C32.2727 19.8788 32.0758 19 31.6818 18.2273C31.2955 17.4545 30.7424 16.8447 30.0227 16.3977C29.3106 15.9508 28.4697 15.7273 27.5 15.7273C26.4318 15.7273 25.5076 15.9924 24.7273 16.5227C23.9545 17.0455 23.3598 17.7273 22.9432 18.5682C22.5265 19.4091 22.3182 20.3106 22.3182 21.2727V22.8182C22.3182 24.1364 22.5455 25.2538 23 26.1705C23.4621 27.0795 24.1023 27.7727 24.9205 28.25C25.7386 28.7197 26.6894 28.9545 27.7727 28.9545C28.4773 28.9545 29.1136 28.8561 29.6818 28.6591C30.2576 28.4545 30.7538 28.1515 31.1705 27.75C31.5871 27.3409 31.9091 26.8333 32.1364 26.2273L34.7273 26.9545C34.4545 27.8333 33.9962 28.6061 33.3523 29.2727C32.7083 29.9318 31.9129 30.447 30.9659 30.8182C30.0189 31.1818 28.9545 31.3636 27.7727 31.3636ZM46.1705 31.3636C44.5341 31.3636 43.125 30.9773 41.9432 30.2045C40.7614 29.4318 39.8523 28.3674 39.2159 27.0114C38.5795 25.6553 38.2614 24.1061 38.2614 22.3636C38.2614 20.5909 38.5871 19.0265 39.2386 17.6705C39.8977 16.3068 40.8144 15.2424 41.9886 14.4773C43.1705 13.7045 44.5492 13.3182 46.125 13.3182C47.3523 13.3182 48.4583 13.5455 49.4432 14C50.428 14.4545 51.2348 15.0909 51.8636 15.9091C52.4924 16.7273 52.8826 17.6818 53.0341 18.7727H50.3523C50.1477 17.9773 49.6932 17.2727 48.9886 16.6591C48.2917 16.0379 47.3523 15.7273 46.1705 15.7273C45.125 15.7273 44.2083 16 43.4205 16.5455C42.6402 17.0833 42.0303 17.8447 41.5909 18.8295C41.1591 19.8068 40.9432 20.9545 40.9432 22.2727C40.9432 23.6212 41.1553 24.7955 41.5795 25.7955C42.0114 26.7955 42.6174 27.572 43.3977 28.125C44.1856 28.678 45.1098 28.9545 46.1705 28.9545C46.8674 28.9545 47.5 28.8333 48.0682 28.5909C48.6364 28.3485 49.1174 28 49.5114 27.5455C49.9053 27.0909 50.1856 26.5455 50.3523 25.9091H53.0341C52.8826 26.9394 52.5076 27.8674 51.9091 28.6932C51.3182 29.5114 50.5341 30.1629 49.5568 30.6477C48.5871 31.125 47.4583 31.3636 46.1705 31.3636ZM59.6364 20.5V31H56.9545V7.72727H59.6364V16.2727H59.8636C60.2727 15.3712 60.8864 14.6553 61.7045 14.125C62.5303 13.5871 63.6288 13.3182 65 13.3182C66.1894 13.3182 67.2311 13.5568 68.125 14.0341C69.0189 14.5038 69.7121 15.2273 70.2045 16.2045C70.7045 17.1742 70.9545 18.4091 70.9545 19.9091V31H68.2727V20.0909C68.2727 18.7045 67.9129 17.6326 67.1932 16.875C66.4811 16.1098 65.4924 15.7273 64.2273 15.7273C63.3485 15.7273 62.5606 15.9129 61.8636 16.2841C61.1742 16.6553 60.6288 17.197 60.2273 17.9091C59.8333 18.6212 59.6364 19.4848 59.6364 20.5Z" fill="#1A1A1A"/>
<path d="M74.8267 31L77.7358 13.5455H79.0881L78.6335 16.2727H78.7585C79.2737 15.3788 80.0312 14.6629 81.0312 14.125C82.0312 13.5795 83.107 13.3068 84.2585 13.3068C84.3873 13.3068 84.5085 13.3068 84.6222 13.3068C84.7358 13.3068 84.8494 13.3106 84.9631 13.3182L84.7244 14.7159C84.6335 14.7083 84.5237 14.697 84.3949 14.6818C84.2737 14.6591 84.1222 14.6477 83.9403 14.6477C82.9706 14.6477 82.0729 14.8561 81.2472 15.2727C80.4214 15.6894 79.732 16.2652 79.179 17C78.6259 17.7273 78.2737 18.5606 78.1222 19.5L76.2131 31H74.8267ZM90.3125 31.375C89.3049 31.375 88.4148 31.1742 87.642 30.7727C86.8769 30.3712 86.3049 29.7841 85.9261 29.0114C85.5473 28.2386 85.4451 27.2992 85.6193 26.1932C85.7481 25.4659 85.9867 24.8258 86.3352 24.2727C86.6837 23.7197 87.161 23.2424 87.767 22.8409C88.3731 22.4394 89.1155 22.1098 89.9943 21.8523C90.8807 21.5871 91.9148 21.3826 93.0966 21.2386C94.0057 21.1326 94.8163 21.0265 95.5284 20.9205C96.2405 20.8144 96.8163 20.6515 97.2557 20.4318C97.6951 20.2121 97.9527 19.8826 98.0284 19.4432L98.142 18.7159C98.3542 17.4508 98.1383 16.4432 97.4943 15.6932C96.8504 14.9356 95.8239 14.5568 94.4148 14.5568C93.1723 14.5568 92.0587 14.8371 91.0739 15.3977C90.089 15.9508 89.3542 16.6515 88.8693 17.5L87.6648 17.0114C88.1345 16.178 88.7292 15.4848 89.4489 14.9318C90.1761 14.3788 90.9716 13.9659 91.8352 13.6932C92.7064 13.4205 93.5928 13.2841 94.4943 13.2841C95.2746 13.2841 96.0019 13.3939 96.6761 13.6136C97.3504 13.8333 97.9261 14.1667 98.4034 14.6136C98.8883 15.0606 99.233 15.6326 99.4375 16.3295C99.6496 17.0189 99.6723 17.8447 99.5057 18.8068L97.483 31H96.0966L96.6307 27.8523H96.5284C96.1193 28.5038 95.6042 29.0985 94.983 29.6364C94.3693 30.1667 93.6686 30.5909 92.8807 30.9091C92.0928 31.2197 91.2367 31.375 90.3125 31.375ZM90.5739 30.0909C91.6648 30.0909 92.6799 29.8258 93.6193 29.2955C94.5663 28.7576 95.3617 28.0227 96.0057 27.0909C96.6572 26.1591 97.0777 25.1023 97.267 23.9205L97.7102 21.3523C97.5057 21.5038 97.2292 21.6402 96.8807 21.7614C96.5322 21.875 96.142 21.9773 95.7102 22.0682C95.286 22.1515 94.8428 22.2273 94.3807 22.2955C93.9261 22.3561 93.483 22.4129 93.0511 22.4659C91.7557 22.6174 90.6837 22.8523 89.8352 23.1705C88.9867 23.4811 88.3314 23.8902 87.8693 24.3977C87.4148 24.9053 87.1231 25.5189 86.9943 26.2386C86.8049 27.428 87.0473 28.3674 87.7216 29.0568C88.4034 29.7462 89.3542 30.0909 90.5739 30.0909ZM103.364 31L106.273 13.5455H107.648L104.739 31H103.364ZM107.614 10.4432C107.288 10.4432 107.015 10.3333 106.795 10.1136C106.583 9.88636 106.492 9.60985 106.523 9.28409C106.538 9.01136 106.659 8.77273 106.886 8.56818C107.114 8.36364 107.375 8.26136 107.67 8.26136C107.996 8.26136 108.265 8.375 108.477 8.60227C108.689 8.82197 108.784 9.09091 108.761 9.40909C108.739 9.68939 108.614 9.93182 108.386 10.1364C108.167 10.3409 107.909 10.4432 107.614 10.4432ZM109.955 31L110.17 29.8295L122.864 14.9886L122.886 14.8636H113.205L113.432 13.5455H124.898L124.682 14.7386L112.114 29.5568L112.091 29.6818H122.625L122.398 31H109.955Z" fill="#00DCA7"/>
</g>
<defs>
<clipPath id="clip0_874_660">
<rect width="126" height="39" fill="white"/>
</clipPath>
</defs>
</svg>
