<svg width="34" height="34" viewBox="0 0 34 34" fill="none" xmlns="http://www.w3.org/2000/svg">
<path d="M16.7666 0.75C25.6124 0.75 32.7832 7.92087 32.7832 16.7666C32.7832 25.6124 25.6124 32.7832 16.7666 32.7832C7.92087 32.7832 0.75 25.6124 0.75 16.7666C0.750035 7.92089 7.92089 0.750035 16.7666 0.75ZM16.7666 3.4502C9.41207 3.45023 3.45023 9.41207 3.4502 16.7666C3.4502 24.1211 9.41205 30.083 16.7666 30.083C24.1211 30.083 30.083 24.1211 30.083 16.7666C30.083 9.41205 24.1211 3.4502 16.7666 3.4502ZM16.7666 6.61621C17.5122 6.61621 18.1162 7.22122 18.1162 7.9668V8.22461C20.5003 8.73175 22.5164 10.5722 22.5166 13.0996C22.5166 13.8451 21.9124 14.45 21.167 14.4502C20.4214 14.4502 19.8164 13.8452 19.8164 13.0996C19.8162 12.3158 19.2088 11.4359 18.1162 11.0215V15.5586C20.5004 16.0659 22.5166 17.9061 22.5166 20.4336C22.5165 22.961 20.5003 24.8003 18.1162 25.3076V25.5664C18.1162 26.312 17.5122 26.917 16.7666 26.917C16.0211 26.917 15.417 26.3119 15.417 25.5664V25.3076C13.033 24.8003 11.0167 22.9609 11.0166 20.4336C11.0166 19.6882 11.6208 19.0833 12.3662 19.083C13.1118 19.083 13.7168 19.688 13.7168 20.4336C13.7169 21.2174 14.3246 22.0963 15.417 22.5107V17.9746C13.0328 17.4673 11.0166 15.6271 11.0166 13.0996C11.0168 10.5723 13.0329 8.73179 15.417 8.22461V7.9668C15.417 7.22124 16.0211 6.61625 16.7666 6.61621ZM18.1162 22.5107C19.2086 22.0963 19.8163 21.2174 19.8164 20.4336C19.8164 19.6497 19.2089 18.7699 18.1162 18.3555V22.5107ZM15.417 11.0215C14.3245 11.4359 13.717 12.3158 13.7168 13.0996C13.7168 13.8834 14.3246 14.7622 15.417 15.1768V11.0215Z" fill="white" stroke="white" stroke-width="0.5"/>
</svg>
