<svg width="182" height="52" viewBox="0 0 182 52" fill="none" xmlns="http://www.w3.org/2000/svg">
<g clip-path="url(#clip0_1207_875)">
<rect width="21.1611" height="9.40492" transform="translate(13.9473 5.54297)" fill="black"/>
<rect width="16.9289" height="15.5181" transform="translate(2.66211 18.2402)" fill="black"/>
<rect width="12.6966" height="11.2859" transform="translate(22.4121 18.082)" fill="black"/>
<path d="M61.4238 14.0281H60.3684C60.2766 13.661 60.1084 13.2277 59.8637 12.728C59.6291 12.2182 59.364 11.7389 59.0683 11.2902C58.7624 10.8212 58.4259 10.4133 58.0588 10.0666C57.7019 9.7097 57.3552 9.50576 57.0187 9.45477C56.7026 9.41398 56.3049 9.38339 55.8256 9.363C55.3464 9.3426 54.9028 9.33241 54.4949 9.33241H53.6078V26.6929C53.6078 27.0294 53.6792 27.3404 53.8219 27.6259C53.9647 27.9012 54.2145 28.1154 54.5714 28.2683C54.7549 28.3397 55.1373 28.4366 55.7186 28.5589C56.31 28.6813 56.7689 28.7476 57.0952 28.7578V29.8438H46.8471V28.7578C47.1327 28.7374 47.566 28.6966 48.1473 28.6354C48.7387 28.5742 49.1466 28.4977 49.3709 28.406C49.7074 28.2734 49.9521 28.0848 50.1051 27.84C50.2682 27.5851 50.3498 27.2486 50.3498 26.8305V9.33241H49.4627C49.1466 9.33241 48.754 9.3426 48.2849 9.363C47.8159 9.3732 47.3672 9.40379 46.9389 9.45477C46.6024 9.49556 46.2506 9.6995 45.8835 10.0666C45.5266 10.4235 45.1952 10.8314 44.8893 11.2902C44.5834 11.7491 44.3132 12.2386 44.0786 12.7586C43.8441 13.2685 43.681 13.6916 43.5892 14.0281H42.5185V8.13935H61.4238V14.0281ZM76.184 26.2952C75.5518 27.4984 74.7054 28.457 73.645 29.1707C72.5845 29.8845 71.3659 30.2414 69.9893 30.2414C68.7759 30.2414 67.7103 30.0273 66.7925 29.599C65.885 29.1707 65.1355 28.5895 64.5441 27.8553C63.9527 27.1211 63.5091 26.2646 63.2134 25.2857C62.9279 24.3068 62.7851 23.2718 62.7851 22.1807C62.7851 21.2018 62.9381 20.2432 63.244 19.3051C63.5601 18.3568 64.019 17.5053 64.6206 16.7508C65.2018 16.0268 65.9207 15.4455 66.7773 15.0071C67.644 14.5584 68.6127 14.3341 69.6834 14.3341C70.7847 14.3341 71.7279 14.5074 72.5131 14.8541C73.2983 15.2008 73.9356 15.675 74.425 16.2766C74.8941 16.8476 75.2408 17.5206 75.4651 18.2956C75.6997 19.0706 75.8169 19.9118 75.8169 20.8194V21.8289H65.8289C65.8289 22.818 65.9207 23.7153 66.1042 24.5209C66.298 25.3265 66.5988 26.0352 67.0067 26.647C67.4044 27.2384 67.9244 27.7075 68.5668 28.0542C69.2092 28.3907 69.974 28.5589 70.8612 28.5589C71.7687 28.5589 72.5488 28.3499 73.2014 27.9318C73.8642 27.5035 74.5015 26.7388 75.1133 25.6375L76.184 26.2952ZM72.8037 20.5441C72.8037 19.973 72.7527 19.3612 72.6507 18.7086C72.559 18.056 72.406 17.5104 72.1919 17.072C71.9573 16.6029 71.6361 16.2205 71.2283 15.9248C70.8204 15.6291 70.2952 15.4812 69.6528 15.4812C68.5821 15.4812 67.6899 15.9299 66.9761 16.8272C66.2725 17.7144 65.8901 18.9533 65.8289 20.5441H72.8037ZM89.4759 16.7049C89.4759 17.2249 89.3484 17.6889 89.0935 18.0968C88.8385 18.4944 88.446 18.6933 87.9157 18.6933C87.3447 18.6933 86.9062 18.5454 86.6003 18.2497C86.3046 17.954 86.1567 17.6277 86.1567 17.2708C86.1567 17.0465 86.172 16.8425 86.2026 16.659C86.2434 16.4754 86.2791 16.2919 86.3097 16.1083C85.8304 16.1083 85.2696 16.3021 84.6272 16.6896C83.9848 17.0771 83.4392 17.6277 82.9905 18.3415V27.1211C82.9905 27.478 83.0568 27.7687 83.1894 27.993C83.3321 28.2173 83.5514 28.3856 83.8471 28.4977C84.102 28.5997 84.4283 28.6762 84.826 28.7272C85.2339 28.7782 85.5857 28.8138 85.8814 28.8342V29.8438H77.9277V28.8342C78.1622 28.8138 78.4019 28.7935 78.6466 28.7731C78.9015 28.7527 79.1208 28.7119 79.3043 28.6507C79.5898 28.5589 79.7989 28.4009 79.9314 28.1765C80.0742 27.942 80.1456 27.6412 80.1456 27.2741V17.9591C80.1456 17.643 80.0691 17.332 79.9161 17.0261C79.7734 16.7202 79.5694 16.4754 79.3043 16.2919C79.1106 16.1695 78.8811 16.0828 78.616 16.0319C78.3509 15.9707 78.0654 15.9299 77.7595 15.9095V14.9153L82.7764 14.5788L82.9905 14.7929V16.919H83.067C83.6992 16.093 84.4028 15.4659 85.1778 15.0377C85.9528 14.6094 86.6615 14.3952 87.3039 14.3952C87.9463 14.3952 88.4664 14.6043 88.864 15.0224C89.2719 15.4404 89.4759 16.0013 89.4759 16.7049ZM105.062 29.5684C104.583 29.7418 104.16 29.8794 103.793 29.9814C103.436 30.0936 103.028 30.1497 102.569 30.1497C101.773 30.1497 101.136 29.9661 100.657 29.599C100.188 29.2217 99.887 28.6762 99.7545 27.9624H99.6627C98.9999 28.6966 98.2861 29.2574 97.5213 29.6449C96.7667 30.0324 95.8541 30.2261 94.7834 30.2261C93.6515 30.2261 92.7185 29.8794 91.9843 29.186C91.2603 28.4926 90.8983 27.5851 90.8983 26.4634C90.8983 25.8822 90.9799 25.3622 91.1431 24.9033C91.3062 24.4444 91.551 24.0314 91.8773 23.6643C92.1322 23.3584 92.4687 23.0882 92.8868 22.8537C93.3048 22.609 93.6974 22.4152 94.0645 22.2724C94.5234 22.0991 95.4513 21.7779 96.8483 21.3088C98.2555 20.8398 99.2038 20.4727 99.6933 20.2075V18.6933C99.6933 18.5607 99.6627 18.3058 99.6015 17.9285C99.5505 17.5512 99.4333 17.1943 99.2497 16.8578C99.0458 16.4805 98.7552 16.1542 98.3779 15.8789C98.0108 15.5934 97.4856 15.4506 96.8024 15.4506C96.3334 15.4506 95.8949 15.5322 95.487 15.6954C95.0893 15.8483 94.8089 16.0115 94.6458 16.1848C94.6458 16.3888 94.6916 16.6896 94.7834 17.0873C94.8854 17.4849 94.9364 17.852 94.9364 18.1885C94.9364 18.5454 94.7732 18.8717 94.4469 19.1675C94.1308 19.4632 93.6872 19.611 93.1162 19.611C92.6064 19.611 92.2291 19.4326 91.9843 19.0757C91.7498 18.7086 91.6325 18.3007 91.6325 17.852C91.6325 17.383 91.7957 16.9343 92.122 16.506C92.4585 16.0777 92.8919 15.6954 93.4221 15.3589C93.881 15.0733 94.4367 14.8337 95.0893 14.64C95.7419 14.436 96.3793 14.3341 97.0013 14.3341C97.8578 14.3341 98.6022 14.3952 99.2344 14.5176C99.8768 14.6298 100.458 14.8796 100.978 15.2671C101.498 15.6444 101.891 16.1593 102.156 16.8119C102.431 17.4543 102.569 18.2854 102.569 19.3051C102.569 20.7633 102.554 22.0583 102.523 23.1902C102.492 24.3119 102.477 25.5406 102.477 26.8764C102.477 27.2741 102.543 27.5902 102.676 27.8247C102.819 28.0593 103.033 28.2581 103.318 28.4213C103.471 28.513 103.711 28.564 104.037 28.5742C104.374 28.5844 104.715 28.5895 105.062 28.5895V29.5684ZM99.7239 21.4924C98.8571 21.7473 98.0975 21.9971 97.4448 22.2419C96.7922 22.4866 96.1855 22.7925 95.6247 23.1596C95.1148 23.5063 94.712 23.9193 94.4163 24.3985C94.1206 24.8676 93.9728 25.4284 93.9728 26.081C93.9728 26.9274 94.192 27.5494 94.6305 27.9471C95.0791 28.3448 95.6451 28.5436 96.3283 28.5436C97.0523 28.5436 97.6896 28.3703 98.2402 28.0236C98.7909 27.6667 99.2548 27.2486 99.6321 26.7693L99.7239 21.4924ZM113.888 29.8438H106.592V28.8342C106.826 28.8138 107.066 28.7935 107.31 28.7731C107.565 28.7527 107.785 28.7119 107.968 28.6507C108.254 28.5589 108.463 28.4009 108.595 28.1765C108.738 27.942 108.809 27.6412 108.809 27.2741V17.9591C108.809 17.6328 108.733 17.3371 108.58 17.072C108.437 16.7966 108.233 16.5672 107.968 16.3837C107.774 16.2613 107.494 16.1593 107.127 16.0777C106.76 15.986 106.423 15.9299 106.117 15.9095V14.9153L111.44 14.5788L111.654 14.7929V27.0905C111.654 27.4474 111.721 27.7432 111.853 27.9777C111.996 28.2122 112.215 28.3856 112.511 28.4977C112.735 28.5895 112.955 28.666 113.169 28.7272C113.383 28.7782 113.622 28.8138 113.888 28.8342V29.8438ZM111.96 8.62881C111.96 9.21004 111.767 9.71989 111.379 10.1584C111.002 10.5866 110.533 10.8008 109.972 10.8008C109.452 10.8008 108.998 10.5968 108.611 10.189C108.233 9.77088 108.045 9.29672 108.045 8.76647C108.045 8.20563 108.233 7.71618 108.611 7.2981C108.998 6.88002 109.452 6.67098 109.972 6.67098C110.553 6.67098 111.027 6.86982 111.394 7.26751C111.772 7.65499 111.96 8.10876 111.96 8.62881ZM127.684 29.8438H115.478V29.0331L124.013 16.0013H121.902C121.015 16.0013 120.322 16.0166 119.822 16.0472C119.323 16.0777 118.864 16.1797 118.446 16.3531C118.16 16.4652 117.89 16.7864 117.635 17.3167C117.39 17.8469 117.176 18.5403 116.993 19.3969H116.06V14.7623H127.592V15.3894L118.92 28.6048C119.287 28.615 119.69 28.6252 120.128 28.6354C120.567 28.6354 121.041 28.6354 121.551 28.6354C121.959 28.6354 122.382 28.6303 122.82 28.6201C123.269 28.6099 123.84 28.5844 124.533 28.5436C124.941 28.5232 125.247 28.3856 125.451 28.1306C125.665 27.8757 125.828 27.5851 125.94 27.2588C126.053 26.9631 126.185 26.5552 126.338 26.0352C126.501 25.5151 126.644 25.0104 126.766 24.5209H127.684V29.8438Z" fill="black"/>
<path d="M51.2271 45.8677C51.4175 46.0793 51.5571 46.312 51.646 46.5659C51.7391 46.8156 51.7856 47.1076 51.7856 47.4419C51.7856 48.2375 51.4915 48.8934 50.9033 49.4097C50.3151 49.9259 49.5851 50.1841 48.7134 50.1841C48.3114 50.1841 47.9093 50.1227 47.5073 50C47.1053 49.873 46.7583 49.7207 46.4663 49.543L46.1934 50.0063H45.6855L45.5967 46.9214H46.1108C46.2166 47.3022 46.3394 47.6471 46.479 47.9561C46.6229 48.2607 46.8112 48.5464 47.0439 48.813C47.264 49.0627 47.52 49.2616 47.812 49.4097C48.1082 49.5578 48.451 49.6318 48.8403 49.6318C49.1323 49.6318 49.3862 49.5938 49.6021 49.5176C49.8221 49.4414 49.9998 49.3335 50.1353 49.1938C50.2707 49.0542 50.3701 48.8913 50.4336 48.7051C50.5013 48.5146 50.5352 48.2967 50.5352 48.0513C50.5352 47.6916 50.4336 47.3573 50.2305 47.0483C50.0273 46.7352 49.7248 46.4982 49.3228 46.3374C49.0477 46.2274 48.7324 46.1068 48.377 45.9756C48.0215 45.8402 47.7147 45.7132 47.4565 45.5947C46.9487 45.3662 46.5531 45.0679 46.2695 44.6997C45.9902 44.3273 45.8506 43.8428 45.8506 43.2461C45.8506 42.9033 45.9204 42.5838 46.0601 42.2876C46.1997 41.9914 46.3986 41.7269 46.6567 41.4941C46.9022 41.2741 47.1921 41.1027 47.5264 40.98C47.8607 40.853 48.2098 40.7896 48.5737 40.7896C48.9884 40.7896 49.3587 40.853 49.6846 40.98C50.0146 41.1069 50.3151 41.255 50.5859 41.4243L50.8462 40.9927H51.354L51.4048 43.9824H50.8906C50.7975 43.6396 50.6917 43.3117 50.5732 42.9985C50.459 42.6854 50.3088 42.4019 50.1226 42.1479C49.9406 41.9025 49.7184 41.7078 49.4561 41.564C49.1937 41.4159 48.8721 41.3418 48.4912 41.3418C48.0892 41.3418 47.7464 41.4709 47.4629 41.729C47.1794 41.9871 47.0376 42.3024 47.0376 42.6748C47.0376 43.0641 47.1286 43.3879 47.3105 43.646C47.4925 43.8999 47.757 44.1094 48.104 44.2744C48.4129 44.4225 48.7155 44.5516 49.0117 44.6616C49.3122 44.7674 49.6021 44.8817 49.8813 45.0044C50.1353 45.1144 50.3786 45.2393 50.6113 45.3789C50.8483 45.5186 51.0535 45.6815 51.2271 45.8677ZM58.8569 46.8071C58.8569 47.2472 58.7871 47.681 58.6475 48.1084C58.5078 48.5316 58.3089 48.8913 58.0508 49.1875C57.7588 49.526 57.4202 49.7778 57.0352 49.9429C56.6501 50.1079 56.2184 50.1904 55.7402 50.1904C55.3424 50.1904 54.9637 50.1164 54.604 49.9683C54.2443 49.8159 53.9248 49.5959 53.6455 49.3081C53.3704 49.0246 53.1504 48.6797 52.9854 48.2734C52.8245 47.863 52.7441 47.4038 52.7441 46.896C52.7441 45.9185 53.0277 45.1187 53.5947 44.4966C54.166 43.8745 54.9129 43.5635 55.8354 43.5635C56.7114 43.5635 57.4329 43.8597 58 44.4521C58.5713 45.0404 58.8569 45.8254 58.8569 46.8071ZM57.543 46.8198C57.543 46.5024 57.5112 46.1681 57.4478 45.8169C57.3843 45.4614 57.2891 45.161 57.1621 44.9155C57.0267 44.6532 56.849 44.4437 56.6289 44.2871C56.4089 44.1263 56.1401 44.0459 55.8228 44.0459C55.4969 44.0459 55.2176 44.1263 54.9849 44.2871C54.7563 44.4479 54.5701 44.668 54.4263 44.9473C54.2909 45.2054 54.1956 45.4995 54.1406 45.8296C54.0856 46.1597 54.0581 46.4792 54.0581 46.7881C54.0581 47.1943 54.0898 47.571 54.1533 47.918C54.221 48.2607 54.3268 48.5675 54.4707 48.8384C54.6146 49.1092 54.7944 49.3229 55.0103 49.4795C55.2303 49.6318 55.5011 49.708 55.8228 49.708C56.3517 49.708 56.7707 49.452 57.0796 48.9399C57.3885 48.4279 57.543 47.7212 57.543 46.8198ZM64.4238 40.9292C64.4238 41.1196 64.373 41.2804 64.2715 41.4116C64.1699 41.5428 64.0155 41.6084 63.8081 41.6084C63.6769 41.6084 63.5605 41.5809 63.459 41.5259C63.3617 41.4709 63.2707 41.3968 63.186 41.3037C63.1014 41.2106 63.0231 41.1048 62.9512 40.9863C62.8792 40.8678 62.8179 40.7726 62.7671 40.7007C62.4836 40.7134 62.2635 40.9123 62.1069 41.2974C61.9546 41.6782 61.8784 42.2876 61.8784 43.1255V43.7666H63.4907V44.376H61.8784V48.8701C61.8784 49.0182 61.9059 49.1388 61.9609 49.2319C62.0202 49.325 62.1112 49.3949 62.2339 49.4414C62.3354 49.4795 62.4709 49.5112 62.6401 49.5366C62.8094 49.5578 62.9554 49.5726 63.0781 49.5811V50H59.7773V49.5811C59.8747 49.5726 59.9741 49.5641 60.0757 49.5557C60.1815 49.5472 60.2725 49.5303 60.3486 49.5049C60.4671 49.4668 60.5539 49.4012 60.6089 49.3081C60.6681 49.2108 60.6978 49.0859 60.6978 48.9336V44.376H59.46V43.7666H60.6978V43.3667C60.6978 42.4146 60.9432 41.6444 61.4341 41.0562C61.9292 40.4637 62.547 40.1675 63.2876 40.1675C63.6642 40.1675 63.9478 40.2415 64.1382 40.3896C64.3286 40.5378 64.4238 40.7176 64.4238 40.9292ZM67.8579 49.7271C67.5828 49.8413 67.3226 49.9365 67.0771 50.0127C66.8317 50.0931 66.5312 50.1333 66.1758 50.1333C65.651 50.1333 65.2808 50.0021 65.0649 49.7397C64.8534 49.4731 64.7476 49.0986 64.7476 48.6162V44.376H63.6177V43.7666H64.7729V41.8179H65.9282V43.7666H67.7246V44.376H65.9409V47.8735C65.9409 48.1359 65.9494 48.356 65.9663 48.5337C65.9875 48.7072 66.034 48.8595 66.106 48.9907C66.1737 49.1134 66.2752 49.2065 66.4106 49.27C66.5461 49.3335 66.728 49.3652 66.9565 49.3652C67.0623 49.3652 67.2168 49.3568 67.4199 49.3398C67.6273 49.3187 67.7733 49.2933 67.8579 49.2637V49.7271ZM77.811 44.1475C77.6333 44.1644 77.4408 44.2384 77.2334 44.3696C77.0303 44.5008 76.8822 44.6976 76.7891 44.96C76.5775 45.582 76.3765 46.1724 76.186 46.731C75.9998 47.2853 75.7904 47.9095 75.5576 48.6035C75.4814 48.8236 75.4032 49.0605 75.3228 49.3145C75.2466 49.5684 75.1768 49.8117 75.1133 50.0444H74.5674L72.8853 45.436L71.1904 50.0444H70.6699C70.3525 49.105 70.0415 48.174 69.7368 47.2515C69.4364 46.3247 69.1698 45.5186 68.937 44.833C68.8693 44.6341 68.7402 44.4775 68.5498 44.3633C68.3594 44.249 68.1753 44.1813 67.9976 44.1602V43.7412H70.7905V44.1855C70.6509 44.1898 70.4985 44.2131 70.3335 44.2554C70.1727 44.2977 70.0923 44.3675 70.0923 44.4648C70.0923 44.4818 70.0986 44.5177 70.1113 44.5728C70.1283 44.6278 70.1473 44.687 70.1685 44.7505C70.3039 45.1948 70.4562 45.6921 70.6255 46.2422C70.799 46.7881 71.0212 47.499 71.292 48.375L72.8916 43.8682H73.501L75.1323 48.3115C75.3143 47.7445 75.4941 47.1965 75.6719 46.6675C75.8538 46.1343 76.0125 45.6349 76.1479 45.1694C76.1776 45.0594 76.2051 44.96 76.2305 44.8711C76.2601 44.778 76.2749 44.687 76.2749 44.5981C76.2749 44.522 76.241 44.4543 76.1733 44.395C76.1056 44.3358 76.0231 44.2871 75.9258 44.249C75.8411 44.2152 75.748 44.1898 75.6465 44.1729C75.5492 44.1559 75.4772 44.1475 75.4307 44.1475V43.7412H77.811V44.1475ZM84 49.8857C83.8011 49.9577 83.6255 50.0148 83.4731 50.0571C83.325 50.1037 83.1558 50.127 82.9653 50.127C82.6353 50.127 82.3708 50.0508 82.1719 49.8984C81.9772 49.7419 81.8524 49.5155 81.7974 49.2192H81.7593C81.4842 49.5239 81.188 49.7567 80.8706 49.9175C80.5575 50.0783 80.1787 50.1587 79.7344 50.1587C79.2646 50.1587 78.8774 50.0148 78.5728 49.7271C78.2723 49.4393 78.1221 49.0627 78.1221 48.5972C78.1221 48.356 78.1559 48.1401 78.2236 47.9497C78.2913 47.7593 78.3929 47.5879 78.5283 47.4355C78.6341 47.3086 78.7738 47.1965 78.9473 47.0991C79.1208 46.9976 79.2837 46.9172 79.436 46.8579C79.6265 46.786 80.0116 46.6527 80.5913 46.458C81.1753 46.2633 81.5688 46.111 81.772 46.001V45.3726C81.772 45.3175 81.7593 45.2118 81.7339 45.0552C81.7127 44.8986 81.6641 44.7505 81.5879 44.6108C81.5033 44.4543 81.3826 44.3188 81.2261 44.2046C81.0737 44.0861 80.8558 44.0269 80.5723 44.0269C80.3776 44.0269 80.1956 44.0607 80.0264 44.1284C79.8613 44.1919 79.745 44.2596 79.6772 44.3315C79.6772 44.4162 79.6963 44.541 79.7344 44.7061C79.7767 44.8711 79.7979 45.0234 79.7979 45.1631C79.7979 45.3112 79.7301 45.4466 79.5947 45.5693C79.4635 45.6921 79.2795 45.7534 79.0425 45.7534C78.8309 45.7534 78.6743 45.6794 78.5728 45.5312C78.4754 45.3789 78.4268 45.2096 78.4268 45.0234C78.4268 44.8288 78.4945 44.6426 78.6299 44.4648C78.7695 44.2871 78.9494 44.1284 79.1694 43.9888C79.3599 43.8703 79.5905 43.7708 79.8613 43.6904C80.1322 43.6058 80.3966 43.5635 80.6548 43.5635C81.0103 43.5635 81.3192 43.5889 81.5815 43.6396C81.8481 43.6862 82.0894 43.7899 82.3052 43.9507C82.521 44.1073 82.6839 44.321 82.7939 44.5918C82.9082 44.8584 82.9653 45.2033 82.9653 45.6265C82.9653 46.2316 82.959 46.769 82.9463 47.2388C82.9336 47.7043 82.9272 48.2142 82.9272 48.7686C82.9272 48.9336 82.9548 49.0648 83.0098 49.1621C83.069 49.2594 83.1579 49.342 83.2764 49.4097C83.3398 49.4478 83.4393 49.4689 83.5747 49.4731C83.7144 49.4774 83.8561 49.4795 84 49.4795V49.8857ZM81.7847 46.5342C81.425 46.64 81.1097 46.7437 80.8389 46.8452C80.568 46.9468 80.3162 47.0737 80.0835 47.2261C79.8719 47.37 79.7048 47.5413 79.582 47.7402C79.4593 47.9349 79.3979 48.1676 79.3979 48.4385C79.3979 48.7897 79.4889 49.0479 79.6709 49.2129C79.8571 49.3779 80.092 49.4604 80.3755 49.4604C80.6759 49.4604 80.9404 49.3885 81.1689 49.2446C81.3975 49.0965 81.59 48.923 81.7466 48.7241L81.7847 46.5342ZM89.4146 44.5474C89.4146 44.7632 89.3617 44.9557 89.2559 45.125C89.1501 45.29 88.9871 45.3726 88.7671 45.3726C88.5301 45.3726 88.3481 45.3112 88.2212 45.1885C88.0985 45.0658 88.0371 44.9303 88.0371 44.7822C88.0371 44.6891 88.0435 44.6045 88.0562 44.5283C88.0731 44.4521 88.0879 44.376 88.1006 44.2998C87.9017 44.2998 87.6689 44.3802 87.4023 44.541C87.1357 44.7018 86.9093 44.9303 86.7231 45.2266V48.8701C86.7231 49.0182 86.7507 49.1388 86.8057 49.2319C86.8649 49.325 86.9559 49.3949 87.0786 49.4414C87.1844 49.4837 87.3198 49.5155 87.4849 49.5366C87.6541 49.5578 87.8001 49.5726 87.9229 49.5811V50H84.6221V49.5811C84.7194 49.5726 84.8188 49.5641 84.9204 49.5557C85.0262 49.5472 85.1172 49.5303 85.1934 49.5049C85.3118 49.4668 85.3986 49.4012 85.4536 49.3081C85.5129 49.2108 85.5425 49.0859 85.5425 48.9336V45.0679C85.5425 44.9367 85.5107 44.8076 85.4473 44.6807C85.388 44.5537 85.3034 44.4521 85.1934 44.376C85.113 44.3252 85.0177 44.2892 84.9077 44.2681C84.7977 44.2427 84.6792 44.2257 84.5522 44.2173V43.8047L86.6343 43.665L86.7231 43.7539V44.6362H86.7549C87.0173 44.2935 87.3092 44.0332 87.6309 43.8555C87.9525 43.6777 88.2466 43.5889 88.5132 43.5889C88.7798 43.5889 88.9956 43.6756 89.1606 43.8491C89.3299 44.0226 89.4146 44.2554 89.4146 44.5474ZM95.5146 48.5273C95.2523 49.0267 94.901 49.4245 94.4609 49.7207C94.0208 50.0169 93.5151 50.165 92.9438 50.165C92.4403 50.165 91.998 50.0762 91.6172 49.8984C91.2406 49.7207 90.9295 49.4795 90.6841 49.1748C90.4386 48.8701 90.2546 48.5146 90.1318 48.1084C90.0133 47.7021 89.9541 47.2726 89.9541 46.8198C89.9541 46.4136 90.0176 46.0158 90.1445 45.6265C90.2757 45.2329 90.4661 44.8796 90.7158 44.5664C90.957 44.266 91.2554 44.0247 91.6108 43.8428C91.9705 43.6566 92.3726 43.5635 92.8169 43.5635C93.2739 43.5635 93.6654 43.6354 93.9912 43.7793C94.3171 43.9232 94.5815 44.12 94.7847 44.3696C94.9793 44.6066 95.1232 44.8859 95.2163 45.2075C95.3136 45.5291 95.3623 45.8783 95.3623 46.2549V46.6738H91.2173C91.2173 47.0843 91.2554 47.4567 91.3315 47.791C91.4119 48.1253 91.5368 48.4194 91.7061 48.6733C91.8711 48.9188 92.0869 49.1134 92.3535 49.2573C92.6201 49.397 92.9375 49.4668 93.3057 49.4668C93.6823 49.4668 94.006 49.38 94.2769 49.2065C94.5519 49.0288 94.8164 48.7114 95.0703 48.2544L95.5146 48.5273ZM94.1118 46.1406C94.1118 45.9036 94.0907 45.6497 94.0483 45.3789C94.0103 45.1081 93.9468 44.8817 93.8579 44.6997C93.7606 44.505 93.6273 44.3464 93.458 44.2236C93.2887 44.1009 93.0708 44.0396 92.8042 44.0396C92.3599 44.0396 91.9896 44.2257 91.6934 44.5981C91.4014 44.9663 91.2427 45.4805 91.2173 46.1406H94.1118ZM108.146 44.7441C107.897 44.7653 107.645 44.8161 107.391 44.8965C107.137 44.9727 106.943 45.0954 106.807 45.2646C106.718 45.3662 106.627 45.5164 106.534 45.7153C106.445 45.9142 106.337 46.1491 106.21 46.4199C106.083 46.6908 105.954 46.9574 105.823 47.2197C105.692 47.4821 105.523 47.7445 105.315 48.0068C105.485 48.21 105.692 48.4321 105.938 48.6733C106.183 48.9103 106.392 49.0817 106.566 49.1875C106.735 49.2848 106.974 49.3674 107.283 49.4351C107.596 49.5028 107.852 49.5409 108.051 49.5493V50H105.436L104.49 48.9209C104.351 49.0732 104.19 49.2319 104.008 49.397C103.83 49.5578 103.642 49.6974 103.443 49.8159C103.223 49.9429 103.001 50.0423 102.776 50.1143C102.556 50.1862 102.296 50.2222 101.996 50.2222C101.682 50.2222 101.371 50.1756 101.062 50.0825C100.754 49.9937 100.472 49.8498 100.218 49.6509C99.9728 49.4562 99.7739 49.2065 99.6216 48.9019C99.4692 48.5972 99.3931 48.2332 99.3931 47.8101C99.3931 47.2853 99.5306 46.8114 99.8057 46.3882C100.085 45.9608 100.603 45.508 101.361 45.0298C101.018 44.577 100.751 44.1855 100.561 43.8555C100.371 43.5254 100.275 43.1551 100.275 42.7446C100.275 42.4526 100.333 42.186 100.447 41.9448C100.565 41.6994 100.73 41.4857 100.942 41.3037C101.137 41.1387 101.374 41.0096 101.653 40.9165C101.932 40.8234 102.216 40.7769 102.503 40.7769C102.842 40.7769 103.138 40.8319 103.392 40.9419C103.65 41.0477 103.86 41.1873 104.021 41.3608C104.169 41.5216 104.281 41.7078 104.357 41.9194C104.437 42.131 104.478 42.3426 104.478 42.5542C104.478 43.062 104.319 43.5 104.001 43.8682C103.688 44.2321 103.255 44.5601 102.7 44.8521C103.098 45.3895 103.487 45.8804 103.868 46.3247C104.249 46.7648 104.615 47.1986 104.966 47.626C105.25 47.1732 105.47 46.7479 105.626 46.3501C105.783 45.9481 105.861 45.5947 105.861 45.29C105.861 45.1546 105.762 45.0488 105.563 44.9727C105.368 44.8923 105.097 44.8161 104.75 44.7441V44.2935H108.146V44.7441ZM103.659 42.6812C103.659 42.2495 103.563 41.9194 103.373 41.6909C103.183 41.4582 102.912 41.3418 102.561 41.3418C102.362 41.3418 102.197 41.382 102.065 41.4624C101.934 41.5428 101.822 41.6444 101.729 41.7671C101.644 41.8856 101.583 42.0125 101.545 42.1479C101.507 42.2834 101.488 42.404 101.488 42.5098C101.488 42.8018 101.564 43.098 101.716 43.3984C101.869 43.6947 102.106 44.0544 102.427 44.4775C102.863 44.2321 103.176 43.9676 103.367 43.6841C103.561 43.3963 103.659 43.062 103.659 42.6812ZM104.154 48.5527C103.76 48.0534 103.316 47.5075 102.821 46.915C102.33 46.3184 101.936 45.8148 101.64 45.4043C101.297 45.6413 101.054 45.9206 100.91 46.2422C100.771 46.5596 100.701 46.9235 100.701 47.334C100.701 47.9095 100.864 48.3877 101.189 48.7686C101.52 49.1452 101.96 49.3335 102.51 49.3335C102.819 49.3335 103.121 49.2679 103.417 49.1367C103.718 49.0013 103.963 48.8066 104.154 48.5527ZM115.884 50.2095C115.347 50.2095 114.831 50.1037 114.335 49.8921C113.845 49.6805 113.409 49.3758 113.028 48.978C112.651 48.5802 112.351 48.0957 112.126 47.5244C111.902 46.9489 111.79 46.3014 111.79 45.582C111.79 44.8626 111.9 44.2109 112.12 43.627C112.34 43.0387 112.645 42.533 113.034 42.1099C113.419 41.6909 113.874 41.3672 114.399 41.1387C114.924 40.9102 115.484 40.7959 116.081 40.7959C116.525 40.7959 116.927 40.8509 117.287 40.9609C117.647 41.071 117.99 41.2254 118.315 41.4243L118.576 40.9927H119.083L119.141 44.2046H118.62C118.552 43.8914 118.451 43.5529 118.315 43.189C118.18 42.8208 118.021 42.5098 117.839 42.2559C117.636 41.9681 117.395 41.7438 117.116 41.583C116.836 41.418 116.517 41.3354 116.157 41.3354C115.747 41.3354 115.364 41.4264 115.008 41.6084C114.657 41.7904 114.352 42.0591 114.094 42.4146C113.849 42.7573 113.656 43.1932 113.517 43.7222C113.377 44.2511 113.307 44.8415 113.307 45.4932C113.307 46.0687 113.379 46.5977 113.523 47.0801C113.671 47.5583 113.881 47.9793 114.151 48.3433C114.422 48.703 114.742 48.9844 115.11 49.1875C115.482 49.3906 115.897 49.4922 116.354 49.4922C116.697 49.4922 117.012 49.4393 117.3 49.3335C117.588 49.2235 117.837 49.0796 118.049 48.9019C118.26 48.7157 118.447 48.5041 118.607 48.2671C118.768 48.0301 118.899 47.772 119.001 47.4927L119.477 47.7212C119.113 48.6141 118.631 49.2531 118.03 49.6382C117.429 50.019 116.714 50.2095 115.884 50.2095ZM126.206 46.8071C126.206 47.2472 126.136 47.681 125.996 48.1084C125.856 48.5316 125.658 48.8913 125.399 49.1875C125.107 49.526 124.769 49.7778 124.384 49.9429C123.999 50.1079 123.567 50.1904 123.089 50.1904C122.691 50.1904 122.312 50.1164 121.953 49.9683C121.593 49.8159 121.273 49.5959 120.994 49.3081C120.719 49.0246 120.499 48.6797 120.334 48.2734C120.173 47.863 120.093 47.4038 120.093 46.896C120.093 45.9185 120.376 45.1187 120.943 44.4966C121.515 43.8745 122.262 43.5635 123.184 43.5635C124.06 43.5635 124.782 43.8597 125.349 44.4521C125.92 45.0404 126.206 45.8254 126.206 46.8071ZM124.892 46.8198C124.892 46.5024 124.86 46.1681 124.796 45.8169C124.733 45.4614 124.638 45.161 124.511 44.9155C124.375 44.6532 124.198 44.4437 123.978 44.2871C123.757 44.1263 123.489 44.0459 123.171 44.0459C122.846 44.0459 122.566 44.1263 122.333 44.2871C122.105 44.4479 121.919 44.668 121.775 44.9473C121.639 45.2054 121.544 45.4995 121.489 45.8296C121.434 46.1597 121.407 46.4792 121.407 46.7881C121.407 47.1943 121.438 47.571 121.502 47.918C121.57 48.2607 121.675 48.5675 121.819 48.8384C121.963 49.1092 122.143 49.3229 122.359 49.4795C122.579 49.6318 122.85 49.708 123.171 49.708C123.7 49.708 124.119 49.452 124.428 48.9399C124.737 48.4279 124.892 47.7212 124.892 46.8198ZM134.026 50H130.96V49.5811C131.057 49.5726 131.163 49.5641 131.277 49.5557C131.396 49.5472 131.493 49.5303 131.569 49.5049C131.688 49.4668 131.775 49.4012 131.83 49.3081C131.889 49.2108 131.918 49.0859 131.918 48.9336V45.7153C131.918 45.271 131.813 44.9282 131.601 44.687C131.394 44.4458 131.14 44.3252 130.839 44.3252C130.615 44.3252 130.41 44.3612 130.224 44.4331C130.037 44.5008 129.872 44.5854 129.729 44.687C129.589 44.7843 129.477 44.8901 129.392 45.0044C129.312 45.1144 129.252 45.2033 129.214 45.271V48.8701C129.214 49.014 129.244 49.1325 129.303 49.2256C129.362 49.3187 129.451 49.3906 129.57 49.4414C129.659 49.4837 129.754 49.5155 129.855 49.5366C129.961 49.5578 130.069 49.5726 130.179 49.5811V50H127.113V49.5811C127.211 49.5726 127.31 49.5641 127.412 49.5557C127.517 49.5472 127.608 49.5303 127.685 49.5049C127.803 49.4668 127.89 49.4012 127.945 49.3081C128.004 49.2108 128.034 49.0859 128.034 48.9336V45.0679C128.034 44.924 128.002 44.7928 127.938 44.6743C127.879 44.5516 127.795 44.4521 127.685 44.376C127.604 44.3252 127.509 44.2892 127.399 44.2681C127.289 44.2427 127.17 44.2257 127.043 44.2173V43.8047L129.125 43.665L129.214 43.7539V44.6362H129.246C129.348 44.5347 129.475 44.4141 129.627 44.2744C129.779 44.1305 129.923 44.0142 130.059 43.9253C130.215 43.8237 130.401 43.7391 130.617 43.6714C130.833 43.6037 131.076 43.5698 131.347 43.5698C131.948 43.5698 132.392 43.7581 132.68 44.1348C132.972 44.5072 133.118 45.0044 133.118 45.6265V48.8828C133.118 49.0309 133.144 49.1515 133.194 49.2446C133.245 49.3335 133.332 49.4033 133.455 49.4541C133.556 49.4964 133.643 49.526 133.715 49.543C133.791 49.5599 133.895 49.5726 134.026 49.5811V50ZM138.926 46.9341C139.1 47.0864 139.233 47.262 139.326 47.4609C139.419 47.6598 139.466 47.9032 139.466 48.1909C139.466 48.7707 139.248 49.2446 138.812 49.6128C138.38 49.981 137.82 50.165 137.13 50.165C136.766 50.165 136.43 50.0994 136.121 49.9683C135.816 49.8371 135.598 49.7165 135.467 49.6064L135.34 50.019H134.864L134.8 47.8418H135.238C135.272 48.0068 135.344 48.1994 135.454 48.4194C135.564 48.6395 135.697 48.8384 135.854 49.0161C136.019 49.2023 136.216 49.3589 136.444 49.4858C136.677 49.6128 136.937 49.6763 137.225 49.6763C137.631 49.6763 137.944 49.5853 138.165 49.4033C138.385 49.2171 138.495 48.9526 138.495 48.6099C138.495 48.4321 138.459 48.2798 138.387 48.1528C138.319 48.0216 138.217 47.9074 138.082 47.8101C137.942 47.7127 137.771 47.626 137.568 47.5498C137.365 47.4694 137.138 47.3911 136.889 47.3149C136.69 47.2557 136.468 47.1753 136.222 47.0737C135.981 46.9679 135.774 46.8452 135.6 46.7056C135.414 46.5575 135.262 46.3755 135.143 46.1597C135.025 45.9438 134.965 45.6899 134.965 45.3979C134.965 44.8859 135.156 44.4521 135.537 44.0967C135.917 43.7412 136.427 43.5635 137.066 43.5635C137.312 43.5635 137.562 43.5952 137.815 43.6587C138.074 43.7222 138.283 43.7983 138.444 43.8872L138.59 43.5571H139.047L139.142 45.5693H138.704C138.615 45.1208 138.423 44.7568 138.126 44.4775C137.834 44.194 137.477 44.0522 137.054 44.0522C136.707 44.0522 136.434 44.139 136.235 44.3125C136.036 44.486 135.937 44.6955 135.937 44.9409C135.937 45.1313 135.968 45.29 136.032 45.417C136.099 45.5439 136.199 45.6519 136.33 45.7407C136.457 45.8254 136.616 45.9058 136.806 45.9819C137.001 46.0539 137.24 46.1364 137.523 46.2295C137.803 46.3184 138.065 46.422 138.311 46.5405C138.56 46.659 138.765 46.7902 138.926 46.9341ZM147.127 49.8857L145.09 50.0254L144.995 49.9365V49.1431H144.957C144.855 49.2489 144.741 49.3631 144.614 49.4858C144.487 49.6043 144.341 49.7122 144.176 49.8096C143.985 49.9238 143.801 50.0106 143.624 50.0698C143.446 50.1291 143.194 50.1587 142.868 50.1587C142.314 50.1587 141.891 49.9788 141.599 49.6191C141.311 49.2552 141.167 48.7284 141.167 48.0386V45.0425C141.167 44.8901 141.137 44.7632 141.078 44.6616C141.023 44.5558 140.941 44.4648 140.831 44.3887C140.754 44.3379 140.659 44.3019 140.545 44.2808C140.431 44.2554 140.31 44.2384 140.183 44.23V43.8174L142.271 43.665L142.367 43.7539V48.1021C142.367 48.5549 142.468 48.8955 142.671 49.124C142.875 49.3525 143.118 49.4668 143.401 49.4668C143.634 49.4668 143.841 49.4308 144.023 49.3589C144.205 49.2869 144.358 49.2023 144.48 49.105C144.595 49.0161 144.694 48.923 144.779 48.8257C144.868 48.7241 144.935 48.631 144.982 48.5464V44.998C144.982 44.8584 144.952 44.7357 144.893 44.6299C144.834 44.5199 144.751 44.4268 144.646 44.3506C144.569 44.2998 144.455 44.2702 144.303 44.2617C144.155 44.249 143.987 44.2384 143.801 44.23V43.8174L146.074 43.665L146.169 43.7539V48.7241C146.169 48.868 146.199 48.9907 146.258 49.0923C146.317 49.1938 146.4 49.2806 146.505 49.3525C146.582 49.3991 146.673 49.4308 146.778 49.4478C146.884 49.4604 147 49.4689 147.127 49.4731V49.8857ZM150.828 50H147.775V49.5811C147.872 49.5726 147.976 49.5641 148.086 49.5557C148.196 49.543 148.287 49.526 148.359 49.5049C148.477 49.4668 148.566 49.4012 148.625 49.3081C148.685 49.2108 148.714 49.0859 148.714 48.9336V41.6846C148.714 41.5322 148.681 41.3905 148.613 41.2593C148.549 41.1239 148.465 41.0181 148.359 40.9419C148.283 40.8911 148.143 40.8446 147.94 40.8022C147.737 40.7599 147.574 40.7345 147.451 40.7261V40.3198L149.806 40.1738L149.895 40.269V48.8574C149.895 49.0055 149.923 49.1283 149.978 49.2256C150.033 49.3187 150.121 49.3906 150.244 49.4414C150.337 49.4837 150.428 49.5155 150.517 49.5366C150.61 49.5578 150.714 49.5726 150.828 49.5811V50ZM155.481 49.7271C155.206 49.8413 154.946 49.9365 154.7 50.0127C154.455 50.0931 154.154 50.1333 153.799 50.1333C153.274 50.1333 152.904 50.0021 152.688 49.7397C152.476 49.4731 152.371 49.0986 152.371 48.6162V44.376H151.241V43.7666H152.396V41.8179H153.551V43.7666H155.348V44.376H153.564V47.8735C153.564 48.1359 153.572 48.356 153.589 48.5337C153.611 48.7072 153.657 48.8595 153.729 48.9907C153.797 49.1134 153.898 49.2065 154.034 49.27C154.169 49.3335 154.351 49.3652 154.58 49.3652C154.685 49.3652 154.84 49.3568 155.043 49.3398C155.25 49.3187 155.396 49.2933 155.481 49.2637V49.7271ZM162.209 46.8071C162.209 47.2472 162.14 47.681 162 48.1084C161.86 48.5316 161.661 48.8913 161.403 49.1875C161.111 49.526 160.773 49.7778 160.388 49.9429C160.003 50.1079 159.571 50.1904 159.093 50.1904C158.695 50.1904 158.316 50.1164 157.957 49.9683C157.597 49.8159 157.277 49.5959 156.998 49.3081C156.723 49.0246 156.503 48.6797 156.338 48.2734C156.177 47.863 156.097 47.4038 156.097 46.896C156.097 45.9185 156.38 45.1187 156.947 44.4966C157.519 43.8745 158.265 43.5635 159.188 43.5635C160.064 43.5635 160.785 43.8597 161.353 44.4521C161.924 45.0404 162.209 45.8254 162.209 46.8071ZM160.896 46.8198C160.896 46.5024 160.864 46.1681 160.8 45.8169C160.737 45.4614 160.642 45.161 160.515 44.9155C160.379 44.6532 160.201 44.4437 159.981 44.2871C159.761 44.1263 159.493 44.0459 159.175 44.0459C158.849 44.0459 158.57 44.1263 158.337 44.2871C158.109 44.4479 157.923 44.668 157.779 44.9473C157.643 45.2054 157.548 45.4995 157.493 45.8296C157.438 46.1597 157.411 46.4792 157.411 46.7881C157.411 47.1943 157.442 47.571 157.506 47.918C157.574 48.2607 157.679 48.5675 157.823 48.8384C157.967 49.1092 158.147 49.3229 158.363 49.4795C158.583 49.6318 158.854 49.708 159.175 49.708C159.704 49.708 160.123 49.452 160.432 48.9399C160.741 48.4279 160.896 47.7212 160.896 46.8198ZM167.91 44.5474C167.91 44.7632 167.857 44.9557 167.751 45.125C167.645 45.29 167.482 45.3726 167.262 45.3726C167.025 45.3726 166.843 45.3112 166.716 45.1885C166.594 45.0658 166.532 44.9303 166.532 44.7822C166.532 44.6891 166.539 44.6045 166.551 44.5283C166.568 44.4521 166.583 44.376 166.596 44.2998C166.397 44.2998 166.164 44.3802 165.897 44.541C165.631 44.7018 165.404 44.9303 165.218 45.2266V48.8701C165.218 49.0182 165.246 49.1388 165.301 49.2319C165.36 49.325 165.451 49.3949 165.574 49.4414C165.68 49.4837 165.815 49.5155 165.98 49.5366C166.149 49.5578 166.295 49.5726 166.418 49.5811V50H163.117V49.5811C163.215 49.5726 163.314 49.5641 163.416 49.5557C163.521 49.5472 163.612 49.5303 163.688 49.5049C163.807 49.4668 163.894 49.4012 163.949 49.3081C164.008 49.2108 164.038 49.0859 164.038 48.9336V45.0679C164.038 44.9367 164.006 44.8076 163.942 44.6807C163.883 44.5537 163.799 44.4521 163.688 44.376C163.608 44.3252 163.513 44.2892 163.403 44.2681C163.293 44.2427 163.174 44.2257 163.047 44.2173V43.8047L165.129 43.665L165.218 43.7539V44.6362H165.25C165.512 44.2935 165.804 44.0332 166.126 43.8555C166.448 43.6777 166.742 43.5889 167.008 43.5889C167.275 43.5889 167.491 43.6756 167.656 43.8491C167.825 44.0226 167.91 44.2554 167.91 44.5474ZM171.49 50H168.462V49.5811C168.559 49.5726 168.659 49.5641 168.76 49.5557C168.866 49.5472 168.957 49.5303 169.033 49.5049C169.152 49.4668 169.238 49.4012 169.293 49.3081C169.353 49.2108 169.382 49.0859 169.382 48.9336V45.0679C169.382 44.9325 169.351 44.8097 169.287 44.6997C169.228 44.5854 169.143 44.4902 169.033 44.4141C168.953 44.3633 168.836 44.321 168.684 44.2871C168.532 44.249 168.392 44.2257 168.265 44.2173V43.8047L170.474 43.665L170.563 43.7539V48.8574C170.563 49.0055 170.59 49.1283 170.646 49.2256C170.705 49.3229 170.796 49.3949 170.918 49.4414C171.012 49.4795 171.103 49.5112 171.191 49.5366C171.28 49.5578 171.38 49.5726 171.49 49.5811V50ZM170.69 41.1958C170.69 41.437 170.61 41.6486 170.449 41.8306C170.292 42.0083 170.097 42.0972 169.865 42.0972C169.649 42.0972 169.461 42.0125 169.3 41.8433C169.143 41.6698 169.065 41.473 169.065 41.2529C169.065 41.0202 169.143 40.8171 169.3 40.6436C169.461 40.4701 169.649 40.3833 169.865 40.3833C170.106 40.3833 170.303 40.4658 170.455 40.6309C170.612 40.7917 170.69 40.98 170.69 41.1958ZM178.187 49.8857C177.988 49.9577 177.812 50.0148 177.66 50.0571C177.512 50.1037 177.342 50.127 177.152 50.127C176.822 50.127 176.557 50.0508 176.358 49.8984C176.164 49.7419 176.039 49.5155 175.984 49.2192H175.946C175.671 49.5239 175.375 49.7567 175.057 49.9175C174.744 50.0783 174.365 50.1587 173.921 50.1587C173.451 50.1587 173.064 50.0148 172.759 49.7271C172.459 49.4393 172.309 49.0627 172.309 48.5972C172.309 48.356 172.342 48.1401 172.41 47.9497C172.478 47.7593 172.579 47.5879 172.715 47.4355C172.821 47.3086 172.96 47.1965 173.134 47.0991C173.307 46.9976 173.47 46.9172 173.623 46.8579C173.813 46.786 174.198 46.6527 174.778 46.458C175.362 46.2633 175.755 46.111 175.958 46.001V45.3726C175.958 45.3175 175.946 45.2118 175.92 45.0552C175.899 44.8986 175.851 44.7505 175.774 44.6108C175.69 44.4543 175.569 44.3188 175.413 44.2046C175.26 44.0861 175.042 44.0269 174.759 44.0269C174.564 44.0269 174.382 44.0607 174.213 44.1284C174.048 44.1919 173.931 44.2596 173.864 44.3315C173.864 44.4162 173.883 44.541 173.921 44.7061C173.963 44.8711 173.984 45.0234 173.984 45.1631C173.984 45.3112 173.917 45.4466 173.781 45.5693C173.65 45.6921 173.466 45.7534 173.229 45.7534C173.017 45.7534 172.861 45.6794 172.759 45.5312C172.662 45.3789 172.613 45.2096 172.613 45.0234C172.613 44.8288 172.681 44.6426 172.816 44.4648C172.956 44.2871 173.136 44.1284 173.356 43.9888C173.546 43.8703 173.777 43.7708 174.048 43.6904C174.319 43.6058 174.583 43.5635 174.841 43.5635C175.197 43.5635 175.506 43.5889 175.768 43.6396C176.035 43.6862 176.276 43.7899 176.492 43.9507C176.708 44.1073 176.87 44.321 176.98 44.5918C177.095 44.8584 177.152 45.2033 177.152 45.6265C177.152 46.2316 177.146 46.769 177.133 47.2388C177.12 47.7043 177.114 48.2142 177.114 48.7686C177.114 48.9336 177.141 49.0648 177.196 49.1621C177.256 49.2594 177.344 49.342 177.463 49.4097C177.526 49.4478 177.626 49.4689 177.761 49.4731C177.901 49.4774 178.043 49.4795 178.187 49.4795V49.8857ZM175.971 46.5342C175.611 46.64 175.296 46.7437 175.025 46.8452C174.755 46.9468 174.503 47.0737 174.27 47.2261C174.058 47.37 173.891 47.5413 173.769 47.7402C173.646 47.9349 173.584 48.1676 173.584 48.4385C173.584 48.7897 173.675 49.0479 173.857 49.2129C174.044 49.3779 174.278 49.4604 174.562 49.4604C174.862 49.4604 175.127 49.3885 175.355 49.2446C175.584 49.0965 175.777 48.923 175.933 48.7241L175.971 46.5342Z" fill="#4B5563"/>
</g>
<defs>
<clipPath id="clip0_1207_875">
<rect width="182" height="52" fill="white"/>
</clipPath>
</defs>
</svg>
