<svg width="91" height="26" viewBox="0 0 91 26" fill="none" xmlns="http://www.w3.org/2000/svg">
<g clip-path="url(#clip0_1017_761)">
<path d="M51.4551 9.3913C52.3732 9.38897 53.2914 9.38721 54.2095 9.38614C54.6359 9.38563 55.0622 9.38493 55.4886 9.38378C55.8604 9.38279 56.2322 9.38215 56.604 9.38193C56.8007 9.3818 56.9974 9.3815 57.1941 9.38077C57.3797 9.38009 57.5652 9.37988 57.7508 9.38003C57.8505 9.37999 57.9501 9.37946 58.0498 9.37891C59.0343 9.38113 60.0279 9.60567 60.764 10.297C61.2798 10.8466 61.4903 11.5271 61.4854 12.2721C61.4665 12.8042 61.3215 13.3332 61.0161 13.7734C60.9849 13.8191 60.9849 13.8191 60.9531 13.8656C60.5149 14.4373 59.702 14.7586 59.0102 14.8577C58.8649 14.8698 58.7218 14.8711 58.576 14.869C58.7033 15.1456 58.855 15.3974 59.0214 15.6524C59.2515 16.0057 59.4739 16.3639 59.6968 16.7219C59.875 17.0077 60.0546 17.2926 60.2358 17.5765C60.3144 17.7002 60.3922 17.8243 60.4697 17.9486C60.9524 18.8535 60.9524 18.8535 61.7568 19.3849C61.7918 19.3901 61.8267 19.3952 61.8627 19.4005C61.8627 19.4827 61.8627 19.5648 61.8627 19.6495C61.0246 19.6495 60.1865 19.6495 59.323 19.6495C59.323 19.5673 59.323 19.4852 59.323 19.4005C59.4216 19.3512 59.5202 19.3019 59.6218 19.2511C59.5264 18.6214 58.9569 17.9815 58.6195 17.4546C58.4697 17.2207 58.3206 16.9863 58.1714 16.7519C58.1429 16.707 58.1143 16.6621 58.0848 16.6159C57.9419 16.3914 57.7994 16.1666 57.6577 15.9414C57.6305 15.8981 57.6032 15.8548 57.5752 15.8102C57.5239 15.7287 57.4727 15.6471 57.4216 15.5655C57.3988 15.5291 57.3759 15.4927 57.3523 15.4552C57.3226 15.4078 57.3226 15.4078 57.2923 15.3594C57.2722 15.329 57.2522 15.2987 57.2315 15.2673C57.213 15.2331 57.1946 15.1989 57.1755 15.1637C57.0619 15.0475 56.9855 15.0437 56.8265 15.0402C56.7922 15.0405 56.7578 15.0407 56.7223 15.041C56.6677 15.0402 56.6677 15.0402 56.6119 15.0394C56.4914 15.0379 56.371 15.0379 56.2506 15.0378C56.167 15.0371 56.0835 15.0362 56 15.0353C55.7802 15.0331 55.5604 15.0321 55.3406 15.0314C55.1163 15.0304 54.892 15.0283 54.6677 15.0263C54.2276 15.0226 53.7875 15.0201 53.3474 15.0184C53.3493 15.5261 53.3522 16.0339 53.3565 16.5417C53.3585 16.7774 53.3601 17.0132 53.3609 17.249C53.3616 17.4767 53.3633 17.7043 53.3657 17.9319C53.3664 18.0187 53.3668 18.1054 53.3669 18.1922C53.367 18.3139 53.3683 18.4356 53.37 18.5573C53.3697 18.593 53.3695 18.6287 53.3692 18.6655C53.3744 18.9154 53.4403 19.058 53.5963 19.2511C53.6876 19.3155 53.6876 19.3155 53.7831 19.3445C53.8365 19.363 53.8899 19.3814 53.9449 19.4005C53.9449 19.4827 53.9449 19.5648 53.9449 19.6495C53.1233 19.6495 52.3016 19.6495 51.4551 19.6495C51.4551 19.5673 51.4551 19.4852 51.4551 19.4005C51.4956 19.3841 51.4956 19.3841 51.537 19.3674C51.5726 19.3516 51.6082 19.3358 51.6449 19.3196C51.6802 19.3046 51.7154 19.2895 51.7517 19.2741C51.8958 19.171 51.9353 19.0656 52.0028 18.9025C52.0251 18.7256 52.0251 18.7256 52.0218 18.5337C52.0222 18.4795 52.0222 18.4795 52.0225 18.4243C52.0231 18.304 52.0226 18.1838 52.0222 18.0635C52.0224 17.977 52.0226 17.8905 52.023 17.804C52.0236 17.5695 52.0234 17.3351 52.0229 17.1006C52.0225 16.8552 52.0229 16.6097 52.0231 16.3643C52.0234 15.9521 52.023 15.54 52.0223 15.1279C52.0215 14.6514 52.0218 14.175 52.0226 13.6985C52.0233 13.2893 52.0234 12.8802 52.023 12.471C52.0227 12.2267 52.0227 11.9823 52.0232 11.738C52.0236 11.5083 52.0233 11.2787 52.0225 11.049C52.0223 10.9647 52.0223 10.8804 52.0227 10.7961C52.0231 10.6811 52.0226 10.566 52.0218 10.451C52.0218 10.3866 52.0217 10.3222 52.0216 10.2559C52.0015 10.0762 51.9614 9.98282 51.8535 9.83947C51.7542 9.76903 51.7542 9.76903 51.6449 9.72432C51.6093 9.70807 51.5737 9.69183 51.537 9.6751C51.5099 9.66361 51.4829 9.65212 51.4551 9.64028C51.4551 9.55812 51.4551 9.47595 51.4551 9.3913Z" fill="white"/>
<path d="M67.2396 9.39258C68.2256 9.39258 69.2115 9.39258 70.2274 9.39258C70.2274 9.47474 70.2274 9.55691 70.2274 9.64156C70.1801 9.66416 70.1329 9.68675 70.0842 9.71003C69.9285 9.78111 69.9285 9.78111 69.829 9.89055C69.8427 10.1968 69.9267 10.4404 70.05 10.7184C70.0674 10.7588 70.0849 10.7991 70.1029 10.8407C70.1602 10.9725 70.2185 11.1038 70.2772 11.2351C70.3078 11.3036 70.3078 11.3036 70.3391 11.3736C70.4826 11.6935 70.6283 12.0123 70.7752 12.3306C70.7913 12.3655 70.8074 12.4004 70.824 12.4364C70.9589 12.7281 71.0957 13.019 71.2342 13.309C71.4307 13.7207 71.6212 14.1327 71.7985 14.553C71.963 14.9357 72.1445 15.3108 72.3235 15.6868C72.3604 15.7643 72.3972 15.8417 72.434 15.9191C72.4528 15.9586 72.4716 15.9982 72.491 16.0389C72.6341 16.3409 72.7727 16.6447 72.9102 16.9493C72.995 17.1361 73.0801 17.3228 73.1654 17.5095C73.1882 17.5594 73.2109 17.6094 73.2344 17.6608C73.629 18.6417 73.629 18.6417 74.3605 19.352C74.4946 19.3872 74.4946 19.3872 74.6095 19.4018C74.6095 19.4839 74.6095 19.5661 74.6095 19.6508C73.7221 19.6508 72.8348 19.6508 71.9205 19.6508C71.9205 19.5686 71.9205 19.4864 71.9205 19.4018C72.093 19.3032 72.093 19.3032 72.2691 19.2026C72.2691 18.3457 71.6832 17.5898 71.3229 16.8123C69.5482 16.8123 67.7734 16.8123 65.9449 16.8123C65.4184 17.7657 65.4184 17.7657 65.0516 19.0283C65.1015 19.1614 65.1326 19.22 65.2477 19.3022C65.3771 19.3615 65.3771 19.3615 65.4967 19.4018C65.4967 19.4839 65.4967 19.5661 65.4967 19.6508C64.6586 19.6508 63.8205 19.6508 62.957 19.6508C62.957 19.5686 62.957 19.4864 62.957 19.4018C62.9907 19.3867 63.0243 19.3716 63.059 19.3561C63.1256 19.3248 63.1256 19.3248 63.1936 19.2928C63.2375 19.2726 63.2814 19.2524 63.3266 19.2316C63.5959 19.0664 63.724 18.793 63.8658 18.521C63.8949 18.4655 63.8949 18.4655 63.9247 18.4089C64.1168 18.0379 64.2858 17.6578 64.4515 17.2744C64.5343 17.0836 64.6186 16.8935 64.703 16.7034C64.7195 16.6664 64.7359 16.6294 64.7528 16.5913C64.9409 16.1689 65.1307 15.7465 65.3409 15.3346C65.4751 15.0674 65.5922 14.7927 65.7114 14.5186C65.9451 13.9846 66.1862 13.4555 66.4378 12.9297C66.6933 12.3945 66.9411 11.8559 67.1867 11.316C67.2117 11.261 67.2117 11.261 67.2372 11.205C67.2852 11.0995 67.3331 10.994 67.381 10.8884C67.4026 10.8409 67.4026 10.8409 67.4246 10.7925C67.6487 10.3348 67.6487 10.3348 67.6379 9.84075C67.5394 9.75531 67.4454 9.70368 67.3267 9.64993C67.2836 9.62114 67.2836 9.62114 67.2396 9.59177C67.2396 9.52603 67.2396 9.4603 67.2396 9.39258Z" fill="white"/>
<path d="M49.2135 8.79492C49.2956 8.79492 49.3778 8.79492 49.4624 8.79492C49.4624 9.50154 49.4624 10.2082 49.4624 10.9362C49.3803 10.9362 49.2981 10.9362 49.2135 10.9362C49.1417 10.8525 49.1417 10.8525 49.0859 10.7432C48.9987 10.5749 48.9424 10.5083 48.7653 10.4382C48.6343 10.4228 48.6343 10.4228 48.4899 10.4244C48.4339 10.4238 48.3779 10.4232 48.3202 10.4227C48.2284 10.4225 48.2284 10.4225 48.1347 10.4223C48.0701 10.4218 48.0054 10.4213 47.9389 10.4208C47.7618 10.4195 47.5848 10.4187 47.4077 10.4181C47.2226 10.4173 47.0375 10.416 46.8524 10.4147C46.502 10.4124 46.1516 10.4105 45.8012 10.4089C45.3276 10.4066 44.854 10.4036 44.3804 10.4006C43.6344 10.3959 42.8883 10.3923 42.1423 10.3884C42.1423 11.5387 42.1423 12.689 42.1423 13.8742C42.8962 13.8697 42.8962 13.8697 43.65 13.8638C43.9575 13.8611 44.2651 13.8586 44.5726 13.857C44.8206 13.8557 45.0685 13.8537 45.3165 13.8512C45.411 13.8503 45.5056 13.8497 45.6001 13.8494C45.7327 13.849 45.8652 13.8476 45.9978 13.8459C46.0368 13.846 46.0757 13.8461 46.1159 13.8462C46.3537 13.8421 46.5168 13.8046 46.7236 13.675C46.7994 13.5767 46.7994 13.5767 46.8419 13.4665C46.8577 13.4309 46.8735 13.3953 46.8897 13.3585C46.9006 13.3315 46.9116 13.3045 46.9228 13.2767C47.005 13.2767 47.0871 13.2767 47.1718 13.2767C47.1718 13.9833 47.1718 14.6899 47.1718 15.4179C47.0896 15.4179 47.0075 15.4179 46.9228 15.4179C46.9107 15.3903 46.8987 15.3627 46.8862 15.3343C46.8695 15.2982 46.8528 15.2621 46.8357 15.225C46.8195 15.1891 46.8033 15.1533 46.7866 15.1164C46.7065 14.9932 46.6632 14.9708 46.5244 14.92C46.3813 14.9095 46.2428 14.9045 46.0995 14.9041C46.0568 14.9036 46.014 14.9031 45.9699 14.9026C45.8287 14.901 45.6876 14.9002 45.5464 14.8993C45.4484 14.8984 45.3504 14.8974 45.2525 14.8964C44.9948 14.8939 44.7371 14.8919 44.4794 14.89C44.1701 14.8877 43.8608 14.8846 43.5515 14.8817C43.0818 14.8773 42.612 14.8738 42.1423 14.8702C42.1423 16.1191 42.1423 17.368 42.1423 18.6547C43.331 18.6517 43.331 18.6517 44.5198 18.6468C45.0045 18.6443 45.4892 18.6421 45.9739 18.6412C46.3269 18.6406 46.6799 18.6392 47.0329 18.6371C47.2198 18.6359 47.4066 18.6352 47.5936 18.6352C47.8022 18.6353 48.0108 18.6338 48.2195 18.6321C48.2815 18.6324 48.3434 18.6326 48.4073 18.6329C48.4642 18.6322 48.5211 18.6315 48.5797 18.6308C48.6291 18.6306 48.6784 18.6304 48.7293 18.6302C48.9026 18.5979 48.9869 18.5255 49.1139 18.4057C49.1728 18.3136 49.1728 18.3136 49.2041 18.219C49.2236 18.1656 49.2432 18.1122 49.2633 18.0572C49.3454 18.0572 49.4276 18.0572 49.5122 18.0572C49.5122 18.7802 49.5122 19.5033 49.5122 20.2482C49.4301 20.2482 49.3479 20.2482 49.2633 20.2482C49.2571 20.217 49.2509 20.1858 49.2446 20.1537C49.2343 20.113 49.224 20.0723 49.2135 20.0304C49.2042 19.9899 49.195 19.9495 49.1854 19.9078C49.0895 19.7633 48.9877 19.7567 48.8244 19.7198C48.6642 19.6914 48.5088 19.6873 48.3462 19.6866C48.2938 19.6862 48.2938 19.6862 48.2404 19.6857C48.1247 19.6849 48.0089 19.6847 47.8932 19.6846C47.8097 19.6841 47.7262 19.6836 47.6428 19.6831C47.4171 19.6817 47.1914 19.681 46.9657 19.6803C46.7295 19.6795 46.4933 19.6782 46.2571 19.6769C45.8102 19.6746 45.3633 19.6728 44.9164 19.6711C44.4075 19.6692 43.8986 19.6667 43.3896 19.6642C42.3431 19.6591 41.2965 19.6547 40.25 19.6507C40.25 19.5685 40.25 19.4863 40.25 19.4017C40.2818 19.3854 40.3135 19.3692 40.3463 19.3525C40.3874 19.3307 40.4286 19.3089 40.471 19.2865C40.5325 19.2545 40.5325 19.2545 40.5953 19.2218C40.7134 19.1577 40.7134 19.1577 40.748 19.0033C40.7528 18.8865 40.7545 18.7696 40.7546 18.6527C40.7547 18.6168 40.7549 18.5809 40.755 18.5439C40.7553 18.4233 40.7552 18.3026 40.7552 18.182C40.7554 18.0956 40.7555 18.0092 40.7557 17.9229C40.7562 17.688 40.7563 17.4531 40.7563 17.2182C40.7563 17.0222 40.7565 16.8261 40.7567 16.6301C40.7571 16.1676 40.7572 15.7052 40.7572 15.2427C40.7572 14.7655 40.7577 14.2883 40.7585 13.8112C40.7591 13.4016 40.7594 12.9921 40.7594 12.5825C40.7594 12.3379 40.7595 12.0932 40.76 11.8486C40.7605 11.6184 40.7605 11.3883 40.7601 11.1581C40.7601 11.0737 40.7602 10.9893 40.7605 10.9048C40.7609 10.7895 40.7607 10.6741 40.7603 10.5588C40.7603 10.4943 40.7603 10.4297 40.7604 10.3632C40.7455 10.1548 40.7101 9.97273 40.583 9.80331C40.4786 9.72594 40.3722 9.6844 40.25 9.64147C40.25 9.55931 40.25 9.47714 40.25 9.39249C40.2934 9.39237 40.3367 9.39225 40.3814 9.39213C41.4362 9.38918 42.491 9.38542 43.5458 9.38075C44.0559 9.37851 44.566 9.37655 45.0761 9.37523C45.5207 9.37409 45.9653 9.37243 46.4099 9.37014C46.6453 9.36895 46.8807 9.36802 47.1161 9.36771C47.3377 9.36741 47.5593 9.36641 47.781 9.36488C47.8623 9.36445 47.9436 9.36426 48.0249 9.36435C48.136 9.36443 48.2471 9.3636 48.3582 9.36254C48.4203 9.36231 48.4825 9.36209 48.5465 9.36185C48.7334 9.34065 48.8541 9.29043 49.0143 9.1933C49.0901 9.095 49.0901 9.095 49.1325 8.98477C49.1562 8.93133 49.1562 8.93133 49.1804 8.87681C49.1913 8.84979 49.2022 8.82277 49.2135 8.79492Z" fill="white"/>
<path d="M27.0039 6.55273C27.1189 6.55273 27.234 6.55273 27.3525 6.55273C27.4957 6.88264 27.4957 6.88264 27.5517 7.0507C27.7765 7.10693 27.9973 7.10774 28.2275 7.10749C28.2918 7.10772 28.2918 7.10772 28.3575 7.10794C28.5012 7.10838 28.645 7.10845 28.7887 7.10853C28.8918 7.10876 28.9948 7.10901 29.0979 7.10927C29.3779 7.10993 29.6578 7.11025 29.9378 7.11047C30.1126 7.11062 30.2875 7.11082 30.4624 7.11104C31.0094 7.11172 31.5564 7.11221 32.1035 7.1124C32.7351 7.11262 33.3668 7.1135 33.9984 7.11494C34.4867 7.11601 34.9749 7.11652 35.4631 7.11658C35.7547 7.11663 36.0463 7.11693 36.338 7.11782C36.6122 7.11864 36.8864 7.11875 37.1606 7.11831C37.2613 7.11827 37.3619 7.11849 37.4626 7.11898C37.5999 7.11961 37.7373 7.11932 37.8747 7.1188C37.9145 7.1192 37.9544 7.1196 37.9954 7.12002C38.2352 7.11789 38.3982 7.08236 38.6066 6.95111C38.6824 6.85281 38.6824 6.85281 38.7249 6.74259C38.7486 6.68915 38.7486 6.68915 38.7727 6.63463C38.7836 6.6076 38.7946 6.58058 38.8058 6.55273C38.9044 6.55273 39.003 6.55273 39.1046 6.55273C39.1046 7.32509 39.1046 8.09744 39.1046 8.89319C39.006 8.89319 38.9074 8.89319 38.8058 8.89319C38.7937 8.86559 38.7817 8.83799 38.7692 8.80955C38.7525 8.77347 38.7358 8.7374 38.7187 8.70023C38.7025 8.66441 38.6863 8.62859 38.6696 8.59169C38.5932 8.47417 38.5359 8.44822 38.4074 8.39522C38.3099 8.38003 38.3099 8.38003 38.2077 8.38136C38.1684 8.3808 38.1292 8.38024 38.0887 8.37967C38.0249 8.37951 38.0249 8.37951 37.9597 8.37935C37.8919 8.3786 37.8919 8.3786 37.8227 8.37783C37.6734 8.37629 37.5242 8.37545 37.3749 8.3746C37.2714 8.37367 37.1678 8.3727 37.0643 8.37168C36.7918 8.36912 36.5194 8.36715 36.2469 8.3653C35.9689 8.36331 35.6908 8.36076 35.4128 8.35826C34.8673 8.35344 34.3218 8.34924 33.7763 8.34543C33.7793 9.71023 33.7832 11.075 33.788 12.4398C33.7903 13.0735 33.7922 13.7072 33.7935 14.3409C33.7947 14.8932 33.7964 15.4454 33.7986 15.9977C33.7998 16.2902 33.8008 16.5826 33.8011 16.8751C33.8014 17.1504 33.8024 17.4256 33.8039 17.7008C33.8043 17.8019 33.8045 17.9029 33.8044 18.004C33.8044 18.1419 33.8052 18.2798 33.8062 18.4178C33.806 18.4578 33.8058 18.4978 33.8055 18.539C33.8085 18.7789 33.8442 18.9429 33.9755 19.1514C34.0738 19.2272 34.0738 19.2272 34.184 19.2696C34.2196 19.2854 34.2553 19.3012 34.292 19.3175C34.319 19.3284 34.346 19.3393 34.3739 19.3506C34.3739 19.4492 34.3739 19.5478 34.3739 19.6493C33.5029 19.6493 32.632 19.6493 31.7346 19.6493C31.7346 19.5507 31.7346 19.4521 31.7346 19.3506C31.7988 19.3171 31.8632 19.284 31.9276 19.251C31.9634 19.2325 31.9992 19.214 32.0361 19.1949C32.133 19.1514 32.133 19.1514 32.2326 19.1514C32.2819 18.9042 32.29 18.6685 32.2903 18.4178C32.2905 18.3746 32.2908 18.3314 32.291 18.287C32.2918 18.1427 32.2922 17.9984 32.2926 17.8541C32.2931 17.7506 32.2936 17.647 32.2941 17.5435C32.2955 17.2625 32.2965 16.9816 32.2975 16.7006C32.2986 16.4069 32.2999 16.1132 32.3013 15.8195C32.3038 15.2635 32.306 14.7074 32.3082 14.1514C32.3106 13.5183 32.3133 12.8852 32.3161 12.2521C32.3218 10.9499 32.3271 9.64766 32.3322 8.34543C31.7262 8.34501 31.1202 8.3462 30.5141 8.34942C30.2327 8.35087 29.9514 8.35177 29.67 8.35141C29.3984 8.35108 29.1269 8.3522 28.8553 8.35432C28.7517 8.35487 28.6481 8.35491 28.5445 8.35441C28.3993 8.35381 28.2543 8.35505 28.1092 8.35673C28.0664 8.35612 28.0235 8.35552 27.9793 8.35489C27.7589 8.35773 27.7589 8.35773 27.57 8.45927C27.4443 8.60548 27.3618 8.76024 27.3027 8.94299C27.2041 8.94299 27.1055 8.94299 27.0039 8.94299C27.0039 8.15421 27.0039 7.36542 27.0039 6.55273Z" fill="white"/>
<path d="M79.7383 8.79492C79.8204 8.79492 79.9026 8.79492 79.9873 8.79492C80.066 8.87857 80.066 8.87857 80.1273 8.98789C80.1586 9.04161 80.1586 9.04161 80.1905 9.09643C80.2362 9.1933 80.2362 9.1933 80.2362 9.29289C80.4376 9.3407 80.6261 9.34949 80.8328 9.35057C80.8671 9.35081 80.9015 9.35106 80.9369 9.35131C81.0518 9.35208 81.1666 9.35249 81.2814 9.35291C81.3639 9.35339 81.4464 9.35389 81.5288 9.35441C81.7525 9.35575 81.9761 9.3568 82.1998 9.35779C82.4336 9.35888 82.6674 9.36025 82.9012 9.36158C83.3439 9.36407 83.7865 9.3663 84.2292 9.36845C84.7332 9.37091 85.2372 9.37365 85.7411 9.37641C86.7778 9.38207 87.8145 9.38739 88.8511 9.39249C88.8141 9.5563 88.7641 9.65824 88.6632 9.79359C88.6205 9.8513 88.6205 9.8513 88.5769 9.91018C88.5462 9.95091 88.5155 9.99165 88.4839 10.0336C88.4524 10.0758 88.4209 10.1181 88.3885 10.1615C88.1374 10.4971 87.8798 10.8273 87.6192 11.1555C87.3359 11.5139 87.0609 11.8786 86.7877 12.2447C86.5045 12.6242 86.2179 12.9997 85.9201 13.368C85.7326 13.6003 85.5525 13.8375 85.3745 14.0771C85.244 14.2519 85.1109 14.4246 84.9777 14.5973C84.777 14.8576 84.5778 15.1191 84.3787 15.3806C84.1094 15.7343 83.8398 16.0877 83.5696 16.4407C83.4213 16.6345 83.2733 16.8286 83.1256 17.0229C83.0568 17.1135 82.9879 17.2041 82.919 17.2946C82.8687 17.3609 82.8687 17.3609 82.8174 17.4285C82.5946 17.7211 82.3692 18.0116 82.1377 18.2975C82.042 18.4173 81.9784 18.5076 81.9293 18.6547C82.7423 18.654 83.5552 18.6519 84.3681 18.6481C84.7456 18.6464 85.123 18.6452 85.5005 18.645C85.8295 18.6448 86.1586 18.6438 86.4876 18.6418C86.6618 18.6407 86.836 18.6401 87.0102 18.6405C87.2047 18.6409 87.3993 18.6394 87.5939 18.6378C87.6803 18.6384 87.6803 18.6384 87.7684 18.6391C88.1004 18.6378 88.1004 18.6378 88.387 18.4887C88.5101 18.3472 88.5599 18.2388 88.6021 18.0572C88.6843 18.0572 88.7665 18.0572 88.8511 18.0572C88.8511 18.7802 88.8511 19.5033 88.8511 20.2482C88.769 20.2482 88.6868 20.2482 88.6021 20.2482C88.5918 20.2212 88.5815 20.1942 88.5708 20.1663C88.5555 20.1307 88.5401 20.0951 88.5243 20.0584C88.5099 20.0231 88.4954 19.9879 88.4806 19.9516C88.3693 19.8057 88.2246 19.7548 88.0544 19.7005C87.8783 19.678 87.8783 19.678 87.693 19.6806C87.641 19.6801 87.641 19.6801 87.5879 19.6796C87.4727 19.6787 87.3575 19.6788 87.2423 19.6789C87.1593 19.6785 87.0763 19.678 86.9934 19.6774C86.7688 19.676 86.5442 19.6756 86.3196 19.6753C86.0847 19.6748 85.8498 19.6735 85.6148 19.6723C85.1702 19.6701 84.7257 19.6687 84.2811 19.6675C83.7748 19.6662 83.2685 19.664 82.7622 19.6617C81.721 19.6571 80.6799 19.6535 79.6387 19.6507C79.6736 19.3901 79.7332 19.2726 79.9094 19.0749C79.9551 19.0225 80.0007 18.9699 80.0462 18.9173C80.0695 18.8905 80.0929 18.8636 80.117 18.836C80.2279 18.7056 80.3318 18.57 80.4354 18.4338C80.4662 18.3935 80.4662 18.3935 80.4976 18.3523C80.5391 18.2978 80.5807 18.2433 80.6222 18.1887C80.7254 18.0532 80.8294 17.9182 80.9334 17.7833C80.9752 17.729 81.0169 17.6747 81.0587 17.6205C81.0895 17.5804 81.0895 17.5804 81.121 17.5394C81.1807 17.4618 81.2403 17.3842 81.2999 17.3065C81.7154 16.7653 82.1348 16.2272 82.5543 15.6891C82.8436 15.3178 83.1317 14.9457 83.417 14.5714C83.6162 14.3101 83.8178 14.0513 84.0241 13.7956C84.156 13.6305 84.2844 13.4628 84.4129 13.295C84.5933 13.0598 84.7753 12.8258 84.9576 12.5919C85.2701 12.1908 85.5794 11.7872 85.8879 11.383C86.005 11.2297 86.1224 11.0767 86.2399 10.9237C86.278 10.8742 86.316 10.8246 86.3552 10.7736C86.4556 10.6442 86.5576 10.5162 86.66 10.3884C85.8536 10.3903 85.0472 10.3933 84.2408 10.3976C83.8663 10.3996 83.4919 10.4012 83.1174 10.4019C82.791 10.4026 82.4646 10.4039 82.1382 10.4061C81.9654 10.4072 81.7926 10.408 81.6198 10.4079C81.4268 10.4079 81.2338 10.4094 81.0407 10.411C80.9836 10.4108 80.9265 10.4105 80.8676 10.4103C80.5618 10.4143 80.3651 10.4244 80.1366 10.6374C80.0655 10.7922 80.0655 10.7922 80.037 10.9362C79.9384 10.9362 79.8399 10.9362 79.7383 10.9362C79.7383 10.2296 79.7383 9.52295 79.7383 8.79492Z" fill="white"/>
<path d="M75.6562 9.39258C76.4779 9.39258 77.2996 9.39258 78.1461 9.39258C78.1461 9.47474 78.1461 9.55691 78.1461 9.64156C78.1149 9.65305 78.0837 9.66454 78.0516 9.67638C78.0109 9.69262 77.9702 9.70886 77.9282 9.7256C77.8878 9.74119 77.8474 9.75679 77.8057 9.77286C77.6627 9.86293 77.6477 9.92889 77.5983 10.0897C77.5833 10.2616 77.5833 10.2616 77.5854 10.4523C77.5852 10.4883 77.585 10.5243 77.5848 10.5614C77.5843 10.6817 77.5845 10.802 77.5847 10.9224C77.5844 11.0088 77.5842 11.0951 77.5839 11.1815C77.5832 11.416 77.5832 11.6505 77.5833 11.885C77.5834 12.0807 77.5831 12.2765 77.5829 12.4723C77.5823 12.9342 77.5823 13.396 77.5826 13.8579C77.5829 14.3343 77.5823 14.8107 77.5812 15.2872C77.5804 15.6963 77.5801 16.1054 77.5802 16.5145C77.5803 16.7589 77.5802 17.0032 77.5795 17.2475C77.5789 17.4772 77.579 17.707 77.5796 17.9367C77.5797 18.021 77.5796 18.1053 77.5792 18.1895C77.5787 18.3047 77.5791 18.4198 77.5797 18.5349C77.5797 18.6315 77.5797 18.6315 77.5797 18.7301C77.6001 18.9199 77.6487 19.0403 77.7477 19.2026C77.846 19.2784 77.846 19.2784 77.9562 19.3209C78.0097 19.3445 78.0097 19.3445 78.0642 19.3687C78.0912 19.3796 78.1183 19.3905 78.1461 19.4018C78.1461 19.4839 78.1461 19.5661 78.1461 19.6508C77.3244 19.6508 76.5028 19.6508 75.6562 19.6508C75.6562 19.5686 75.6562 19.4864 75.6562 19.4018C75.6874 19.3878 75.7186 19.3739 75.7508 19.3596C75.7915 19.3396 75.8322 19.3196 75.8741 19.2991C75.9146 19.28 75.955 19.2609 75.9967 19.2413C76.1503 19.1151 76.1601 18.9963 76.204 18.8042C76.2127 18.6821 76.2166 18.5596 76.2167 18.4372C76.2168 18.402 76.217 18.3667 76.2171 18.3304C76.2175 18.2131 76.2172 18.0958 76.2169 17.9786C76.217 17.8941 76.2172 17.8097 76.2174 17.7252C76.2179 17.4965 76.2177 17.2678 76.2174 17.0391C76.2171 16.7995 76.2174 16.5599 76.2175 16.3204C76.2177 15.9181 76.2175 15.5159 76.217 15.1137C76.2165 14.6488 76.2166 14.184 76.2172 13.7192C76.2176 13.3198 76.2177 12.9204 76.2174 12.521C76.2173 12.2825 76.2173 12.0441 76.2176 11.8057C76.2179 11.5816 76.2177 11.3575 76.2171 11.1334C76.217 11.0512 76.217 10.969 76.2172 10.8868C76.2175 10.7745 76.2172 10.6623 76.2167 10.55C76.2166 10.4872 76.2166 10.4244 76.2166 10.3597C76.2038 10.1858 76.1721 10.0509 76.1044 9.89055C75.9992 9.80292 75.9992 9.80292 75.8741 9.74738C75.8334 9.72697 75.7927 9.70656 75.7508 9.68552C75.7196 9.67102 75.6884 9.65651 75.6562 9.64156C75.6562 9.5594 75.6562 9.47723 75.6562 9.39258Z" fill="white"/>
</g>
<rect width="13.6102" height="6.04898" transform="translate(8.96875 4.42188)" fill="white"/>
<rect width="10.8882" height="9.98081" transform="translate(1.71094 12.5879)" fill="white"/>
<rect width="8.16612" height="7.25877" transform="translate(14.4141 12.4863)" fill="white"/>
<defs>
<clipPath id="clip0_1017_761">
<rect width="63.7402" height="15.6861" fill="white" transform="translate(26.207 5.60742)"/>
</clipPath>
</defs>
</svg>
