<svg width="61" height="36" viewBox="0 0 61 36" fill="none" xmlns="http://www.w3.org/2000/svg">
<g clip-path="url(#clip0_942_748)">
<path d="M5.48 34V22.12H1.18V19.42H12.98V22.12H8.58V34H5.48ZM17.1163 34.18C15.9963 34.18 15.0363 33.9533 14.2363 33.5C13.4496 33.0467 12.8429 32.4133 12.4163 31.6C11.9896 30.7733 11.7763 29.8133 11.7763 28.72C11.7763 27.56 11.9896 26.56 12.4163 25.72C12.8563 24.88 13.4696 24.2333 14.2563 23.78C15.0429 23.3133 15.9629 23.08 17.0163 23.08C18.2563 23.08 19.2763 23.3533 20.0763 23.9C20.8763 24.4333 21.4496 25.1733 21.7963 26.12C22.1429 27.0533 22.2563 28.1133 22.1363 29.3H14.6763C14.6629 30.1533 14.8829 30.8133 15.3363 31.28C15.7896 31.7333 16.3829 31.96 17.1163 31.96C17.6763 31.96 18.1496 31.84 18.5363 31.6C18.9363 31.3467 19.1896 31.0133 19.2963 30.6H22.0763C21.9829 31.32 21.7096 31.9467 21.2562 32.48C20.8163 33.0133 20.2429 33.4333 19.5363 33.74C18.8296 34.0333 18.0229 34.18 17.1163 34.18ZM17.0163 25.3C16.3496 25.3 15.8096 25.4933 15.3963 25.88C14.9829 26.2533 14.7496 26.7667 14.6963 27.42H19.2563C19.2163 26.7 18.9829 26.1667 18.5563 25.82C18.1429 25.4733 17.6296 25.3 17.0163 25.3ZM24.0569 34V23.28H26.7169L26.8369 25H26.9369C27.1769 24.3067 27.5569 23.8267 28.0769 23.56C28.6102 23.28 29.2169 23.14 29.8969 23.14H30.4969V25.9H29.8369C28.8502 25.9 28.1369 26.12 27.6969 26.56C27.2569 26.9867 27.0235 27.6 26.9969 28.4V34H24.0569ZM35.4898 34.18C34.2098 34.18 33.1765 33.72 32.3898 32.8C31.6032 31.8667 31.2098 30.48 31.2098 28.64C31.2098 26.7867 31.6032 25.4 32.3898 24.48C33.1765 23.5467 34.2098 23.08 35.4898 23.08C36.3165 23.08 37.0232 23.2667 37.6098 23.64C38.2098 24.0133 38.6365 24.5133 38.8898 25.14H39.0498L39.1698 23.28H41.9898V34H39.0498V32.12H38.8898C38.6365 32.7333 38.2098 33.2333 37.6098 33.62C37.0232 33.9933 36.3165 34.18 35.4898 34.18ZM36.6098 31.8C37.1565 31.8 37.6032 31.6733 37.9498 31.42C38.3098 31.1667 38.5765 30.84 38.7498 30.44C38.9232 30.0267 39.0098 29.5933 39.0098 29.14V28.12C39.0098 27.6533 38.9232 27.22 38.7498 26.82C38.5765 26.42 38.3098 26.0933 37.9498 25.84C37.6032 25.5867 37.1565 25.46 36.6098 25.46C35.8898 25.46 35.3098 25.72 34.8698 26.24C34.4298 26.7467 34.2098 27.5467 34.2098 28.64C34.2098 29.72 34.4298 30.52 34.8698 31.04C35.3098 31.5467 35.8898 31.8 36.6098 31.8ZM44.5061 21.9V19.42H47.4461V21.9H44.5061ZM44.5061 34V23.28H47.4461V34H44.5061ZM49.2948 34V31.9L54.7548 25.64H49.6148V23.28H58.5148V25.34L53.0348 31.64H58.7348V34H49.2948Z" fill="black"/>
<rect width="15" height="15" transform="translate(44 1)" fill="black"/>
<rect width="8" height="8" transform="translate(34 12)" fill="black"/>
</g>
<defs>
<clipPath id="clip0_942_748">
<rect width="61" height="36" fill="white"/>
</clipPath>
</defs>
</svg>
