<svg width="89" height="16" viewBox="0 0 89 16" fill="none" xmlns="http://www.w3.org/2000/svg">
<path d="M4.48 15V3.12H0.18V0.419999H11.98V3.12H7.58V15H4.48ZM16.1163 15.18C14.9963 15.18 14.0363 14.9533 13.2363 14.5C12.4496 14.0467 11.8429 13.4133 11.4163 12.6C10.9896 11.7733 10.7763 10.8133 10.7763 9.72C10.7763 8.56 10.9896 7.56 11.4163 6.72C11.8563 5.88 12.4696 5.23333 13.2563 4.78C14.0429 4.31333 14.9629 4.08 16.0163 4.08C17.2563 4.08 18.2763 4.35333 19.0763 4.9C19.8763 5.43333 20.4496 6.17333 20.7963 7.12C21.1429 8.05333 21.2563 9.11333 21.1363 10.3H13.6763C13.6629 11.1533 13.8829 11.8133 14.3363 12.28C14.7896 12.7333 15.3829 12.96 16.1163 12.96C16.6763 12.96 17.1496 12.84 17.5363 12.6C17.9363 12.3467 18.1896 12.0133 18.2963 11.6H21.0763C20.9829 12.32 20.7096 12.9467 20.2562 13.48C19.8163 14.0133 19.2429 14.4333 18.5363 14.74C17.8296 15.0333 17.0229 15.18 16.1163 15.18ZM16.0163 6.3C15.3496 6.3 14.8096 6.49333 14.3963 6.88C13.9829 7.25333 13.7496 7.76667 13.6963 8.42H18.2563C18.2163 7.7 17.9829 7.16667 17.5563 6.82C17.1429 6.47333 16.6296 6.3 16.0163 6.3ZM27.9322 15.18C26.8655 15.18 25.9322 14.9533 25.1322 14.5C24.3322 14.0333 23.7122 13.3867 23.2722 12.56C22.8322 11.72 22.6122 10.7467 22.6122 9.64C22.6122 8.52 22.8322 7.54667 23.2722 6.72C23.7255 5.88 24.3589 5.23333 25.1722 4.78C25.9855 4.31333 26.9389 4.08 28.0322 4.08C28.9522 4.08 29.7722 4.25333 30.4922 4.6C31.2122 4.94667 31.7789 5.42667 32.1922 6.04C32.6189 6.65333 32.8522 7.36667 32.8922 8.18H30.0122C29.9189 7.62 29.6855 7.2 29.3122 6.92C28.9389 6.62667 28.4855 6.48 27.9522 6.48C27.1789 6.48 26.5922 6.76667 26.1922 7.34C25.7922 7.91333 25.5922 8.68 25.5922 9.64C25.5922 10.6933 25.8055 11.48 26.2322 12C26.6722 12.52 27.2389 12.78 27.9322 12.78C28.5589 12.78 29.0522 12.62 29.4122 12.3C29.7855 11.98 29.9989 11.56 30.0522 11.04H32.9122C32.8722 11.88 32.6322 12.6133 32.1922 13.24C31.7655 13.8533 31.1855 14.3333 30.4522 14.68C29.7189 15.0133 28.8789 15.18 27.9322 15.18ZM34.717 15V0.419999H37.657V6.22H37.777C38.0704 5.51333 38.5237 4.98 39.137 4.62C39.7504 4.26 40.437 4.08 41.197 4.08C41.917 4.08 42.557 4.22667 43.117 4.52C43.6904 4.81333 44.1437 5.28667 44.477 5.94C44.8104 6.58 44.977 7.44 44.977 8.52V15H42.037V9.16C42.037 8.25333 41.877 7.58 41.557 7.14C41.237 6.7 40.7237 6.48 40.017 6.48C39.257 6.48 38.6704 6.74 38.257 7.26C37.857 7.76667 37.657 8.36 37.657 9.04V15H34.717Z" fill="black"/>
<path d="M47.7128 15V0.419999H54.9128C56.6195 0.419999 57.8928 0.779999 58.7328 1.5C59.5728 2.22 59.9928 3.25333 59.9928 4.6C59.9928 5.46667 59.7661 6.22 59.3128 6.86C58.8728 7.48667 58.2595 7.89333 57.4728 8.08V8.22C58.9128 8.5 59.6328 9.44 59.6328 11.04V13.32C59.6328 13.5867 59.6395 13.8667 59.6528 14.16C59.6795 14.44 59.7595 14.72 59.8928 15H56.7528C56.6595 14.8133 56.5928 14.58 56.5528 14.3C56.5261 14.0067 56.5128 13.68 56.5128 13.32V11.58C56.5128 10.9533 56.3595 10.4733 56.0528 10.14C55.7595 9.80667 55.1728 9.64 54.2928 9.64H50.8328V15H47.7128ZM50.8328 7.16H54.4528C55.3061 7.16 55.9128 6.96 56.2728 6.56C56.6328 6.14667 56.8128 5.63333 56.8128 5.02C56.8128 4.28667 56.5928 3.76667 56.1528 3.46C55.7261 3.15333 55.1595 3 54.4528 3H50.8328V7.16ZM65.5055 15.18C64.2255 15.18 63.1921 14.72 62.4055 13.8C61.6188 12.8667 61.2255 11.48 61.2255 9.64C61.2255 7.78667 61.6188 6.4 62.4055 5.48C63.1921 4.54667 64.2255 4.08 65.5055 4.08C66.3321 4.08 67.0388 4.26667 67.6255 4.64C68.2255 5.01333 68.6521 5.51333 68.9055 6.14H69.0655L69.1855 4.28H72.0055V15H69.0655V13.12H68.9055C68.6521 13.7333 68.2255 14.2333 67.6255 14.62C67.0388 14.9933 66.3321 15.18 65.5055 15.18ZM66.6255 12.8C67.1721 12.8 67.6188 12.6733 67.9655 12.42C68.3255 12.1667 68.5921 11.84 68.7655 11.44C68.9388 11.0267 69.0255 10.5933 69.0255 10.14V9.12C69.0255 8.65333 68.9388 8.22 68.7655 7.82C68.5921 7.42 68.3255 7.09333 67.9655 6.84C67.6188 6.58667 67.1721 6.46 66.6255 6.46C65.9055 6.46 65.3255 6.72 64.8855 7.24C64.4455 7.74667 64.2255 8.54667 64.2255 9.64C64.2255 10.72 64.4455 11.52 64.8855 12.04C65.3255 12.5467 65.9055 12.8 66.6255 12.8ZM74.5217 2.9V0.419999H77.4617V2.9H74.5217ZM74.5217 15V4.28H77.4617V15H74.5217ZM79.3105 15V12.9L84.7705 6.64H79.6305V4.28H88.5305V6.34L83.0505 12.64H88.7505V15H79.3105Z" fill="#00DCA7"/>
</svg>
