<svg width="130" height="36" viewBox="0 0 130 36" fill="none" xmlns="http://www.w3.org/2000/svg">
<g clip-path="url(#clip0_1029_807)">
<rect width="21.1611" height="9.40492" transform="translate(13.9473 4.54297)" fill="white"/>
<rect width="16.9289" height="15.5181" transform="translate(2.66211 17.2402)" fill="white"/>
<rect width="12.6966" height="11.2859" transform="translate(22.4121 17.082)" fill="white"/>
<path d="M61.4238 13.0281H60.3684C60.2766 12.661 60.1084 12.2277 59.8637 11.728C59.6291 11.2182 59.364 10.7389 59.0683 10.2902C58.7624 9.82117 58.4259 9.41329 58.0588 9.06659C57.7019 8.7097 57.3552 8.50576 57.0187 8.45477C56.7026 8.41398 56.3049 8.38339 55.8256 8.363C55.3464 8.3426 54.9028 8.33241 54.4949 8.33241H53.6078V25.6929C53.6078 26.0294 53.6792 26.3404 53.8219 26.6259C53.9647 26.9012 54.2145 27.1154 54.5714 27.2683C54.7549 27.3397 55.1373 27.4366 55.7186 27.5589C56.31 27.6813 56.7689 27.7476 57.0952 27.7578V28.8438H46.8471V27.7578C47.1327 27.7374 47.566 27.6966 48.1473 27.6354C48.7387 27.5742 49.1466 27.4977 49.3709 27.406C49.7074 27.2734 49.9521 27.0848 50.1051 26.84C50.2682 26.5851 50.3498 26.2486 50.3498 25.8305V8.33241H49.4627C49.1466 8.33241 48.754 8.3426 48.2849 8.363C47.8159 8.3732 47.3672 8.40379 46.9389 8.45477C46.6024 8.49556 46.2506 8.6995 45.8835 9.06659C45.5266 9.42349 45.1952 9.83137 44.8893 10.2902C44.5834 10.7491 44.3132 11.2386 44.0786 11.7586C43.8441 12.2685 43.681 12.6916 43.5892 13.0281H42.5185V7.13935H61.4238V13.0281ZM76.184 25.2952C75.5518 26.4984 74.7054 27.457 73.645 28.1707C72.5845 28.8845 71.3659 29.2414 69.9893 29.2414C68.7759 29.2414 67.7103 29.0273 66.7925 28.599C65.885 28.1707 65.1355 27.5895 64.5441 26.8553C63.9527 26.1211 63.5091 25.2646 63.2134 24.2857C62.9279 23.3068 62.7851 22.2718 62.7851 21.1807C62.7851 20.2018 62.9381 19.2432 63.244 18.3051C63.5601 17.3568 64.019 16.5053 64.6206 15.7508C65.2018 15.0268 65.9207 14.4455 66.7773 14.0071C67.644 13.5584 68.6127 13.3341 69.6834 13.3341C70.7847 13.3341 71.7279 13.5074 72.5131 13.8541C73.2983 14.2008 73.9356 14.675 74.425 15.2766C74.8941 15.8476 75.2408 16.5206 75.4651 17.2956C75.6997 18.0706 75.8169 18.9118 75.8169 19.8194V20.8289H65.8289C65.8289 21.818 65.9207 22.7153 66.1042 23.5209C66.298 24.3265 66.5988 25.0352 67.0067 25.647C67.4044 26.2384 67.9244 26.7075 68.5668 27.0542C69.2092 27.3907 69.974 27.5589 70.8612 27.5589C71.7687 27.5589 72.5488 27.3499 73.2014 26.9318C73.8642 26.5035 74.5015 25.7388 75.1133 24.6375L76.184 25.2952ZM72.8037 19.5441C72.8037 18.973 72.7527 18.3612 72.6507 17.7086C72.559 17.056 72.406 16.5104 72.1919 16.072C71.9573 15.6029 71.6361 15.2205 71.2283 14.9248C70.8204 14.6291 70.2952 14.4812 69.6528 14.4812C68.5821 14.4812 67.6899 14.9299 66.9761 15.8272C66.2725 16.7144 65.8901 17.9533 65.8289 19.5441H72.8037ZM89.4759 15.7049C89.4759 16.2249 89.3484 16.6889 89.0935 17.0968C88.8385 17.4944 88.446 17.6933 87.9157 17.6933C87.3447 17.6933 86.9062 17.5454 86.6003 17.2497C86.3046 16.954 86.1567 16.6277 86.1567 16.2708C86.1567 16.0465 86.172 15.8425 86.2026 15.659C86.2434 15.4754 86.2791 15.2919 86.3097 15.1083C85.8304 15.1083 85.2696 15.3021 84.6272 15.6896C83.9848 16.0771 83.4392 16.6277 82.9905 17.3415V26.1211C82.9905 26.478 83.0568 26.7687 83.1894 26.993C83.3321 27.2173 83.5514 27.3856 83.8471 27.4977C84.102 27.5997 84.4283 27.6762 84.826 27.7272C85.2339 27.7782 85.5857 27.8138 85.8814 27.8342V28.8438H77.9277V27.8342C78.1622 27.8138 78.4019 27.7935 78.6466 27.7731C78.9015 27.7527 79.1208 27.7119 79.3043 27.6507C79.5898 27.5589 79.7989 27.4009 79.9314 27.1765C80.0742 26.942 80.1456 26.6412 80.1456 26.2741V16.9591C80.1456 16.643 80.0691 16.332 79.9161 16.0261C79.7734 15.7202 79.5694 15.4754 79.3043 15.2919C79.1106 15.1695 78.8811 15.0828 78.616 15.0319C78.3509 14.9707 78.0654 14.9299 77.7595 14.9095V13.9153L82.7764 13.5788L82.9905 13.7929V15.919H83.067C83.6992 15.093 84.4028 14.4659 85.1778 14.0377C85.9528 13.6094 86.6615 13.3952 87.3039 13.3952C87.9463 13.3952 88.4664 13.6043 88.864 14.0224C89.2719 14.4404 89.4759 15.0013 89.4759 15.7049ZM105.062 28.5684C104.583 28.7418 104.16 28.8794 103.793 28.9814C103.436 29.0936 103.028 29.1497 102.569 29.1497C101.773 29.1497 101.136 28.9661 100.657 28.599C100.188 28.2217 99.887 27.6762 99.7545 26.9624H99.6627C98.9999 27.6966 98.2861 28.2574 97.5213 28.6449C96.7667 29.0324 95.8541 29.2261 94.7834 29.2261C93.6515 29.2261 92.7185 28.8794 91.9843 28.186C91.2603 27.4926 90.8983 26.5851 90.8983 25.4634C90.8983 24.8822 90.9799 24.3622 91.1431 23.9033C91.3062 23.4444 91.551 23.0314 91.8773 22.6643C92.1322 22.3584 92.4687 22.0882 92.8868 21.8537C93.3048 21.609 93.6974 21.4152 94.0645 21.2724C94.5234 21.0991 95.4513 20.7779 96.8483 20.3088C98.2555 19.8398 99.2038 19.4727 99.6933 19.2075V17.6933C99.6933 17.5607 99.6627 17.3058 99.6015 16.9285C99.5505 16.5512 99.4333 16.1943 99.2497 15.8578C99.0458 15.4805 98.7552 15.1542 98.3779 14.8789C98.0108 14.5934 97.4856 14.4506 96.8024 14.4506C96.3334 14.4506 95.8949 14.5322 95.487 14.6954C95.0893 14.8483 94.8089 15.0115 94.6458 15.1848C94.6458 15.3888 94.6916 15.6896 94.7834 16.0873C94.8854 16.4849 94.9364 16.852 94.9364 17.1885C94.9364 17.5454 94.7732 17.8717 94.4469 18.1675C94.1308 18.4632 93.6872 18.611 93.1162 18.611C92.6064 18.611 92.2291 18.4326 91.9843 18.0757C91.7498 17.7086 91.6325 17.3007 91.6325 16.852C91.6325 16.383 91.7957 15.9343 92.122 15.506C92.4585 15.0777 92.8919 14.6954 93.4221 14.3589C93.881 14.0733 94.4367 13.8337 95.0893 13.64C95.7419 13.436 96.3793 13.3341 97.0013 13.3341C97.8578 13.3341 98.6022 13.3952 99.2344 13.5176C99.8768 13.6298 100.458 13.8796 100.978 14.2671C101.498 14.6444 101.891 15.1593 102.156 15.8119C102.431 16.4543 102.569 17.2854 102.569 18.3051C102.569 19.7633 102.554 21.0583 102.523 22.1902C102.492 23.3119 102.477 24.5406 102.477 25.8764C102.477 26.2741 102.543 26.5902 102.676 26.8247C102.819 27.0593 103.033 27.2581 103.318 27.4213C103.471 27.513 103.711 27.564 104.037 27.5742C104.374 27.5844 104.715 27.5895 105.062 27.5895V28.5684ZM99.7239 20.4924C98.8571 20.7473 98.0975 20.9971 97.4448 21.2419C96.7922 21.4866 96.1855 21.7925 95.6247 22.1596C95.1148 22.5063 94.712 22.9193 94.4163 23.3985C94.1206 23.8676 93.9728 24.4284 93.9728 25.081C93.9728 25.9274 94.192 26.5494 94.6305 26.9471C95.0791 27.3448 95.6451 27.5436 96.3283 27.5436C97.0523 27.5436 97.6896 27.3703 98.2402 27.0236C98.7909 26.6667 99.2548 26.2486 99.6321 25.7693L99.7239 20.4924ZM113.888 28.8438H106.592V27.8342C106.826 27.8138 107.066 27.7935 107.31 27.7731C107.565 27.7527 107.785 27.7119 107.968 27.6507C108.254 27.5589 108.463 27.4009 108.595 27.1765C108.738 26.942 108.809 26.6412 108.809 26.2741V16.9591C108.809 16.6328 108.733 16.3371 108.58 16.072C108.437 15.7966 108.233 15.5672 107.968 15.3837C107.774 15.2613 107.494 15.1593 107.127 15.0777C106.76 14.986 106.423 14.9299 106.117 14.9095V13.9153L111.44 13.5788L111.654 13.7929V26.0905C111.654 26.4474 111.721 26.7432 111.853 26.9777C111.996 27.2122 112.215 27.3856 112.511 27.4977C112.735 27.5895 112.955 27.666 113.169 27.7272C113.383 27.7782 113.622 27.8138 113.888 27.8342V28.8438ZM111.96 7.62881C111.96 8.21004 111.767 8.71989 111.379 9.15837C111.002 9.58664 110.533 9.80078 109.972 9.80078C109.452 9.80078 108.998 9.59684 108.611 9.18896C108.233 8.77088 108.045 8.29672 108.045 7.76647C108.045 7.20563 108.233 6.71618 108.611 6.2981C108.998 5.88002 109.452 5.67098 109.972 5.67098C110.553 5.67098 111.027 5.86982 111.394 6.26751C111.772 6.65499 111.96 7.10876 111.96 7.62881ZM127.684 28.8438H115.478V28.0331L124.013 15.0013H121.902C121.015 15.0013 120.322 15.0166 119.822 15.0472C119.323 15.0777 118.864 15.1797 118.446 15.3531C118.16 15.4652 117.89 15.7864 117.635 16.3167C117.39 16.8469 117.176 17.5403 116.993 18.3969H116.06V13.7623H127.592V14.3894L118.92 27.6048C119.287 27.615 119.69 27.6252 120.128 27.6354C120.567 27.6354 121.041 27.6354 121.551 27.6354C121.959 27.6354 122.382 27.6303 122.82 27.6201C123.269 27.6099 123.84 27.5844 124.533 27.5436C124.941 27.5232 125.247 27.3856 125.451 27.1306C125.665 26.8757 125.828 26.5851 125.94 26.2588C126.053 25.9631 126.185 25.5552 126.338 25.0352C126.501 24.5151 126.644 24.0104 126.766 23.5209H127.684V28.8438Z" fill="white"/>
</g>
<defs>
<clipPath id="clip0_1029_807">
<rect width="130" height="35.9555" fill="white"/>
</clipPath>
</defs>
</svg>
