<svg width="96" height="21" viewBox="0 0 96 21" fill="none" xmlns="http://www.w3.org/2000/svg">
<g clip-path="url(#clip0_1010_719)">
<rect width="15" height="15" transform="translate(9 2)" fill="black"/>
<rect x="1.5" y="8.5" width="11" height="11" fill="black"/>
<rect x="1.5" y="8.5" width="11" height="11" stroke="white"/>
<mask id="path-2-inside-1_1010_719" fill="white">
<path d="M13 8H24V12H13V8Z"/>
</mask>
<path d="M13 8V9H24V8V7H13V8Z" fill="white" mask="url(#path-2-inside-1_1010_719)"/>
<g clip-path="url(#clip1_1010_719)">
<path d="M26 2C48.44 2 70.88 2 94 2C94 7.52234 94 13.0447 94 18.7344C71.56 18.7344 49.12 18.7344 26 18.7344C26 13.212 26 7.68969 26 2Z" fill="#F6F6F6"/>
<path d="M52.9336 6.03666C53.9131 6.03417 54.8926 6.0323 55.8721 6.03115C56.3269 6.03061 56.7818 6.02986 57.2366 6.02864C57.6333 6.02758 58.03 6.0269 58.4267 6.02666C58.6365 6.02652 58.8463 6.0262 59.0562 6.02542C59.2541 6.0247 59.4521 6.02448 59.65 6.02464C59.7564 6.0246 59.8627 6.02403 59.969 6.02344C61.0194 6.02581 62.0793 6.26536 62.8646 7.00287C63.415 7.58923 63.6395 8.31515 63.6342 9.10998C63.6141 9.67769 63.4594 10.2421 63.1336 10.7117C63.1003 10.7603 63.1003 10.7603 63.0664 10.81C62.5989 11.4199 61.7317 11.7626 60.9937 11.8684C60.8386 11.8813 60.686 11.8827 60.5305 11.8804C60.6662 12.1755 60.8281 12.4442 61.0055 12.7162C61.2511 13.0931 61.4883 13.4753 61.7262 13.8571C61.9162 14.1621 62.1079 14.466 62.3011 14.7689C62.385 14.9008 62.468 15.0332 62.5507 15.1659C63.0656 16.1313 63.0656 16.1313 63.9238 16.6982C63.9611 16.7037 63.9983 16.7091 64.0367 16.7148C64.0367 16.8024 64.0367 16.8901 64.0367 16.9804C63.1426 16.9804 62.2485 16.9804 61.3273 16.9804C61.3273 16.8928 61.3273 16.8051 61.3273 16.7148C61.4325 16.6622 61.5377 16.6096 61.6461 16.5554C61.5443 15.8837 60.9368 15.201 60.5768 14.6389C60.417 14.3893 60.2579 14.1392 60.0988 13.8892C60.0683 13.8413 60.0378 13.7934 60.0064 13.7441C59.8539 13.5046 59.7019 13.2648 59.5508 13.0245C59.5217 12.9783 59.4926 12.9321 59.4627 12.8845C59.408 12.7976 59.3534 12.7106 59.2989 12.6235C59.2745 12.5847 59.2501 12.5459 59.225 12.5059C59.1933 12.4553 59.1933 12.4553 59.1609 12.4036C59.1395 12.3712 59.1181 12.3388 59.0961 12.3054C59.0764 12.2689 59.0567 12.2324 59.0363 12.1948C58.9152 12.0709 58.8337 12.0668 58.664 12.0631C58.6274 12.0634 58.5907 12.0636 58.5529 12.0639C58.4945 12.0631 58.4945 12.0631 58.435 12.0622C58.3065 12.0607 58.1781 12.0606 58.0496 12.0605C57.9605 12.0597 57.8714 12.0588 57.7823 12.0579C57.5478 12.0555 57.3133 12.0545 57.0788 12.0537C56.8395 12.0527 56.6002 12.0504 56.3609 12.0483C55.8914 12.0443 55.4219 12.0416 54.9523 12.0398C54.9544 12.5815 54.9575 13.1232 54.9621 13.6649C54.9642 13.9164 54.9659 14.168 54.9667 14.4195C54.9675 14.6624 54.9694 14.9052 54.9719 15.148C54.9727 15.2406 54.9731 15.3332 54.9732 15.4257C54.9733 15.5556 54.9747 15.6854 54.9765 15.8152C54.9762 15.8533 54.9759 15.8914 54.9757 15.9307C54.9812 16.1972 55.0515 16.3494 55.218 16.5554C55.3153 16.6241 55.3153 16.6241 55.4172 16.655C55.4742 16.6747 55.5311 16.6945 55.5898 16.7148C55.5898 16.8024 55.5898 16.8901 55.5898 16.9804C54.7133 16.9804 53.8367 16.9804 52.9336 16.9804C52.9336 16.8928 52.9336 16.8051 52.9336 16.7148C52.9768 16.6973 52.9768 16.6973 53.021 16.6795C53.059 16.6627 53.097 16.6458 53.1361 16.6285C53.1737 16.6124 53.2113 16.5964 53.2501 16.5799C53.4038 16.47 53.4459 16.3576 53.518 16.1835C53.5417 15.9948 53.5417 15.9948 53.5382 15.79C53.5386 15.7323 53.5386 15.7323 53.539 15.6734C53.5396 15.545 53.5391 15.4167 53.5386 15.2884C53.5388 15.1961 53.5391 15.1039 53.5394 15.0116C53.5402 14.7615 53.5399 14.5113 53.5394 14.2612C53.539 13.9993 53.5393 13.7375 53.5396 13.4756C53.5399 13.036 53.5395 12.5963 53.5387 12.1566C53.5379 11.6483 53.5382 11.14 53.539 10.6317C53.5398 10.1952 53.5399 9.7587 53.5394 9.32219C53.5392 9.06151 53.5392 8.80084 53.5397 8.54017C53.5402 8.29515 53.5398 8.05014 53.5389 7.80513C53.5387 7.7152 53.5388 7.62528 53.5391 7.53535C53.5395 7.41261 53.539 7.28992 53.5382 7.16718C53.5381 7.0985 53.5381 7.02982 53.538 6.95905C53.5165 6.76737 53.4737 6.66771 53.3586 6.51478C53.2527 6.43963 53.2527 6.43963 53.1361 6.39193C53.0981 6.3746 53.0601 6.35728 53.021 6.33943C52.9921 6.32717 52.9633 6.31491 52.9336 6.30228C52.9336 6.21463 52.9336 6.12697 52.9336 6.03666Z" fill="black"/>
<path d="M69.7758 6.03711C70.8277 6.03711 71.8795 6.03711 72.9633 6.03711C72.9633 6.12477 72.9633 6.21242 72.9633 6.30273C72.9129 6.32684 72.8625 6.35095 72.8105 6.37578C72.6444 6.45161 72.6444 6.45161 72.5383 6.56836C72.5529 6.89503 72.6424 7.15499 72.774 7.45156C72.7926 7.49462 72.8113 7.53768 72.8305 7.58204C72.8916 7.72264 72.9538 7.86274 73.0164 8.00273C73.0491 8.0759 73.0491 8.0759 73.0824 8.15054C73.2355 8.49178 73.3909 8.83191 73.5477 9.17148C73.5648 9.20873 73.582 9.24598 73.5997 9.28435C73.7437 9.59559 73.8896 9.90589 74.0374 10.2153C74.247 10.6544 74.4502 11.094 74.6394 11.5424C74.8149 11.9506 75.0085 12.3509 75.1995 12.752C75.2388 12.8346 75.2781 12.9172 75.3174 12.9998C75.3374 13.042 75.3575 13.0842 75.3782 13.1276C75.5308 13.4498 75.6787 13.7739 75.8254 14.0988C75.9159 14.2982 76.0067 14.4974 76.0977 14.6965C76.1219 14.7498 76.1462 14.803 76.1712 14.8579C76.5922 15.9044 76.5922 15.9044 77.3727 16.6621C77.5157 16.6997 77.5157 16.6997 77.6383 16.7152C77.6383 16.8029 77.6383 16.8905 77.6383 16.9809C76.6916 16.9809 75.7449 16.9809 74.7695 16.9809C74.7695 16.8932 74.7695 16.8055 74.7695 16.7152C74.9536 16.61 74.9536 16.61 75.1414 16.5027C75.1414 15.5886 74.5164 14.7822 74.132 13.9527C72.2387 13.9527 70.3453 13.9527 68.3945 13.9527C67.8329 14.9699 67.8329 14.9699 67.4416 16.3168C67.4949 16.4588 67.528 16.5213 67.6508 16.609C67.7889 16.6722 67.7889 16.6722 67.9164 16.7152C67.9164 16.8029 67.9164 16.8905 67.9164 16.9809C67.0223 16.9809 66.1282 16.9809 65.207 16.9809C65.207 16.8932 65.207 16.8055 65.207 16.7152C65.2429 16.6991 65.2788 16.683 65.3158 16.6665C65.3869 16.6331 65.3869 16.6331 65.4594 16.599C65.5062 16.5775 65.5531 16.5559 65.6013 16.5337C65.8885 16.3574 66.0252 16.0658 66.1766 15.7756C66.2076 15.7164 66.2076 15.7164 66.2393 15.656C66.4443 15.2602 66.6246 14.8547 66.8014 14.4457C66.8897 14.2421 66.9797 14.0393 67.0697 13.8365C67.0872 13.7971 67.1048 13.7576 67.1228 13.7169C67.3234 13.2663 67.526 12.8157 67.7502 12.3762C67.8934 12.0912 68.0183 11.7981 68.1455 11.5057C68.3947 10.936 68.652 10.3716 68.9204 9.81064C69.193 9.23962 69.4574 8.66505 69.7193 8.08906C69.746 8.03044 69.746 8.03044 69.7733 7.97064C69.8245 7.8581 69.8756 7.74553 69.9266 7.63293C69.9497 7.58227 69.9497 7.58227 69.9732 7.53059C70.2122 7.04234 70.2122 7.04234 70.2008 6.51523C70.0956 6.42408 69.9953 6.36901 69.8687 6.31166C69.8227 6.28094 69.8227 6.28094 69.7758 6.24961C69.7758 6.17948 69.7758 6.10936 69.7758 6.03711Z" fill="black"/>
<path d="M50.543 5.40039C50.6306 5.40039 50.7183 5.40039 50.8086 5.40039C50.8086 6.15423 50.8086 6.90808 50.8086 7.68477C50.7209 7.68477 50.6333 7.68477 50.543 7.68477C50.4664 7.59553 50.4664 7.59553 50.4068 7.47891C50.3138 7.2993 50.2538 7.22828 50.0648 7.15352C49.9251 7.13708 49.9251 7.13708 49.7711 7.13872C49.7113 7.13813 49.6516 7.13754 49.59 7.13692C49.4921 7.13675 49.4921 7.13675 49.3921 7.13658C49.3232 7.13604 49.2542 7.13551 49.1832 7.13496C48.9943 7.13351 48.8054 7.1327 48.6165 7.13202C48.4191 7.13118 48.2216 7.12976 48.0242 7.1284C47.6503 7.12592 47.2765 7.12396 46.9026 7.1222C46.3974 7.11979 45.8922 7.11656 45.3869 7.11337C44.591 7.10837 43.7951 7.10447 42.9992 7.10039C42.9992 8.32758 42.9992 9.55477 42.9992 10.8191C43.8035 10.8143 43.8035 10.8143 44.6077 10.808C44.9358 10.8052 45.2639 10.8024 45.5919 10.8007C45.8565 10.7994 46.121 10.7972 46.3856 10.7945C46.4864 10.7936 46.5873 10.793 46.6882 10.7927C46.8296 10.7922 46.971 10.7907 47.1124 10.789C47.154 10.7891 47.1955 10.7891 47.2384 10.7892C47.4921 10.7849 47.6661 10.7449 47.8867 10.6066C47.9676 10.5018 47.9676 10.5018 48.0129 10.3842C48.0297 10.3462 48.0466 10.3082 48.0639 10.269C48.0756 10.2402 48.0872 10.2113 48.0992 10.1816C48.1869 10.1816 48.2745 10.1816 48.3648 10.1816C48.3648 10.9355 48.3648 11.6893 48.3648 12.466C48.2772 12.466 48.1895 12.466 48.0992 12.466C48.0863 12.4366 48.0735 12.4071 48.0602 12.3768C48.0424 12.3383 48.0246 12.2998 48.0063 12.2602C47.989 12.2219 47.9717 12.1837 47.954 12.1444C47.8684 12.0129 47.8223 11.989 47.6742 11.9348C47.5215 11.9236 47.3737 11.9182 47.2209 11.9178C47.1753 11.9173 47.1297 11.9168 47.0827 11.9162C46.9321 11.9146 46.7814 11.9137 46.6308 11.9128C46.5263 11.9118 46.4218 11.9107 46.3173 11.9097C46.0423 11.9069 45.7674 11.9048 45.4925 11.9028C45.1625 11.9003 44.8326 11.8971 44.5026 11.8939C44.0015 11.8892 43.5004 11.8855 42.9992 11.8816C42.9992 13.214 42.9992 14.5464 42.9992 15.9191C44.2674 15.9159 44.2674 15.9159 45.5356 15.9106C46.0527 15.9081 46.5698 15.9057 47.0869 15.9047C47.4635 15.9041 47.8401 15.9026 48.2166 15.9003C48.416 15.8991 48.6154 15.8983 48.8148 15.8983C49.0374 15.8984 49.26 15.8968 49.4826 15.895C49.5487 15.8953 49.6148 15.8956 49.6829 15.8958C49.7436 15.8951 49.8043 15.8943 49.8669 15.8936C49.9195 15.8934 49.9722 15.8932 50.0264 15.893C50.2114 15.8585 50.3013 15.7813 50.4367 15.6535C50.4995 15.5552 50.4995 15.5552 50.533 15.4543C50.5538 15.3973 50.5746 15.3403 50.5961 15.2816C50.6838 15.2816 50.7714 15.2816 50.8617 15.2816C50.8617 16.053 50.8617 16.8244 50.8617 17.6191C50.7741 17.6191 50.6864 17.6191 50.5961 17.6191C50.5895 17.5859 50.5829 17.5526 50.5762 17.5183C50.5652 17.4749 50.5543 17.4315 50.543 17.3867C50.5331 17.3436 50.5232 17.3004 50.5131 17.256C50.4107 17.1018 50.3021 17.0948 50.1279 17.0554C49.957 17.0251 49.7912 17.0207 49.6177 17.02C49.5619 17.0195 49.5619 17.0195 49.5049 17.019C49.3814 17.0181 49.2579 17.018 49.1344 17.0178C49.0454 17.0173 48.9564 17.0168 48.8673 17.0162C48.6265 17.0148 48.3857 17.014 48.145 17.0133C47.893 17.0124 47.641 17.011 47.389 17.0097C46.9123 17.0072 46.4355 17.0052 45.9587 17.0035C45.4158 17.0014 44.8729 16.9988 44.3299 16.9961C43.2134 16.9906 42.097 16.9859 40.9805 16.9816C40.9805 16.894 40.9805 16.8063 40.9805 16.716C41.0144 16.6987 41.0483 16.6814 41.0832 16.6635C41.1271 16.6403 41.171 16.6171 41.2162 16.5932C41.2819 16.559 41.2819 16.559 41.3488 16.5241C41.4749 16.4557 41.4749 16.4557 41.5117 16.291C41.5169 16.1664 41.5187 16.0417 41.5188 15.917C41.5189 15.8787 41.5191 15.8404 41.5192 15.8009C41.5195 15.6722 41.5195 15.5435 41.5194 15.4148C41.5196 15.3227 41.5198 15.2305 41.52 15.1384C41.5204 14.8878 41.5206 14.6372 41.5206 14.3866C41.5207 14.1775 41.5209 13.9684 41.521 13.7592C41.5215 13.2658 41.5216 12.7724 41.5216 12.2791C41.5215 11.77 41.5221 11.2609 41.5229 10.7519C41.5236 10.315 41.5239 9.87807 41.5239 9.44115C41.5239 9.18015 41.524 8.91914 41.5246 8.65814C41.5251 8.4126 41.5251 8.16707 41.5247 7.92153C41.5247 7.83146 41.5248 7.74139 41.5251 7.65131C41.5255 7.52825 41.5253 7.4052 41.5249 7.28213C41.5249 7.21329 41.5249 7.14445 41.5249 7.07352C41.5091 6.85113 41.4713 6.65691 41.3357 6.47617C41.2243 6.39363 41.1108 6.34931 40.9805 6.30352C40.9805 6.21586 40.9805 6.1282 40.9805 6.03789C41.0267 6.03776 41.073 6.03764 41.1206 6.03751C42.2459 6.03436 43.3712 6.03035 44.4965 6.02537C45.0407 6.02298 45.5849 6.02089 46.1291 6.01949C46.6034 6.01827 47.0777 6.01649 47.552 6.01405C47.8032 6.01278 48.0543 6.01179 48.3055 6.01145C48.5419 6.01113 48.7783 6.01007 49.0147 6.00844C49.1015 6.00798 49.1882 6.00778 49.2749 6.00787C49.3935 6.00796 49.512 6.00707 49.6305 6.00595C49.6968 6.0057 49.7631 6.00546 49.8315 6.00521C50.0309 5.9826 50.1596 5.92901 50.3305 5.82539C50.4114 5.72053 50.4114 5.72053 50.4566 5.60293C50.4819 5.54592 50.4819 5.54592 50.5077 5.48776C50.5193 5.45893 50.531 5.43009 50.543 5.40039Z" fill="black"/>
<path d="M26.8496 3.00977C26.9723 3.00977 27.095 3.00977 27.2215 3.00977C27.3742 3.36172 27.3742 3.36172 27.434 3.54102C27.6739 3.601 27.9094 3.60187 28.155 3.6016C28.2236 3.60184 28.2236 3.60184 28.2937 3.60208C28.447 3.60254 28.6004 3.60262 28.7537 3.6027C28.8636 3.60295 28.9736 3.60321 29.0836 3.6035C29.3822 3.6042 29.6809 3.60454 29.9795 3.60478C30.1661 3.60493 30.3526 3.60515 30.5392 3.60539C31.1228 3.60611 31.7064 3.60663 32.29 3.60683C32.9638 3.60707 33.6377 3.608 34.3116 3.60954C34.8324 3.61069 35.3533 3.61123 35.8741 3.6113C36.1852 3.61135 36.4963 3.61167 36.8075 3.61262C37.1 3.61349 37.3926 3.61361 37.6851 3.61314C37.7925 3.6131 37.8999 3.61333 38.0072 3.61385C38.1538 3.61453 38.3003 3.61422 38.4469 3.61366C38.4894 3.61409 38.5319 3.61452 38.5757 3.61496C38.8315 3.61269 39.0054 3.57479 39.2277 3.43477C39.3086 3.3299 39.3086 3.3299 39.3539 3.2123C39.3792 3.15529 39.3792 3.15529 39.405 3.09713C39.4166 3.0683 39.4282 3.03947 39.4402 3.00977C39.5454 3.00977 39.6506 3.00977 39.759 3.00977C39.759 3.83373 39.759 4.6577 39.759 5.50664C39.6538 5.50664 39.5486 5.50664 39.4402 5.50664C39.4274 5.47719 39.4145 5.44775 39.4012 5.41741C39.3834 5.37892 39.3656 5.34043 39.3473 5.30078C39.33 5.26257 39.3128 5.22436 39.295 5.18499C39.2134 5.05961 39.1523 5.03193 39.0152 4.97539C38.9112 4.95919 38.9112 4.95919 38.8021 4.9606C38.7603 4.96 38.7184 4.95941 38.6753 4.9588C38.6071 4.95863 38.6071 4.95863 38.5376 4.95845C38.4652 4.95765 38.4652 4.95765 38.3915 4.95683C38.2322 4.95519 38.073 4.95429 37.9137 4.95339C37.8033 4.9524 37.6928 4.95136 37.5823 4.95028C37.2917 4.94755 37.001 4.94544 36.7104 4.94347C36.4137 4.94134 36.1171 4.93863 35.8205 4.93596C35.2385 4.93082 34.6566 4.92634 34.0746 4.92227C34.0778 6.37829 34.0819 7.8343 34.0871 9.29031C34.0895 9.96635 34.0916 10.6424 34.093 11.3184C34.0942 11.9076 34.096 12.4968 34.0984 13.086C34.0997 13.398 34.1007 13.71 34.101 14.022C34.1014 14.3156 34.1024 14.6093 34.1041 14.9029C34.1045 15.0107 34.1047 15.1185 34.1046 15.2263C34.1045 15.3735 34.1054 15.5206 34.1066 15.6678C34.1063 15.7104 34.106 15.7531 34.1058 15.7971C34.109 16.0531 34.1471 16.2279 34.2871 16.4504C34.392 16.5313 34.392 16.5313 34.5096 16.5766C34.5476 16.5934 34.5856 16.6103 34.6247 16.6276C34.6536 16.6393 34.6824 16.6509 34.7121 16.6629C34.7121 16.7681 34.7121 16.8733 34.7121 16.9816C33.783 16.9816 32.8538 16.9816 31.8965 16.9816C31.8965 16.8765 31.8965 16.7713 31.8965 16.6629C31.965 16.6272 32.0336 16.5919 32.1023 16.5566C32.1406 16.5369 32.1788 16.5172 32.2181 16.4969C32.3215 16.4504 32.3215 16.4504 32.4277 16.4504C32.4804 16.1867 32.4889 15.9353 32.4893 15.6678C32.4895 15.6217 32.4898 15.5757 32.4901 15.5282C32.4909 15.3743 32.4913 15.2204 32.4918 15.0665C32.4923 14.956 32.4928 14.8455 32.4934 14.735C32.4948 14.4353 32.4959 14.1356 32.497 13.8358C32.4981 13.5225 32.4996 13.2092 32.501 12.8959C32.5037 12.3027 32.5061 11.7094 32.5083 11.1162C32.511 10.4408 32.5139 9.76543 32.5168 9.09004C32.5229 7.70078 32.5286 6.31152 32.534 4.92227C31.8875 4.92182 31.241 4.92309 30.5944 4.92653C30.2942 4.92808 29.994 4.92903 29.6938 4.92865C29.4041 4.9283 29.1145 4.92949 28.8248 4.93175C28.7142 4.93234 28.6037 4.93238 28.4931 4.93185C28.3383 4.93121 28.1836 4.93253 28.0288 4.93433C27.9831 4.93368 27.9373 4.93303 27.8902 4.93236C27.655 4.93539 27.655 4.93539 27.4536 5.04371C27.3194 5.1997 27.2314 5.3648 27.1684 5.55977C27.0632 5.55977 26.958 5.55977 26.8496 5.55977C26.8496 4.71827 26.8496 3.87677 26.8496 3.00977Z" fill="black"/>
<path d="M83.1102 5.40039C83.1978 5.40039 83.2855 5.40039 83.3758 5.40039C83.4598 5.48962 83.4598 5.48962 83.5252 5.60625C83.5586 5.66357 83.5586 5.66357 83.5926 5.72205C83.6414 5.82539 83.6414 5.82539 83.6414 5.93164C83.8562 5.98265 84.0573 5.99202 84.2778 5.99317C84.3145 5.99343 84.3511 5.9937 84.3889 5.99397C84.5114 5.99478 84.634 5.99523 84.7565 5.99567C84.8444 5.99618 84.9324 5.99671 85.0204 5.99727C85.259 5.9987 85.4976 5.99982 85.7362 6.00088C85.9856 6.00204 86.235 6.0035 86.4845 6.00492C86.9567 6.00757 87.429 6.00996 87.9012 6.01225C88.4389 6.01488 88.9765 6.01779 89.5142 6.02074C90.6201 6.02678 91.7261 6.03246 92.832 6.03789C92.7926 6.21265 92.7392 6.32141 92.6316 6.4658C92.586 6.52736 92.586 6.52736 92.5395 6.59018C92.5067 6.63364 92.474 6.6771 92.4402 6.72188C92.4067 6.76691 92.3731 6.81195 92.3385 6.85835C92.0706 7.21632 91.7958 7.56855 91.5178 7.91874C91.2155 8.30107 90.9222 8.69011 90.6307 9.08072C90.3286 9.48563 90.0228 9.88621 89.7052 10.2791C89.5051 10.527 89.313 10.7799 89.123 11.0356C88.9838 11.2221 88.8419 11.4063 88.6997 11.5906C88.4857 11.8683 88.2731 12.1472 88.0607 12.4262C87.7735 12.8035 87.4858 13.1806 87.1975 13.5572C87.0393 13.7639 86.8814 13.971 86.7239 14.1783C86.6504 14.2749 86.577 14.3715 86.5035 14.4682C86.4498 14.5388 86.4498 14.5388 86.3951 14.6109C86.1574 14.9232 85.9169 15.233 85.67 15.5381C85.5678 15.6659 85.5 15.7622 85.4477 15.9191C86.3149 15.9184 87.1822 15.9162 88.0494 15.9121C88.4521 15.9103 88.8548 15.9089 89.2575 15.9088C89.6085 15.9086 89.9595 15.9075 90.3106 15.9053C90.4964 15.9042 90.6822 15.9035 90.868 15.9039C91.0756 15.9044 91.2832 15.9028 91.4908 15.901C91.5829 15.9017 91.5829 15.9017 91.677 15.9024C92.0312 15.9011 92.0312 15.9011 92.3369 15.742C92.4683 15.5911 92.5214 15.4754 92.5664 15.2816C92.6541 15.2816 92.7417 15.2816 92.832 15.2816C92.832 16.053 92.832 16.8244 92.832 17.6191C92.7444 17.6191 92.6567 17.6191 92.5664 17.6191C92.5554 17.5903 92.5444 17.5615 92.533 17.5318C92.5166 17.4938 92.5003 17.4558 92.4834 17.4166C92.468 17.379 92.4526 17.3414 92.4367 17.3027C92.318 17.1471 92.1637 17.0927 91.982 17.0348C91.7942 17.0108 91.7942 17.0108 91.5965 17.0136C91.541 17.0131 91.541 17.0131 91.4844 17.0125C91.3615 17.0115 91.2386 17.0117 91.1157 17.0118C91.0271 17.0113 90.9386 17.0108 90.8501 17.0102C90.6105 17.0087 90.371 17.0082 90.1314 17.0079C89.8807 17.0074 89.6301 17.006 89.3795 17.0047C88.9052 17.0024 88.4309 17.0009 87.9565 16.9996C87.4164 16.9982 86.8763 16.9959 86.3362 16.9934C85.2254 16.9885 84.1147 16.9847 83.0039 16.9816C83.0412 16.7037 83.1048 16.5783 83.2928 16.3674C83.3415 16.3115 83.3901 16.2554 83.4387 16.1993C83.4636 16.1706 83.4885 16.142 83.5142 16.1125C83.6325 15.9734 83.7433 15.8288 83.8539 15.6834C83.8867 15.6404 83.8867 15.6404 83.9202 15.5965C83.9645 15.5384 84.0089 15.4802 84.0531 15.422C84.1633 15.2774 84.2742 15.1334 84.3852 14.9895C84.4297 14.9316 84.4743 14.8737 84.5188 14.8158C84.5517 14.773 84.5517 14.773 84.5853 14.7293C84.649 14.6465 84.7125 14.5637 84.7761 14.4808C85.2194 13.9035 85.6669 13.3294 86.1144 12.7553C86.423 12.3592 86.7304 11.9622 87.0348 11.5629C87.2472 11.2841 87.4623 11.0081 87.6824 10.7353C87.8231 10.5591 87.9601 10.3802 88.0972 10.2013C88.2897 9.95024 88.4839 9.70063 88.6783 9.45117C89.0117 9.0232 89.3417 8.59268 89.6708 8.16141C89.7957 7.99789 89.9209 7.83463 90.0463 7.67148C90.0869 7.61862 90.1275 7.56575 90.1693 7.51128C90.2764 7.37323 90.3852 7.2367 90.4945 7.10039C89.6342 7.10237 88.7739 7.10555 87.9136 7.11016C87.5141 7.11227 87.1146 7.114 86.7151 7.11479C86.3669 7.11548 86.0187 7.11691 85.6704 7.11923C85.4861 7.12043 85.3018 7.12126 85.1174 7.12121C84.9115 7.12116 84.7056 7.12277 84.4997 7.12451C84.4387 7.12425 84.3778 7.12398 84.315 7.12371C83.9887 7.12799 83.7788 7.1388 83.5352 7.36602C83.4593 7.5312 83.4593 7.5312 83.4289 7.68477C83.3237 7.68477 83.2185 7.68477 83.1102 7.68477C83.1102 6.93092 83.1102 6.17708 83.1102 5.40039Z" fill="black"/>
<path d="M54.9531 7.09954C56.2316 7.09102 56.2316 7.09102 56.7812 7.08916C57.1546 7.0879 57.5279 7.08641 57.9013 7.08351C58.2027 7.08118 58.5041 7.07992 58.8055 7.07938C58.9199 7.07899 59.0343 7.07823 59.1486 7.07707C60.147 7.06738 61.0948 7.12424 61.8604 7.83582C62.2192 8.22362 62.3147 8.74809 62.3043 9.2621C62.2524 9.71772 62.1029 10.1791 61.7454 10.4825C60.8702 11.1053 59.6003 10.9857 58.5743 10.9829C58.4694 10.9828 58.3645 10.9827 58.2595 10.9826C57.9858 10.9824 57.7121 10.9819 57.4384 10.9813C57.1087 10.9807 56.7789 10.9804 56.4492 10.9801C55.9505 10.9796 55.4518 10.9786 54.9531 10.9777C54.9531 9.69788 54.9531 8.4181 54.9531 7.09954Z" fill="#F5F4F6"/>
<path d="M78.7539 6.03711C79.6305 6.03711 80.507 6.03711 81.4102 6.03711C81.4102 6.12477 81.4102 6.21242 81.4102 6.30273C81.3769 6.31499 81.3436 6.32725 81.3093 6.33988C81.2659 6.35721 81.2225 6.37453 81.1777 6.39238C81.1346 6.40902 81.0914 6.42566 81.047 6.44281C80.8945 6.5389 80.8785 6.60927 80.8258 6.78086C80.8097 6.96424 80.8097 6.96424 80.8119 7.16764C80.8117 7.20604 80.8115 7.24444 80.8113 7.284C80.8108 7.41238 80.811 7.54075 80.8112 7.66913C80.811 7.7613 80.8107 7.85346 80.8104 7.94562C80.8097 8.19577 80.8096 8.44591 80.8098 8.69606C80.8098 8.90492 80.8096 9.11378 80.8093 9.32264C80.8087 9.81537 80.8087 10.3081 80.809 10.8008C80.8093 11.3091 80.8087 11.8174 80.8075 12.3256C80.8066 12.7621 80.8063 13.1986 80.8065 13.635C80.8066 13.8957 80.8064 14.1563 80.8057 14.417C80.805 14.6621 80.8051 14.9072 80.8058 15.1523C80.8059 15.2422 80.8058 15.3321 80.8054 15.422C80.8048 15.5448 80.8052 15.6676 80.8059 15.7905C80.8059 15.8935 80.8059 15.8935 80.8059 15.9987C80.8276 16.2012 80.8795 16.3296 80.9852 16.5027C81.09 16.5836 81.09 16.5836 81.2076 16.6289C81.2646 16.6542 81.2646 16.6542 81.3228 16.68C81.3516 16.6916 81.3805 16.7032 81.4102 16.7152C81.4102 16.8029 81.4102 16.8905 81.4102 16.9809C80.5336 16.9809 79.657 16.9809 78.7539 16.9809C78.7539 16.8932 78.7539 16.8055 78.7539 16.7152C78.7872 16.7004 78.8205 16.6855 78.8548 16.6702C78.8982 16.6489 78.9416 16.6276 78.9863 16.6057C79.0295 16.5853 79.0726 16.565 79.1171 16.544C79.281 16.4094 79.2914 16.2826 79.3383 16.0777C79.3475 15.9475 79.3517 15.8168 79.3518 15.6862C79.3519 15.6486 79.3521 15.611 79.3523 15.5722C79.3527 15.4471 79.3524 15.322 79.352 15.1969C79.3522 15.1068 79.3524 15.0167 79.3526 14.9267C79.3531 14.6827 79.3529 14.4387 79.3526 14.1947C79.3523 13.9391 79.3525 13.6835 79.3527 13.4279C79.3529 12.9988 79.3526 12.5697 79.3521 12.1405C79.3516 11.6446 79.3517 11.1487 79.3523 10.6528C79.3528 10.2267 79.3529 9.80065 79.3526 9.37456C79.3524 9.12021 79.3524 8.86586 79.3528 8.61151C79.3531 8.37242 79.3529 8.13334 79.3522 7.89426C79.3521 7.80658 79.3521 7.7189 79.3524 7.63123C79.3527 7.51143 79.3523 7.39165 79.3518 7.27185C79.3517 7.20485 79.3517 7.13785 79.3517 7.06883C79.338 6.88336 79.3042 6.73939 79.232 6.56836C79.1197 6.47487 79.1197 6.47487 78.9863 6.41563C78.9429 6.39385 78.8995 6.37207 78.8548 6.34963C78.8215 6.33416 78.7882 6.31868 78.7539 6.30273C78.7539 6.21508 78.7539 6.12742 78.7539 6.03711Z" fill="black"/>
<path d="M71.2102 7.52539C71.2628 7.52539 71.3153 7.52539 71.3695 7.52539C71.3854 7.56347 71.4013 7.60156 71.4176 7.6408C71.4645 7.75329 71.5113 7.86577 71.5582 7.97825C71.6075 8.09648 71.6567 8.21473 71.7059 8.333C72.0807 9.23581 72.0807 9.23581 72.5051 10.1159C72.6726 10.4497 72.8166 10.7945 72.9633 11.1379C73.0898 11.434 73.0898 11.434 73.2189 11.7289C73.2365 11.7686 73.2541 11.8083 73.2723 11.8493C73.3204 11.9554 73.3698 12.061 73.4196 12.1664C73.4487 12.228 73.4778 12.2896 73.5078 12.3531C73.5493 12.44 73.5493 12.44 73.5917 12.5287C73.6539 12.6785 73.6539 12.6785 73.6539 12.8379C72.0936 12.8379 70.5333 12.8379 68.9258 12.8379C68.9855 12.42 68.9855 12.42 69.0644 12.2631C69.0822 12.2267 69.1 12.1904 69.1184 12.1529C69.1381 12.1138 69.1578 12.0747 69.1781 12.0344C69.2221 11.9444 69.2658 11.8543 69.3095 11.7642C69.3333 11.7151 69.357 11.666 69.3815 11.6154C69.5214 11.3213 69.6532 11.0236 69.7857 10.7262C69.8447 10.5941 69.9036 10.4621 69.9625 10.33C69.9775 10.2965 69.9925 10.263 70.0079 10.2284C70.1199 9.97766 70.2327 9.7273 70.346 9.47711C70.3625 9.4407 70.379 9.40428 70.396 9.36676C70.4603 9.22482 70.5246 9.0829 70.589 8.94103C70.8021 8.47165 71.0089 7.99996 71.2102 7.52539Z" fill="#F5F4F6"/>
<path d="M40.9805 16.7148C41.0331 16.7148 41.0857 16.7148 41.1398 16.7148C41.1398 16.7674 41.1398 16.82 41.1398 16.8742C45.6366 16.9005 45.6366 16.9005 50.2242 16.9273C50.2242 16.9449 50.2242 16.9624 50.2242 16.9805C47.1738 16.9805 44.1233 16.9805 40.9805 16.9805C40.9805 16.8928 40.9805 16.8052 40.9805 16.7148Z" fill="#33264E"/>
<path d="M47.7281 10.5527C47.7807 10.5878 47.8333 10.6229 47.8875 10.659C47.6183 10.8206 47.4172 10.8406 47.1132 10.8365C47.0686 10.8365 47.024 10.8365 46.978 10.8365C46.8314 10.8364 46.6848 10.8352 46.5382 10.8339C46.4362 10.8336 46.3343 10.8334 46.2323 10.8332C45.9645 10.8326 45.6967 10.8311 45.429 10.8293C45.1555 10.8277 44.882 10.8269 44.6085 10.8261C44.0723 10.8244 43.5362 10.8217 43 10.8184C43 10.8008 43 10.7833 43 10.7652C43.2313 10.7085 43.4572 10.7037 43.694 10.7029C43.7575 10.7024 43.7575 10.7024 43.8223 10.7018C43.914 10.7011 44.0056 10.7004 44.0972 10.6999C44.2421 10.699 44.387 10.6978 44.5319 10.6965C44.9437 10.6927 45.3555 10.6895 45.7673 10.6868C46.0194 10.6851 46.2715 10.6829 46.5236 10.6804C46.6197 10.6795 46.7159 10.6789 46.812 10.6784C46.9461 10.6778 47.0801 10.6765 47.2141 10.6751C47.274 10.675 47.274 10.675 47.3352 10.675C47.5558 10.6788 47.5558 10.6788 47.7281 10.5527Z" fill="#C5BDD2"/>
<path d="M69.032 12.3594C69.0496 12.3594 69.0671 12.3594 69.0852 12.3594C69.0852 12.4821 69.0852 12.6048 69.0852 12.7313C70.5753 12.7488 72.0655 12.7663 73.6008 12.7844C73.6183 12.7493 73.6358 12.7143 73.6539 12.6781C73.6539 12.7307 73.6539 12.7833 73.6539 12.8375C72.0936 12.8375 70.5333 12.8375 68.9258 12.8375C68.9789 12.4656 68.9789 12.4656 69.032 12.3594Z" fill="#E4DDEC"/>
<path d="M78.7539 6.03711C79.6305 6.03711 80.507 6.03711 81.4102 6.03711C81.4102 6.12477 81.4102 6.21242 81.4102 6.30273C81.3839 6.19755 81.3839 6.19755 81.357 6.09023C80.6032 6.10777 79.8493 6.1253 79.0727 6.14336C79.0727 6.23102 79.0727 6.31867 79.0727 6.40898C78.9675 6.37392 78.8623 6.33886 78.7539 6.30273C78.7539 6.21508 78.7539 6.12742 78.7539 6.03711Z" fill="#3C2F58"/>
<path d="M77.0527 16.5566C77.2549 16.5923 77.4433 16.6484 77.6371 16.716C77.6371 16.8037 77.6371 16.8913 77.6371 16.9816C77.4618 16.9641 77.2865 16.9466 77.1059 16.9285C77.0883 16.8058 77.0708 16.6831 77.0527 16.5566Z" fill="#3E2F5C"/>
<path d="M48.1523 10.2344C48.2225 10.2344 48.2926 10.2344 48.3648 10.2344C48.3648 10.9707 48.3648 11.707 48.3648 12.4656C48.2947 12.4656 48.2246 12.4656 48.1523 12.4656C48.1523 12.4306 48.1523 12.3955 48.1523 12.3594C48.1874 12.3594 48.2225 12.3594 48.2586 12.3594C48.2586 11.6757 48.2586 10.9919 48.2586 10.2875C48.2235 10.27 48.1885 10.2524 48.1523 10.2344Z" fill="#32264C"/>
<path d="M87.9965 10.3398C88.078 10.5029 88.0257 10.6427 87.9965 10.818C87.9439 10.8004 87.8913 10.7829 87.8371 10.7648C87.8229 10.7966 87.8086 10.8284 87.7939 10.8611C87.7317 10.9759 87.6674 11.0495 87.5715 11.1367C87.5189 11.1192 87.4663 11.1017 87.4121 11.0836C87.4995 10.9696 87.5869 10.8556 87.6744 10.7416C87.6993 10.7091 87.7242 10.6766 87.7498 10.6431C87.9373 10.399 87.9373 10.399 87.9965 10.3398Z" fill="#41335C"/>
<path d="M65.5789 16.6094C65.614 16.697 65.649 16.7847 65.6852 16.875C65.3266 16.9812 65.3266 16.9812 65.207 16.9812C65.207 16.8936 65.207 16.8059 65.207 16.7156C65.3477 16.638 65.4139 16.6094 65.5789 16.6094Z" fill="#322358"/>
<path d="M87.3055 11.2441C87.3405 11.2441 87.3756 11.2441 87.4117 11.2441C87.383 11.4453 87.2992 11.5392 87.1461 11.6691C87.111 11.6691 87.076 11.6691 87.0398 11.6691C87.0185 11.73 87.0185 11.73 86.9967 11.792C86.9366 11.9281 86.8851 11.9984 86.7742 12.0941C86.7392 12.0766 86.7041 12.0591 86.668 12.041C86.7642 11.9181 86.8605 11.7953 86.9568 11.6725C86.9843 11.6374 87.0117 11.6024 87.0399 11.5663C87.0661 11.5329 87.0923 11.4995 87.1193 11.4651C87.1435 11.4343 87.1677 11.4034 87.1927 11.3716C87.2523 11.2973 87.2523 11.2973 87.3055 11.2441Z" fill="#3C2E58"/>
<path d="M69.9879 10.2871C70.0054 10.3222 70.023 10.3572 70.041 10.3934C70.0761 10.3934 70.1111 10.3934 70.1473 10.3934C70.1297 10.481 70.1122 10.5687 70.0941 10.659C70.0591 10.659 70.024 10.659 69.9879 10.659C69.9726 10.693 69.9572 10.7269 69.9414 10.7619C69.8816 10.8715 69.8816 10.8715 69.7754 10.9246C69.8043 10.6821 69.8707 10.5011 69.9879 10.2871Z" fill="#EBE6F0"/>
<path d="M39.4398 2.84961C39.4574 2.88467 39.4749 2.91973 39.493 2.95586C39.5806 2.95586 39.6683 2.95586 39.7586 2.95586C39.7586 2.97339 39.7586 2.99092 39.7586 3.00898C39.6534 3.00898 39.5482 3.00898 39.4398 3.00898C39.4267 3.06706 39.4135 3.12513 39.4 3.18496C39.3325 3.384 39.2987 3.43961 39.1211 3.54023C39.1468 3.26639 39.2904 3.07191 39.4398 2.84961Z" fill="#E7E2EF"/>
<path d="M90.282 9.49023C90.3171 9.50777 90.3522 9.5253 90.3883 9.54336C90.1758 9.80898 89.9633 10.0746 89.7508 10.3402C89.7157 10.3227 89.6807 10.3052 89.6445 10.2871C89.8549 10.0241 90.0653 9.76117 90.282 9.49023Z" fill="#DED7E9"/>
<path d="M55.166 16.5566C55.3063 16.6092 55.4465 16.6618 55.591 16.716C55.591 16.8037 55.591 16.8913 55.591 16.9816C55.4332 16.9553 55.4332 16.9553 55.2723 16.9285C55.2372 16.8058 55.2021 16.6831 55.166 16.5566Z" fill="#443563"/>
<path d="M79.0727 16.6094C78.973 16.8617 78.973 16.8617 78.9133 16.9812C78.8607 16.9812 78.8081 16.9812 78.7539 16.9812C78.7539 16.8936 78.7539 16.8059 78.7539 16.7156C78.9531 16.6094 78.9531 16.6094 79.0727 16.6094Z" fill="#40345B"/>
<path d="M75.0336 15.9727C75.1133 16.0291 75.1133 16.0291 75.193 16.132C75.2129 16.3213 75.2129 16.3213 75.193 16.5039C75.1404 16.539 75.0878 16.574 75.0336 16.6102C75.0347 16.5532 75.0358 16.4962 75.0369 16.4375C75.0343 16.2818 75.02 16.1724 74.9805 16.0258C74.998 16.0083 75.0155 15.9907 75.0336 15.9727Z" fill="#E5DEEF"/>
<path d="M85.7117 13.2617C85.7648 13.4742 85.7648 13.4742 85.7119 13.5647C85.641 13.6408 85.5701 13.7169 85.4992 13.793C85.4466 13.7754 85.394 13.7579 85.3398 13.7398C85.4626 13.5821 85.5853 13.4243 85.7117 13.2617Z" fill="#473A61"/>
<path d="M60.6367 7.20601C60.9471 7.18738 61.1602 7.19712 61.4336 7.36538C61.4336 7.40044 61.4336 7.43551 61.4336 7.47163C61.3983 7.46074 61.3631 7.44985 61.3267 7.43863C61.2798 7.42432 61.2329 7.41001 61.1846 7.39526C61.1383 7.38109 61.0921 7.36691 61.0445 7.35231C60.9092 7.3142 60.7748 7.28476 60.6367 7.25913C60.6367 7.2416 60.6367 7.22407 60.6367 7.20601Z" fill="#524669"/>
<path d="M85.6598 15.4941C85.7374 15.6348 85.766 15.701 85.766 15.866C85.6608 15.866 85.5556 15.866 85.4473 15.866C85.5112 15.7335 85.5776 15.6173 85.6598 15.4941Z" fill="#E7E2F0"/>
<path d="M69.5094 8.74609C69.5444 8.81622 69.5795 8.88634 69.6156 8.95859C69.5066 9.07801 69.4559 9.11809 69.2969 9.17109C69.3135 9.01836 69.3135 9.01836 69.35 8.85234C69.4026 8.81728 69.4552 8.78222 69.5094 8.74609Z" fill="#3F2F5C"/>
<path d="M72.6971 6.35547C72.7497 6.373 72.8023 6.39053 72.8564 6.40859C72.8055 6.46941 72.8055 6.46941 72.7535 6.53145C72.6364 6.66797 72.6364 6.66797 72.5908 6.83359C72.5558 6.83359 72.5207 6.83359 72.4846 6.83359C72.4713 6.71406 72.4713 6.71406 72.4846 6.56797C72.5908 6.44512 72.5908 6.44512 72.6971 6.35547Z" fill="#E5DFF0"/>
<path d="M74.982 16.6094C75.0171 16.6269 75.0522 16.6444 75.0883 16.6625C75.0484 16.792 75.0484 16.792 74.982 16.9281C74.8691 16.9713 74.8691 16.9713 74.7695 16.9812C74.7695 16.8936 74.7695 16.8059 74.7695 16.7156C74.8691 16.6592 74.8691 16.6592 74.982 16.6094Z" fill="#483C63"/>
<path d="M63.1883 10.5527C63.2058 10.6053 63.2233 10.6579 63.2414 10.7121C63.1662 10.8589 63.0925 10.9673 62.9758 11.084C62.9232 11.0665 62.8706 11.0489 62.8164 11.0309C62.9391 10.8731 63.0618 10.7153 63.1883 10.5527Z" fill="#E7E2EF"/>
<path d="M68.712 10.0742C68.7471 10.0742 68.7822 10.0742 68.8183 10.0742C68.743 10.3118 68.6529 10.537 68.5527 10.7648C68.4781 10.5954 68.5047 10.5389 68.5726 10.3598C68.6185 10.2643 68.6647 10.169 68.712 10.0742Z" fill="#E8E1F2"/>
<path d="M50.3848 7.36523C50.5441 7.56445 50.5441 7.56445 50.5441 7.68398C50.6318 7.68398 50.7195 7.68398 50.8098 7.68398C50.8098 7.70152 50.8098 7.71905 50.8098 7.73711C50.7221 7.73711 50.6345 7.73711 50.5441 7.73711C50.5266 7.77217 50.5091 7.80723 50.491 7.84336C50.456 7.82583 50.4209 7.8083 50.3848 7.79023C50.3848 7.64998 50.3848 7.50973 50.3848 7.36523Z" fill="#D9D3E1"/>
<path d="M41.0352 16.6621C41.0878 16.6621 41.1403 16.6621 41.1945 16.6621C41.1945 16.6972 41.1945 16.7322 41.1945 16.7684C41.2822 16.7859 41.3698 16.8034 41.4602 16.8215C41.4602 16.8565 41.4602 16.8916 41.4602 16.9277C41.355 16.9277 41.2498 16.9277 41.1414 16.9277C41.1239 16.8927 41.1063 16.8576 41.0883 16.8215C41.1058 16.7864 41.1233 16.7514 41.1414 16.7152C41.1063 16.6977 41.0713 16.6802 41.0352 16.6621Z" fill="#3E2C61"/>
<path d="M86.3496 12.2539C86.4022 12.2714 86.4548 12.289 86.509 12.307C86.3863 12.4648 86.2635 12.6226 86.1371 12.7852C86.1196 12.7326 86.102 12.68 86.084 12.6258C86.1537 12.5096 86.1537 12.5096 86.2434 12.4133C86.2784 12.4133 86.3135 12.4133 86.3496 12.4133C86.3496 12.3607 86.3496 12.3081 86.3496 12.2539Z" fill="#EAE3F2"/>
<path d="M60.5312 11.8809C60.6014 11.8984 60.6715 11.9159 60.7438 11.934C60.7262 12.0041 60.7087 12.0742 60.6906 12.1465C60.7432 12.164 60.7958 12.1815 60.85 12.1996C60.8149 12.1996 60.7799 12.1996 60.7438 12.1996C60.7262 12.2347 60.7087 12.2697 60.6906 12.3059C60.5312 12.0602 60.5312 12.0602 60.5312 11.8809Z" fill="#DED7E8"/>
<path d="M92.7781 6.19727C92.7957 6.24986 92.8132 6.30245 92.8313 6.35664C92.7783 6.45355 92.7783 6.45355 92.7018 6.55254C92.6766 6.58562 92.6515 6.61869 92.6256 6.65277C92.6058 6.67777 92.586 6.70276 92.5656 6.72852C92.513 6.71098 92.4604 6.69345 92.4062 6.67539C92.529 6.51761 92.6517 6.35983 92.7781 6.19727Z" fill="#DBD4E6"/>
<path d="M92.832 17.3535C92.832 17.4412 92.832 17.5288 92.832 17.6191C92.7444 17.6191 92.6567 17.6191 92.5664 17.6191C92.5664 17.5665 92.5664 17.514 92.5664 17.4598C92.7258 17.3535 92.7258 17.3535 92.832 17.3535Z" fill="#413458"/>
<path d="M62.2852 14.9102C62.4445 14.9633 62.4445 14.9633 62.5066 15.0614C62.5245 15.1003 62.5423 15.1391 62.5607 15.1791C62.579 15.2181 62.5973 15.257 62.6161 15.2972C62.6296 15.3272 62.6431 15.3573 62.657 15.3883C62.5508 15.3883 62.5508 15.3883 62.4711 15.3186C62.3458 15.1776 62.2852 15.1024 62.2852 14.9102Z" fill="#483D62"/>
<path d="M87.3586 13.0508C87.4112 13.0508 87.4638 13.0508 87.518 13.0508C87.4413 13.2296 87.3409 13.3435 87.1992 13.4758C87.2326 13.3202 87.2835 13.191 87.3586 13.0508Z" fill="#3F3156"/>
<path d="M62.868 10.6602C62.9381 10.6952 63.0082 10.7303 63.0805 10.7664C63.0103 10.8365 62.9402 10.9067 62.868 10.9789C62.8329 10.9614 62.7978 10.9438 62.7617 10.9258C62.8082 10.7199 62.8082 10.7199 62.868 10.6602Z" fill="#3D2D61"/>
<path d="M48.1004 10.1816C48.188 10.1816 48.2757 10.1816 48.366 10.1816C48.331 10.2167 48.2959 10.2518 48.2598 10.2879C48.2773 10.3405 48.2948 10.3931 48.3129 10.4473C48.2077 10.4648 48.1025 10.4823 47.9941 10.5004C48.0292 10.3952 48.0643 10.29 48.1004 10.1816Z" fill="#4B3E64"/>
<path d="M89.5367 8.10938C89.5718 8.12691 89.6068 8.14444 89.643 8.1625C89.5755 8.37043 89.5095 8.47013 89.3242 8.5875C89.3585 8.40234 89.4359 8.26725 89.5367 8.10938Z" fill="#EBE5F1"/>
<path d="M87.0398 11.5625C87.0574 11.5976 87.0749 11.6326 87.093 11.6688C87.0074 11.8355 86.9131 11.9681 86.7742 12.0938C86.7392 12.0762 86.7041 12.0587 86.668 12.0406C86.7907 11.8828 86.9134 11.7251 87.0398 11.5625Z" fill="#4B3D64"/>
<path d="M87.732 10.5C87.7671 10.5 87.8022 10.5 87.8383 10.5C87.7708 10.7079 87.7048 10.8076 87.5195 10.925C87.5195 10.7161 87.5936 10.6506 87.732 10.5Z" fill="#E3DEED"/>
<path d="M90.8129 8.80078C90.848 8.83584 90.883 8.87091 90.9191 8.90703C90.7775 9.0487 90.6358 9.19036 90.4941 9.33203C90.521 9.09942 90.663 8.9699 90.8129 8.80078Z" fill="#E0D9EA"/>
<path d="M92.3004 6.67578C92.3179 6.72837 92.3355 6.78097 92.3535 6.83516C92.2838 6.95137 92.2838 6.95137 92.1941 7.04766C92.1591 7.04766 92.124 7.04766 92.0879 7.04766C92.1045 6.92148 92.1045 6.92148 92.141 6.78203C92.1936 6.74697 92.2462 6.71191 92.3004 6.67578Z" fill="#3E3058"/>
<path d="M81.2492 6.35547C81.2492 6.39053 81.2492 6.42559 81.2492 6.46172C81.1613 6.51584 81.0727 6.56893 80.9836 6.62109C80.9661 6.65616 80.9485 6.69122 80.9305 6.72734C80.8954 6.72734 80.8603 6.72734 80.8242 6.72734C80.9023 6.48024 80.9023 6.48024 81.0367 6.39199C81.143 6.35547 81.143 6.35547 81.2492 6.35547Z" fill="#D6D0E3"/>
<path d="M39.0684 5.02734C39.168 5.0373 39.168 5.0373 39.2809 5.08047C39.3473 5.2166 39.3473 5.2166 39.3871 5.34609C39.2576 5.30625 39.2576 5.30625 39.1215 5.23984C39.0783 5.12695 39.0783 5.12695 39.0684 5.02734Z" fill="#E8E2F1"/>
<path d="M67.8625 14.9629C67.9687 15.1754 67.9687 15.1754 67.9322 15.2916C67.8625 15.3879 67.8625 15.3879 67.7031 15.441C67.7557 15.2832 67.8083 15.1255 67.8625 14.9629Z" fill="#D9D3E4"/>
<path d="M67.3316 13.1035C67.3667 13.121 67.4018 13.1386 67.4379 13.1566C67.3327 13.3933 67.3327 13.3933 67.2254 13.6348C67.1903 13.5646 67.1553 13.4945 67.1191 13.4223C67.1893 13.3171 67.2594 13.2119 67.3316 13.1035Z" fill="#E8E2F2"/>
<path d="M60.5312 12.041C60.6588 12.1941 60.7689 12.3366 60.85 12.5191C60.7974 12.5191 60.7448 12.5191 60.6906 12.5191C60.6731 12.4315 60.6556 12.3438 60.6375 12.2535C60.6024 12.2535 60.5674 12.2535 60.5312 12.2535C60.5312 12.1834 60.5312 12.1133 60.5312 12.041Z" fill="#483B5F"/>
<path d="M65.4195 16.6094C65.4546 16.6269 65.4897 16.6444 65.5258 16.6625C65.4732 16.6976 65.4206 16.7326 65.3664 16.7687C65.328 16.8781 65.328 16.8781 65.3133 16.9812C65.2782 16.9812 65.2432 16.9812 65.207 16.9812C65.207 16.8936 65.207 16.8059 65.207 16.7156C65.3066 16.6592 65.3066 16.6592 65.4195 16.6094Z" fill="#584F6D"/>
<path d="M64.0379 16.7148C64.0379 16.8025 64.0379 16.8902 64.0379 16.9805C64.0204 16.9103 64.0028 16.8402 63.9848 16.768C63.9497 16.768 63.9146 16.768 63.8785 16.768C63.8785 16.8206 63.8785 16.8732 63.8785 16.9273C63.8084 16.9098 63.7383 16.8923 63.666 16.8742C63.7989 16.7148 63.8115 16.7148 64.0379 16.7148Z" fill="#463A65"/>
<path d="M66.1633 15.8125C66.2159 15.8125 66.2685 15.8125 66.3227 15.8125C66.3051 15.8651 66.2876 15.9177 66.2695 15.9719C66.2345 15.9719 66.1994 15.9719 66.1633 15.9719C66.1633 16.0245 66.1633 16.0771 66.1633 16.1312C66.1107 16.1488 66.0581 16.1663 66.0039 16.1844C66.1035 15.932 66.1035 15.932 66.1633 15.8125Z" fill="#493C64"/>
<path d="M50.5961 15.2812C50.6838 15.2812 50.7714 15.2812 50.8617 15.2812C50.8219 15.3842 50.8219 15.3842 50.7555 15.4938C50.6426 15.5336 50.6426 15.5336 50.543 15.5469C50.5605 15.4592 50.578 15.3716 50.5961 15.2812Z" fill="#53486C"/>
<path d="M59.2031 12.4648C59.3228 12.6077 59.4094 12.7117 59.4688 12.8898C59.4162 12.8898 59.3636 12.8898 59.3094 12.8898C59.2426 12.7355 59.2031 12.6351 59.2031 12.4648Z" fill="#E1DBE9"/>
<path d="M69.4561 11.457C69.4911 11.5272 69.5262 11.5973 69.5623 11.6695C69.5097 11.6871 69.4571 11.7046 69.403 11.7227C69.364 11.8297 69.364 11.8297 69.3498 11.9352C69.2967 11.7758 69.2967 11.7758 69.3731 11.6064C69.4005 11.5571 69.4279 11.5078 69.4561 11.457Z" fill="#DFD9E9"/>
<path d="M79.018 6.41016C79.1475 6.47324 79.1475 6.47324 79.2836 6.56953C79.3268 6.7123 79.3268 6.7123 79.3367 6.83516C79.3192 6.78256 79.3017 6.72997 79.2836 6.67578C79.1809 6.61779 79.1809 6.61779 79.0711 6.56953C79.036 6.53447 79.001 6.49941 78.9648 6.46328C78.9824 6.44575 78.9999 6.42822 79.018 6.41016Z" fill="#D9D1E6"/>
<path d="M50.4914 5.45312C50.5089 5.45312 50.5265 5.45312 50.5445 5.45312C50.5578 5.59922 50.5578 5.59922 50.5445 5.77188C50.4383 5.89805 50.4383 5.89805 50.332 5.98438C50.332 5.77894 50.4074 5.63859 50.4914 5.45312Z" fill="#4C3F65"/>
</g>
</g>
<defs>
<clipPath id="clip0_1010_719">
<rect width="96" height="21" fill="white"/>
</clipPath>
<clipPath id="clip1_1010_719">
<rect width="68" height="16.7344" fill="white" transform="translate(26 2)"/>
</clipPath>
</defs>
</svg>
