<svg width="92" height="27" viewBox="0 0 92 27" fill="none" xmlns="http://www.w3.org/2000/svg">
<g clip-path="url(#clip0_1018_933)">
<path d="M51.5742 9.50253C52.4853 9.50022 53.3965 9.49848 54.3076 9.49741C54.7307 9.4969 55.1538 9.49621 55.5769 9.49508C55.9459 9.49409 56.3149 9.49345 56.6839 9.49323C56.8791 9.4931 57.0742 9.4928 57.2694 9.49208C57.4536 9.4914 57.6377 9.4912 57.8219 9.49135C57.9208 9.49131 58.0197 9.49078 58.1186 9.49023C59.0956 9.49244 60.0816 9.71527 60.8121 10.4013C61.324 10.9467 61.5328 11.622 61.528 12.3613C61.5093 12.8894 61.3654 13.4144 61.0623 13.8512C61.0313 13.8965 61.0313 13.8965 60.9997 13.9427C60.5649 14.51 59.7582 14.8288 59.0717 14.9272C58.9275 14.9392 58.7855 14.9405 58.6408 14.9384C58.7671 15.2129 58.9177 15.4628 59.0827 15.7158C59.3112 16.0665 59.5318 16.4219 59.7531 16.7771C59.9299 17.0608 60.1081 17.3435 60.2879 17.6253C60.3659 17.748 60.4431 17.8711 60.52 17.9945C60.999 18.8925 60.999 18.8925 61.7973 19.4199C61.832 19.425 61.8666 19.4301 61.9023 19.4353C61.9023 19.5169 61.9023 19.5984 61.9023 19.6824C61.0707 19.6824 60.239 19.6824 59.3821 19.6824C59.3821 19.6009 59.3821 19.5193 59.3821 19.4353C59.4799 19.3864 59.5778 19.3375 59.6786 19.2871C59.5839 18.6622 59.0188 18.0272 58.6839 17.5043C58.5353 17.2721 58.3873 17.0395 58.2393 16.807C58.2109 16.7624 58.1826 16.7179 58.1533 16.672C58.0115 16.4492 57.8701 16.2261 57.7295 16.0026C57.7025 15.9596 57.6754 15.9167 57.6476 15.8724C57.5967 15.7915 57.5459 15.7106 57.4952 15.6296C57.4725 15.5935 57.4498 15.5574 57.4264 15.5202C57.397 15.4731 57.397 15.4731 57.3669 15.4251C57.347 15.3949 57.3271 15.3648 57.3066 15.3337C57.2882 15.2998 57.2699 15.2658 57.251 15.2309C57.1383 15.1155 57.0625 15.1118 56.9047 15.1083C56.8706 15.1086 56.8364 15.1088 56.8013 15.1091C56.747 15.1083 56.747 15.1083 56.6917 15.1075C56.5721 15.1061 56.4526 15.106 56.3331 15.1059C56.2502 15.1052 56.1673 15.1044 56.0845 15.1035C55.8663 15.1013 55.6482 15.1003 55.4301 15.0996C55.2075 15.0986 54.9849 15.0965 54.7623 15.0946C54.3255 15.0908 53.8888 15.0883 53.4521 15.0866C53.4539 15.5905 53.4569 16.0944 53.4611 16.5983C53.4631 16.8323 53.4647 17.0663 53.4655 17.3003C53.4662 17.5262 53.4679 17.752 53.4703 17.9779C53.471 18.064 53.4714 18.1501 53.4714 18.2362C53.4715 18.357 53.4729 18.4778 53.4745 18.5985C53.4743 18.634 53.474 18.6694 53.4737 18.7059C53.4789 18.9539 53.5443 19.0954 53.6991 19.2871C53.7897 19.3509 53.7897 19.3509 53.8845 19.3797C53.9375 19.3981 53.9905 19.4164 54.0451 19.4353C54.0451 19.5169 54.0451 19.5984 54.0451 19.6824C53.2297 19.6824 52.4143 19.6824 51.5742 19.6824C51.5742 19.6009 51.5742 19.5193 51.5742 19.4353C51.6144 19.4191 51.6144 19.4191 51.6555 19.4025C51.6908 19.3868 51.7262 19.3712 51.7626 19.355C51.7976 19.3401 51.8326 19.3252 51.8686 19.3098C52.0116 19.2076 52.0508 19.103 52.1178 18.9412C52.1399 18.7656 52.1399 18.7656 52.1366 18.5751C52.137 18.5214 52.137 18.5214 52.1373 18.4666C52.1379 18.3472 52.1375 18.2279 52.137 18.1085C52.1372 18.0227 52.1375 17.9369 52.1378 17.851C52.1384 17.6184 52.1382 17.3857 52.1377 17.153C52.1373 16.9094 52.1377 16.6658 52.1379 16.4223C52.1382 16.0133 52.1378 15.6043 52.1371 15.1953C52.1363 14.7225 52.1366 14.2497 52.1374 13.7769C52.1381 13.3708 52.1382 12.9648 52.1378 12.5587C52.1376 12.3163 52.1375 12.0738 52.138 11.8313C52.1384 11.6034 52.1381 11.3755 52.1373 11.1476C52.1371 11.0639 52.1371 10.9803 52.1375 10.8966C52.1379 10.7824 52.1374 10.6683 52.1366 10.5541C52.1366 10.4903 52.1365 10.4264 52.1365 10.3605C52.1164 10.1822 52.0767 10.0895 51.9696 9.94728C51.871 9.87738 51.871 9.87738 51.7626 9.83301C51.7273 9.81689 51.6919 9.80077 51.6555 9.78417C51.6287 9.77277 51.6018 9.76136 51.5742 9.74962C51.5742 9.66808 51.5742 9.58654 51.5742 9.50253Z" fill="black"/>
<path d="M67.2381 9.50195C68.2166 9.50195 69.195 9.50195 70.2031 9.50195C70.2031 9.58349 70.2031 9.66503 70.2031 9.74904C70.1563 9.77146 70.1094 9.79388 70.0611 9.81699C69.9065 9.88752 69.9065 9.88752 69.8078 9.99612C69.8214 10.3 69.9047 10.5418 70.0271 10.8177C70.0444 10.8577 70.0617 10.8978 70.0796 10.939C70.1365 11.0698 70.1944 11.2002 70.2526 11.3304C70.283 11.3984 70.283 11.3984 70.314 11.4679C70.4564 11.7853 70.601 12.1017 70.7467 12.4175C70.7627 12.4522 70.7787 12.4868 70.7952 12.5225C70.9291 12.8121 71.0648 13.1007 71.2023 13.3885C71.3973 13.797 71.5863 14.2059 71.7623 14.623C71.9255 15.0027 72.1056 15.375 72.2833 15.7482C72.3198 15.825 72.3564 15.9018 72.3929 15.9787C72.4116 16.0179 72.4303 16.0571 72.4495 16.0975C72.5915 16.3972 72.729 16.6987 72.8655 17.001C72.9496 17.1864 73.0341 17.3717 73.1187 17.5569C73.1413 17.6065 73.1639 17.656 73.1872 17.7071C73.5788 18.6805 73.5788 18.6805 74.3047 19.3853C74.4378 19.4202 74.4378 19.4202 74.5518 19.4347C74.5518 19.5163 74.5518 19.5978 74.5518 19.6818C73.6712 19.6818 72.7906 19.6818 71.8833 19.6818C71.8833 19.6003 71.8833 19.5188 71.8833 19.4347C72.0545 19.3369 72.0545 19.3369 72.2292 19.2371C72.2292 18.3867 71.6479 17.6366 71.2903 16.8651C69.5291 16.8651 67.7679 16.8651 65.9533 16.8651C65.4308 17.8112 65.4308 17.8112 65.0669 19.0641C65.1164 19.1962 65.1473 19.2543 65.2615 19.3359C65.3899 19.3947 65.3899 19.3947 65.5085 19.4347C65.5085 19.5163 65.5085 19.5978 65.5085 19.6818C64.6769 19.6818 63.8452 19.6818 62.9883 19.6818C62.9883 19.6003 62.9883 19.5188 62.9883 19.4347C63.0217 19.4198 63.055 19.4048 63.0894 19.3894C63.1556 19.3583 63.1556 19.3583 63.223 19.3266C63.2666 19.3066 63.3102 19.2865 63.355 19.2658C63.6222 19.1019 63.7494 18.8306 63.8901 18.5607C63.919 18.5056 63.919 18.5056 63.9485 18.4495C64.1392 18.0813 64.3069 17.7041 64.4714 17.3236C64.5535 17.1343 64.6372 16.9456 64.721 16.757C64.7373 16.7203 64.7536 16.6835 64.7703 16.6457C64.957 16.2265 65.1454 15.8074 65.3539 15.3986C65.4871 15.1334 65.6034 14.8609 65.7217 14.5888C65.9535 14.0589 66.1928 13.5338 66.4424 13.0121C66.696 12.4809 66.942 11.9465 67.1856 11.4107C67.2105 11.3562 67.2105 11.3562 67.2358 11.3005C67.2834 11.1958 67.331 11.0911 67.3785 10.9864C67.3999 10.9393 67.3999 10.9393 67.4218 10.8912C67.6441 10.437 67.6441 10.437 67.6335 9.9467C67.5356 9.86191 67.4423 9.81068 67.3246 9.75734C67.2818 9.72877 67.2818 9.72877 67.2381 9.69962C67.2381 9.63439 67.2381 9.56916 67.2381 9.50195Z" fill="black"/>
<path d="M49.3501 8.9082C49.4317 8.9082 49.5132 8.9082 49.5972 8.9082C49.5972 9.60943 49.5972 10.3107 49.5972 11.0331C49.5157 11.0331 49.4341 11.0331 49.3501 11.0331C49.2789 10.9501 49.2789 10.9501 49.2235 10.8416C49.137 10.6746 49.0811 10.6085 48.9054 10.539C48.7754 10.5237 48.7754 10.5237 48.6321 10.5252C48.5765 10.5246 48.5209 10.5241 48.4637 10.5235C48.3726 10.5234 48.3726 10.5234 48.2796 10.5232C48.2155 10.5227 48.1513 10.5222 48.0852 10.5217C47.9095 10.5203 47.7339 10.5196 47.5582 10.519C47.3745 10.5182 47.1908 10.5169 47.0071 10.5156C46.6594 10.5133 46.3116 10.5115 45.9639 10.5098C45.4939 10.5076 45.0239 10.5046 44.554 10.5016C43.8136 10.497 43.0733 10.4933 42.3329 10.4895C42.3329 11.6311 42.3329 12.7726 42.3329 13.9487C43.081 13.9442 43.081 13.9442 43.8291 13.9384C44.1343 13.9357 44.4395 13.9332 44.7447 13.9316C44.9908 13.9303 45.2368 13.9283 45.4829 13.9258C45.5767 13.925 45.6705 13.9244 45.7644 13.9241C45.8959 13.9237 46.0274 13.9223 46.159 13.9207C46.1977 13.9207 46.2363 13.9208 46.2762 13.9209C46.5122 13.9168 46.674 13.8796 46.8793 13.7511C46.9545 13.6535 46.9545 13.6535 46.9966 13.5441C47.0123 13.5088 47.028 13.4734 47.0441 13.437C47.055 13.4102 47.0658 13.3834 47.0769 13.3557C47.1585 13.3557 47.24 13.3557 47.324 13.3557C47.324 14.0569 47.324 14.7582 47.324 15.4806C47.2425 15.4806 47.1609 15.4806 47.0769 15.4806C47.065 15.4533 47.053 15.4259 47.0406 15.3976C47.0241 15.3618 47.0075 15.326 46.9905 15.2892C46.9744 15.2536 46.9584 15.2181 46.9418 15.1814C46.8623 15.0592 46.8193 15.0369 46.6816 14.9865C46.5395 14.9761 46.4021 14.9711 46.26 14.9707C46.2175 14.9702 46.1751 14.9697 46.1313 14.9692C45.9912 14.9677 45.8511 14.9669 45.711 14.966C45.6138 14.9651 45.5166 14.9641 45.4194 14.9631C45.1636 14.9606 44.9079 14.9586 44.6521 14.9568C44.3452 14.9545 44.0383 14.9514 43.7314 14.9485C43.2652 14.9441 42.7991 14.9407 42.3329 14.9371C42.3329 16.1764 42.3329 17.4158 42.3329 18.6927C43.5126 18.6897 43.5126 18.6897 44.6923 18.6848C45.1733 18.6824 45.6543 18.6802 46.1353 18.6794C46.4856 18.6787 46.8359 18.6774 47.1862 18.6752C47.3716 18.6741 47.5571 18.6733 47.7426 18.6734C47.9496 18.6734 48.1567 18.6719 48.3637 18.6703C48.4252 18.6706 48.4867 18.6708 48.5501 18.6711C48.6066 18.6704 48.663 18.6697 48.7212 18.669C48.7702 18.6688 48.8192 18.6686 48.8696 18.6684C49.0416 18.6363 49.1253 18.5645 49.2513 18.4457C49.3097 18.3542 49.3097 18.3542 49.3408 18.2603C49.3602 18.2073 49.3796 18.1543 49.3995 18.0997C49.4811 18.0997 49.5626 18.0997 49.6466 18.0997C49.6466 18.8173 49.6466 19.5348 49.6466 20.2741C49.5651 20.2741 49.4835 20.2741 49.3995 20.2741C49.3934 20.2431 49.3873 20.2122 49.381 20.1803C49.3708 20.1399 49.3606 20.0995 49.3501 20.0579C49.3409 20.0178 49.3318 19.9776 49.3223 19.9363C49.2271 19.7929 49.1261 19.7863 48.9641 19.7496C48.8051 19.7215 48.6508 19.7175 48.4895 19.7167C48.4375 19.7163 48.4375 19.7163 48.3845 19.7159C48.2696 19.715 48.1548 19.7149 48.0399 19.7147C47.9571 19.7143 47.8742 19.7138 47.7914 19.7132C47.5674 19.7119 47.3435 19.7111 47.1195 19.7105C46.8851 19.7097 46.6507 19.7084 46.4163 19.7071C45.9728 19.7048 45.5293 19.703 45.0859 19.7014C44.5808 19.6995 44.0758 19.697 43.5707 19.6946C42.5322 19.6894 41.4936 19.685 40.4551 19.6811C40.4551 19.5995 40.4551 19.518 40.4551 19.434C40.4866 19.4179 40.5181 19.4018 40.5506 19.3852C40.5915 19.3636 40.6323 19.342 40.6744 19.3197C40.7354 19.2879 40.7354 19.2879 40.7977 19.2554C40.915 19.1918 40.915 19.1918 40.9492 19.0387C40.954 18.9228 40.9557 18.8068 40.9559 18.6908C40.956 18.6551 40.9561 18.6195 40.9562 18.5828C40.9565 18.4631 40.9565 18.3433 40.9564 18.2236C40.9566 18.1379 40.9567 18.0522 40.9569 17.9665C40.9574 17.7334 40.9575 17.5003 40.9575 17.2672C40.9576 17.0726 40.9577 16.8781 40.9579 16.6836C40.9583 16.2246 40.9584 15.7657 40.9584 15.3067C40.9584 14.8332 40.9589 14.3597 40.9597 13.8862C40.9603 13.4798 40.9606 13.0733 40.9606 12.6669C40.9605 12.4241 40.9607 12.1813 40.9612 11.9386C40.9617 11.7102 40.9617 11.4818 40.9613 11.2534C40.9613 11.1696 40.9614 11.0858 40.9617 11.002C40.9621 10.8875 40.9618 10.7731 40.9615 10.6586C40.9615 10.5946 40.9615 10.5305 40.9615 10.4645C40.9468 10.2577 40.9116 10.077 40.7856 9.90889C40.6819 9.83212 40.5763 9.79089 40.4551 9.74829C40.4551 9.66675 40.4551 9.58521 40.4551 9.50121C40.4981 9.50109 40.5411 9.50097 40.5854 9.50085C41.6322 9.49793 42.679 9.49419 43.7257 9.48956C44.2319 9.48734 44.7381 9.48539 45.2443 9.48409C45.6855 9.48295 46.1267 9.4813 46.5679 9.47903C46.8016 9.47785 47.0352 9.47692 47.2688 9.47661C47.4887 9.47632 47.7086 9.47533 47.9285 9.47381C48.0092 9.47338 48.0899 9.4732 48.1706 9.47328C48.2809 9.47337 48.3911 9.47254 48.5014 9.47149C48.563 9.47126 48.6247 9.47104 48.6883 9.4708C48.8737 9.44977 48.9935 9.39993 49.1524 9.30354C49.2277 9.20599 49.2277 9.20599 49.2698 9.0966C49.2933 9.04357 49.2933 9.04357 49.3173 8.98947C49.3281 8.96265 49.339 8.93583 49.3501 8.9082Z" fill="black"/>
<path d="M27.3105 6.68555C27.4247 6.68555 27.5389 6.68555 27.6565 6.68555C27.7985 7.01293 27.7985 7.01293 27.8541 7.17972C28.0773 7.23551 28.2963 7.23632 28.5248 7.23607C28.5887 7.23629 28.5887 7.23629 28.6538 7.23652C28.7965 7.23695 28.9391 7.23702 29.0817 7.2371C29.184 7.23732 29.2863 7.23757 29.3886 7.23784C29.6664 7.23849 29.9442 7.23881 30.222 7.23903C30.3955 7.23917 30.5691 7.23937 30.7426 7.23959C31.2855 7.24027 31.8283 7.24075 32.3712 7.24094C32.998 7.24116 33.6248 7.24203 34.2517 7.24346C34.7362 7.24453 35.2207 7.24502 35.7051 7.24509C35.9945 7.24514 36.2839 7.24544 36.5733 7.24632C36.8455 7.24713 37.1176 7.24724 37.3897 7.2468C37.4896 7.24677 37.5895 7.24698 37.6894 7.24747C37.8257 7.2481 37.962 7.24781 38.0983 7.24729C38.1379 7.24769 38.1774 7.24809 38.2181 7.2485C38.4561 7.24639 38.6179 7.21113 38.8247 7.08088C38.8999 6.98334 38.8999 6.98334 38.942 6.87395C38.9655 6.82092 38.9655 6.82092 38.9895 6.76681C39.0004 6.74 39.0112 6.71318 39.0223 6.68555C39.1202 6.68555 39.218 6.68555 39.3188 6.68555C39.3188 7.452 39.3188 8.21846 39.3188 9.00814C39.221 9.00814 39.1232 9.00814 39.0223 9.00814C39.0104 8.98075 38.9984 8.95336 38.9861 8.92513C38.9695 8.88933 38.9529 8.85353 38.9359 8.81665C38.9198 8.7811 38.9038 8.74556 38.8872 8.70894C38.8113 8.59232 38.7545 8.56656 38.627 8.51397C38.5302 8.4989 38.5302 8.4989 38.4288 8.50021C38.3898 8.49966 38.3509 8.49911 38.3108 8.49854C38.2474 8.49838 38.2474 8.49838 38.1827 8.49821C38.1154 8.49747 38.1154 8.49747 38.0468 8.49671C37.8986 8.49518 37.7505 8.49434 37.6024 8.49351C37.4996 8.49258 37.3969 8.49162 37.2941 8.49061C37.0237 8.48807 36.7534 8.48611 36.483 8.48428C36.2071 8.4823 35.9312 8.47977 35.6552 8.47729C35.1139 8.47251 34.5726 8.46834 34.0312 8.46455C34.0342 9.81894 34.0381 11.1733 34.0429 12.5277C34.0451 13.1566 34.0471 13.7854 34.0484 14.4143C34.0495 14.9623 34.0511 15.5104 34.0534 16.0584C34.0546 16.3487 34.0555 16.6389 34.0558 16.9291C34.0561 17.2023 34.0571 17.4754 34.0586 17.7485C34.0591 17.8488 34.0592 17.9491 34.0592 18.0494C34.0591 18.1863 34.0599 18.3231 34.061 18.46C34.0607 18.4997 34.0605 18.5394 34.0602 18.5803C34.0632 18.8184 34.0986 18.9811 34.2289 19.188C34.3265 19.2633 34.3265 19.2633 34.4358 19.3054C34.4712 19.321 34.5065 19.3367 34.543 19.3529C34.5698 19.3637 34.5966 19.3745 34.6242 19.3857C34.6242 19.4835 34.6242 19.5814 34.6242 19.6822C33.7599 19.6822 32.8956 19.6822 32.0051 19.6822C32.0051 19.5843 32.0051 19.4865 32.0051 19.3857C32.0689 19.3525 32.1327 19.3196 32.1966 19.2868C32.2322 19.2685 32.2677 19.2502 32.3044 19.2313C32.4005 19.188 32.4005 19.188 32.4993 19.188C32.5483 18.9428 32.5563 18.7088 32.5566 18.46C32.5568 18.4172 32.557 18.3743 32.5573 18.3302C32.5581 18.187 32.5585 18.0439 32.5589 17.9007C32.5594 17.7979 32.5598 17.6951 32.5604 17.5924C32.5617 17.3136 32.5627 17.0348 32.5637 16.7559C32.5648 16.4645 32.5662 16.1731 32.5675 15.8816C32.5699 15.3298 32.5722 14.778 32.5743 14.2262C32.5767 13.5979 32.5795 12.9697 32.5822 12.3414C32.5878 11.0491 32.5931 9.75684 32.5982 8.46455C31.9968 8.46414 31.3954 8.46532 30.794 8.46852C30.5147 8.46996 30.2355 8.47085 29.9562 8.47049C29.6868 8.47016 29.4173 8.47127 29.1478 8.47338C29.045 8.47393 28.9422 8.47396 28.8394 8.47347C28.6953 8.47287 28.5514 8.47411 28.4074 8.47577C28.3649 8.47517 28.3223 8.47457 28.2785 8.47394C28.0597 8.47676 28.0597 8.47676 27.8723 8.57752C27.7475 8.72262 27.6657 8.8762 27.607 9.05756C27.5092 9.05756 27.4114 9.05756 27.3105 9.05756C27.3105 8.27479 27.3105 7.49203 27.3105 6.68555Z" fill="black"/>
<path d="M79.6418 8.9082C79.7233 8.9082 79.8049 8.9082 79.8889 8.9082C79.9671 8.99121 79.9671 8.99121 80.0279 9.09969C80.0589 9.15301 80.0589 9.15301 80.0906 9.20741C80.136 9.30354 80.136 9.30354 80.136 9.40237C80.3358 9.44982 80.5228 9.45854 80.7279 9.45961C80.7621 9.45985 80.7962 9.4601 80.8313 9.46035C80.9453 9.4611 81.0592 9.46152 81.1732 9.46194C81.255 9.46241 81.3369 9.4629 81.4187 9.46342C81.6406 9.46475 81.8626 9.46579 82.0845 9.46678C82.3166 9.46786 82.5486 9.46921 82.7806 9.47054C83.2199 9.473 83.6592 9.47522 84.0984 9.47736C84.5986 9.4798 85.0987 9.48251 85.5989 9.48525C86.6276 9.49087 87.6563 9.49615 88.6851 9.50121C88.6484 9.66377 88.5987 9.76493 88.4986 9.89924C88.4562 9.95651 88.4562 9.95651 88.413 10.0149C88.3825 10.0554 88.352 10.0958 88.3206 10.1374C88.2894 10.1793 88.2582 10.2212 88.226 10.2644C87.9768 10.5974 87.7212 10.925 87.4626 11.2508C87.1814 11.6064 86.9086 11.9683 86.6374 12.3316C86.3564 12.7083 86.072 13.0809 85.7765 13.4464C85.5904 13.6769 85.4117 13.9122 85.235 14.1501C85.1055 14.3235 84.9735 14.4949 84.8412 14.6663C84.6421 14.9246 84.4444 15.1841 84.2468 15.4436C83.9796 15.7946 83.7121 16.1453 83.4439 16.4956C83.2967 16.688 83.1498 16.8805 83.0033 17.0734C82.935 17.1633 82.8666 17.2532 82.7983 17.343C82.7484 17.4088 82.7484 17.4088 82.6974 17.4758C82.4763 17.7663 82.2526 18.0545 82.023 18.3383C81.9279 18.4571 81.8648 18.5468 81.8161 18.6927C82.6229 18.6921 83.4296 18.69 84.2363 18.6862C84.6109 18.6845 84.9855 18.6832 85.36 18.6831C85.6866 18.6829 86.0131 18.6819 86.3396 18.6799C86.5125 18.6788 86.6853 18.6782 86.8582 18.6786C87.0513 18.679 87.2443 18.6776 87.4374 18.6759C87.5232 18.6766 87.5232 18.6766 87.6106 18.6772C87.9402 18.676 87.9402 18.676 88.2245 18.528C88.3467 18.3876 88.3961 18.28 88.438 18.0997C88.5195 18.0997 88.6011 18.0997 88.6851 18.0997C88.6851 18.8173 88.6851 19.5348 88.6851 20.2741C88.6036 20.2741 88.522 20.2741 88.438 20.2741C88.4277 20.2473 88.4175 20.2204 88.4069 20.1928C88.3917 20.1575 88.3765 20.1221 88.3608 20.0857C88.3465 20.0507 88.3321 20.0157 88.3174 19.9797C88.2069 19.835 88.0634 19.7844 87.8944 19.7305C87.7197 19.7082 87.7197 19.7082 87.5358 19.7108C87.4842 19.7103 87.4842 19.7103 87.4315 19.7098C87.3172 19.7089 87.2029 19.709 87.0885 19.7091C87.0062 19.7087 86.9239 19.7082 86.8415 19.7076C86.6187 19.7062 86.3958 19.7058 86.1729 19.7055C85.9398 19.705 85.7067 19.7037 85.4735 19.7025C85.0323 19.7004 84.5911 19.699 84.1499 19.6978C83.6475 19.6965 83.1451 19.6943 82.6427 19.6921C81.6094 19.6875 80.5762 19.6839 79.543 19.6811C79.5776 19.4225 79.6368 19.3059 79.8117 19.1097C79.857 19.0577 79.9022 19.0055 79.9474 18.9533C79.9706 18.9267 79.9937 18.9001 80.0176 18.8726C80.1277 18.7432 80.2308 18.6087 80.3336 18.4735C80.3642 18.4335 80.3642 18.4335 80.3953 18.3927C80.4366 18.3386 80.4778 18.2844 80.519 18.2303C80.6214 18.0958 80.7246 17.9619 80.8278 17.8279C80.8693 17.7741 80.9107 17.7202 80.9521 17.6664C80.9827 17.6266 80.9827 17.6266 81.014 17.586C81.0732 17.5089 81.1323 17.4319 81.1915 17.3548C81.6039 16.8178 82.0201 16.2837 82.4364 15.7497C82.7235 15.3813 83.0093 15.012 83.2925 14.6406C83.4901 14.3813 83.6902 14.1245 83.8949 13.8707C84.0258 13.7068 84.1532 13.5404 84.2808 13.374C84.4598 13.1405 84.6404 12.9083 84.8213 12.6762C85.1314 12.2781 85.4383 11.8777 85.7445 11.4765C85.8607 11.3244 85.9772 11.1725 86.0938 11.0208C86.1316 10.9716 86.1693 10.9224 86.2083 10.8718C86.3079 10.7433 86.4091 10.6163 86.5107 10.4895C85.7105 10.4914 84.9102 10.4943 84.1099 10.4986C83.7383 10.5006 83.3667 10.5022 82.9952 10.5029C82.6712 10.5036 82.3473 10.5049 82.0234 10.5071C81.8519 10.5082 81.6804 10.509 81.509 10.5089C81.3174 10.5089 81.1259 10.5104 80.9343 10.512C80.8776 10.5117 80.8209 10.5115 80.7625 10.5112C80.459 10.5152 80.2638 10.5253 80.0371 10.7366C79.9666 10.8903 79.9666 10.8903 79.9383 11.0331C79.8405 11.0331 79.7426 11.0331 79.6418 11.0331C79.6418 10.3319 79.6418 9.63068 79.6418 8.9082Z" fill="black"/>
<path d="M75.5898 9.50195C76.4052 9.50195 77.2206 9.50195 78.0607 9.50195C78.0607 9.58349 78.0607 9.66503 78.0607 9.74904C78.0297 9.76044 77.9988 9.77184 77.9669 9.78359C77.9265 9.79971 77.8861 9.81582 77.8445 9.83243C77.8044 9.84791 77.7642 9.86339 77.7229 9.87934C77.581 9.96872 77.5661 10.0342 77.5171 10.1938C77.5021 10.3644 77.5021 10.3644 77.5042 10.5536C77.504 10.5893 77.5038 10.625 77.5036 10.6618C77.5031 10.7812 77.5033 10.9006 77.5035 11.0201C77.5033 11.1058 77.5031 11.1915 77.5028 11.2773C77.5021 11.5099 77.5021 11.7426 77.5022 11.9753C77.5023 12.1696 77.502 12.3639 77.5018 12.5582C77.5012 13.0165 77.5012 13.4748 77.5015 13.9332C77.5018 14.406 77.5012 14.8788 77.5001 15.3515C77.4993 15.7576 77.499 16.1636 77.4991 16.5696C77.4992 16.812 77.4991 17.0545 77.4984 17.2969C77.4978 17.5249 77.4979 17.7529 77.4985 17.9809C77.4986 18.0645 77.4985 18.1481 77.4981 18.2318C77.4976 18.346 77.498 18.4603 77.4986 18.5745C77.4986 18.6704 77.4986 18.6704 77.4986 18.7682C77.5188 18.9566 77.5671 19.0761 77.6654 19.2371C77.7629 19.3123 77.7629 19.3123 77.8723 19.3544C77.9253 19.3779 77.9253 19.3779 77.9794 19.4019C78.0062 19.4128 78.0331 19.4236 78.0607 19.4347C78.0607 19.5163 78.0607 19.5978 78.0607 19.6818C77.2453 19.6818 76.4299 19.6818 75.5898 19.6818C75.5898 19.6003 75.5898 19.5188 75.5898 19.4347C75.6208 19.4209 75.6518 19.4071 75.6837 19.3929C75.724 19.373 75.7644 19.3532 75.806 19.3328C75.8462 19.3139 75.8863 19.295 75.9277 19.2755C76.0802 19.1502 76.0898 19.0323 76.1334 18.8417C76.142 18.7206 76.1459 18.599 76.146 18.4776C76.1461 18.4426 76.1463 18.4076 76.1464 18.3715C76.1468 18.2551 76.1465 18.1388 76.1462 18.0224C76.1464 17.9386 76.1465 17.8548 76.1467 17.771C76.1472 17.544 76.147 17.3171 76.1467 17.0901C76.1465 16.8524 76.1467 16.6146 76.1468 16.3769C76.147 15.9777 76.1468 15.5785 76.1463 15.1794C76.1458 14.7181 76.146 14.2568 76.1465 13.7955C76.1469 13.3991 76.147 13.0028 76.1467 12.6064C76.1466 12.3699 76.1466 12.1333 76.1469 11.8967C76.1472 11.6743 76.147 11.4519 76.1464 11.2295C76.1463 11.1479 76.1463 11.0664 76.1465 10.9848C76.1468 10.8734 76.1465 10.7619 76.146 10.6505C76.1459 10.5882 76.1459 10.5259 76.1459 10.4617C76.1332 10.2891 76.1017 10.1552 76.0346 9.99612C75.9301 9.90916 75.9301 9.90916 75.806 9.85405C75.7657 9.83379 75.7253 9.81353 75.6837 9.79266C75.6527 9.77827 75.6217 9.76387 75.5898 9.74904C75.5898 9.6675 75.5898 9.58596 75.5898 9.50195Z" fill="black"/>
</g>
<rect width="13.5105" height="6.00468" transform="translate(9.4043 4.57031)" fill="black"/>
<rect width="10.8084" height="9.90773" transform="translate(2.19922 12.6758)" fill="black"/>
<rect width="8.10632" height="7.20562" transform="translate(14.8086 12.5762)" fill="black"/>
<defs>
<clipPath id="clip0_1018_933">
<rect width="63.2536" height="15.5663" fill="white" transform="translate(26.5195 5.74609)"/>
</clipPath>
</defs>
</svg>
