<svg width="32" height="32" viewBox="0 0 32 32" fill="none" xmlns="http://www.w3.org/2000/svg">
<path fill-rule="evenodd" clip-rule="evenodd" d="M15.765 0C24.4574 0 31.53 7.07259 31.53 15.765C31.53 24.4574 24.4574 31.53 15.765 31.53C7.07259 31.53 0 24.4574 0 15.765C0 7.07259 7.07259 0 15.765 0ZM15.765 3.153C8.786 3.153 3.153 8.786 3.153 15.765C3.153 22.744 8.786 28.377 15.765 28.377C22.744 28.377 28.377 22.744 28.377 15.765C28.377 8.786 22.744 3.153 15.765 3.153ZM15.8325 8.53144C17.025 10.082 17.4273 11.9896 17.0452 13.3822C16.9975 13.6114 18.6782 15.3983 22.0874 18.7431C23.2022 19.8579 23.2022 20.9727 22.0874 22.0874C21.0382 23.1366 19.9891 23.1983 18.9399 22.2726L13.4072 17.0203C12.0144 17.4024 10.1069 17.0001 8.55639 15.8076C7.41917 14.3123 7.0269 12.3577 7.3437 10.9568L9.76908 13.3822L12.1945 12.1695L13.4072 9.74413L10.9818 7.31874C12.3826 7.00198 14.3372 7.39419 15.8325 8.53144Z" fill="white"/>
</svg>
