<svg width="25" height="25" viewBox="0 0 25 25" fill="none" xmlns="http://www.w3.org/2000/svg">
<path d="M17.2181 10.1869C17.3561 10.0388 17.4313 9.84291 17.4277 9.64052C17.4241 9.43812 17.3421 9.24501 17.199 9.10187C17.0559 8.95873 16.8628 8.87674 16.6604 8.87317C16.458 8.8696 16.2621 8.94473 16.114 9.08273L11.4577 13.739L9.40564 11.6869C9.25754 11.5489 9.06166 11.4738 8.85927 11.4773C8.65687 11.4809 8.46376 11.5629 8.32062 11.706C8.17748 11.8492 8.09549 12.0423 8.09192 12.2447C8.08835 12.4471 8.16348 12.643 8.30148 12.7911L10.9056 15.3952C11.0521 15.5415 11.2507 15.6237 11.4577 15.6237C11.6648 15.6237 11.8633 15.5415 12.0098 15.3952L17.2181 10.1869Z" fill="#1A1A1A"/>
<path fill-rule="evenodd" clip-rule="evenodd" d="M13.0631 0.663175C12.6975 0.544567 12.3038 0.544567 11.9381 0.663175L3.3444 3.44963C2.97819 3.56843 2.65899 3.80013 2.43257 4.11151C2.20614 4.42289 2.08412 4.79797 2.08398 5.18297V10.4163C2.08398 16.8642 6.01107 21.5673 11.8767 23.7809C12.2788 23.9319 12.7225 23.9319 13.1246 23.7809C18.9892 21.5663 22.9173 16.8642 22.9173 10.4163V5.18297C22.9173 4.39234 22.4069 3.69338 21.6569 3.44963L13.0631 0.663175ZM12.4204 2.14859C12.4726 2.13171 12.5287 2.13171 12.5809 2.14859L21.1746 4.93609C21.2268 4.953 21.2724 4.98597 21.3047 5.03031C21.3371 5.07465 21.3546 5.12807 21.3548 5.18297V10.4163C21.3548 16.1048 17.9381 20.2944 12.5736 22.3184C12.5265 22.3359 12.4748 22.3359 12.4277 22.3184C7.06315 20.2944 3.64648 16.1038 3.64648 10.4163V5.18297C3.64648 5.07047 3.71836 4.97151 3.82669 4.93609L12.4204 2.14859Z" fill="#1A1A1A"/>
</svg>
